{
.appVersion = "1075";
copyright = "Digitized data copyright (C) 2010-2011, Google Corporation.";
customParameters = (
{
name = vendorID;
value = "1ASC";
},
{
name = panose;
value = (
2,
11,
3,
6,
3,
5,
4,
2,
2,
4
);
},
{
name = unicodeRanges;
value = (
0,
1,
2,
3,
5,
6,
7,
9,
11,
29,
30,
31,
32,
33,
35,
36,
38,
45,
62,
67,
69
);
},
{
name = codePageRanges;
value = (
1252,
1250,
1251,
1253,
1254,
1255,
1257,
1258
);
},
{
name = note;
value = "Extrabold ink traps = 8 units\012\012adjust bold by x°";
}
);
date = "2017-11-07 16:57:07 +0000";
designerURL = "http://www.ascendercorp.com/typedesigners.html";
disablesNiceNames = 1;
familyName = "Open Sans Condensed";
featurePrefixes = (
{
automatic = 1;
code = "languagesystem DFLT dflt;\012languagesystem latn dflt;\012languagesystem hebr dflt;\012languagesystem latn ROM;\012languagesystem latn MOL;\012languagesystem latn CAT;\012";
name = Languagesystems;
}
);
features = (
{
automatic = 1;
code = "feature lnum;\012feature locl;\012feature onum;\012feature pnum;\012feature ss01;\012feature ss02;\012feature salt;\012feature tnum;\012feature ccmp;\012feature sups;\012feature frac;\012feature ordn;\012feature case;\012";
name = aalt;
},
{
automatic = 1;
code = "lookup ccmp_Other_1 {\012	@CombiningTopAccents = [acutecomb brevecomb caroncomb circumflexcomb commaturnedabovecomb dblgravecomb dieresiscomb dotaccentcomb gravecomb hookabovecomb hungarumlautcomb macroncomb ringcomb tildecomb];\012	@CombiningNonTopAccents = [cedillacomb dotbelowcomb ogonekcomb];\012	sub [i j]' @CombiningTopAccents by [idotless jdotless];\012	sub [i j]' @CombiningNonTopAccents @CombiningTopAccents by [idotless jdotless];\012} ccmp_Other_1;\012";
name = ccmp;
},
{
automatic = 1;

glyphs = (
{
glyphname = A;
lastChange = "2018-04-02 16:31:04 +0000";
layers = (
{
anchors = (
{
name = bottom;
position = "{251, 0}";
},
{
name = ogonek;
position = "{650, 10}";
},
{
name = top;
position = "{561, 1462}";
}
);
layerId = "9047BFCD-DDCC-4357-AC30-29E5270711EF";
paths = (
{
closed = 1;
nodes = (
"651 1468 LINE",
"528 1468 LINE",
"-78 0 LINE",
"27 0 LINE",
"248 530 LINE",
"555 530 LINE",
"555 0 LINE",
"651 0 LINE"
);
},
{
closed = 1;
nodes = (
"409 944 OFFCURVE",
"484 1135 OFFCURVE",
"509 1202 CURVE SMOOTH",
"534 1269 OFFCURVE",
"551 1319 OFFCURVE",
"561 1354 CURVE",
"558 1236 OFFCURVE",
"555 1117 OFFCURVE",
"555 999 CURVE SMOOTH",
"555 629 LINE",
"283 629 LINE"
);
}
);
width = 731;
},
{
anchors = (
{
name = bottom;
position = "{607, 0}";
},
{
name = ogonek;
position = "{1211, 10}";
},
{
name = top;
position = "{898, 1462}";
}
);
layerId = "055178C8-6F6F-4B48-86C1-608D4439D248";
paths = (
{
closed = 1;
nodes = (
"1159 1468 LINE",
"675 1468 LINE",
"-3 0 LINE",
"347 0 LINE",
"477 301 LINE",
"869 301 LINE",
"870 0 LINE",
"1211 0 LINE"
);
},
{
closed = 1;
nodes = (
"703 817 OFFCURVE",
"776 984 OFFCURVE",
"788 1015 CURVE SMOOTH",
"791 1022 OFFCURVE",
"866 1216 OFFCURVE",
"874 1239 CURVE",
"873 1225 OFFCURVE",
"869 901 OFFCURVE",
"869 868 CURVE SMOOTH",
"868 602 LINE",
"608 600 LINE"
);
}
);
width = 1214;
}
);
note = A;
unicode = 0041;
},
{
glyphname = Aringacute;
lastChange = "2018-04-02 16:33:29 +0000";
layers = (
{
layerId = "9047BFCD-DDCC-4357-AC30-29E5270711EF";
paths = (
{
closed = 1;
nodes = (
"745 1505 OFFCURVE",
"667 1577 OFFCURVE",
"552 1577 CURVE SMOOTH",
"436 1577 OFFCURVE",
"365 1504 OFFCURVE",
"365 1388 CURVE SMOOTH",
"365 1313 OFFCURVE",
"395 1256 OFFCURVE",
"455 1225 CURVE",
"-68 0 LINE",
"39 0 LINE",
"260 530 LINE",
"547 530 LINE",
"567 0 LINE",
"664 0 LINE",
"616 1212 LINE",
"698 1235 OFFCURVE",
"745 1304 OFFCURVE",
"745 1392 CURVE SMOOTH"
);
},
{
closed = 1;
nodes = (
"535 1198 LINE",
"547 629 LINE",
"297 629 LINE"
);
},
{
closed = 1;
nodes = (
"670 1320 OFFCURVE",
"625 1276 OFFCURVE",
"552 1276 CURVE SMOOTH",
"479 1276 OFFCURVE",
"440 1320 OFFCURVE",
"440 1388 CURVE SMOOTH",
"440 1460 OFFCURVE",
"483 1507 OFFCURVE",
"555 1507 CURVE SMOOTH",
"627 1507 OFFCURVE",
"670 1459 OFFCURVE",
"670 1391 CURVE SMOOTH"
);
},
{
closed = 1;
nodes = (
"669 1715 OFFCURVE",
"789 1829 OFFCURVE",
"860 1921 CURVE",
"860 1937 LINE",
"721 1937 LINE",
"658 1826 OFFCURVE",
"582 1734 OFFCURVE",
"518 1657 CURVE",
"518 1640 LINE",
"569 1640 LINE"
);
}
);
width = 731;
},
{
anchors = (
{
name = _top;
position = "{868, 1107}";
},
{
name = bottom;
position = "{607, 0}";
},
{
name = top;
position = "{998, 1721}";
}
);
background = {
paths = (
{
closed = 1;
nodes = (
"1182 1608 OFFCURVE",
"1076 1717 OFFCURVE",
"907 1717 CURVE SMOOTH",
"760 1717 OFFCURVE",
"655 1634 OFFCURVE",
"624 1475 CURVE SMOOTH",
"617 1438 OFFCURVE",
"612 1391 OFFCURVE",
"612 1348 CURVE",
"-3 0 LINE",
"345 0 LINE",
"464 279 LINE",
"859 279 LINE",
"871 0 LINE",
"1211 0 LINE",
"1112 1325 LINE",
"1133 1368 OFFCURVE",
"1147 1427 OFFCURVE",
"1149 1438 CURVE SMOOTH"
);
},
{
closed = 1;
nodes = (
"620 641 OFFCURVE",
"640 687 OFFCURVE",
"669 744 CURVE SMOOTH",
"767 991 OFFCURVE",
"795 1056 OFFCURVE",
"834 1152 CURVE",
"834 1130 OFFCURVE",
"837 1060 OFFCURVE",
"843 1030 CURVE SMOOTH",
"842 927 OFFCURVE",
"847 812 OFFCURVE",
"858 594 CURVE",
"588 568 LINE"
);
},
{
closed = 1;
nodes = (
"802 1509 OFFCURVE",
"858 1557 OFFCURVE",
"922 1557 CURVE SMOOTH",
"960 1557 OFFCURVE",
"988 1537 OFFCURVE",
"979 1488 CURVE SMOOTH",
"967 1425 OFFCURVE",
"918 1372 OFFCURVE",
"844 1372 CURVE SMOOTH",
"802 1372 OFFCURVE",
"779 1387 OFFCURVE",
"788 1436 CURVE SMOOTH"
);
},
{
closed = 1;
nodes = (
"1069 1773 LINE",
"1114 1785 OFFCURVE",
"1206 1828 OFFCURVE",
"1315 1873 CURVE SMOOTH",
"1355 1905 OFFCURVE",
"1412 1935 OFFCURVE",
"1421 1942 CURVE",
"1413 1963 LINE",
"1010 1972 LINE",
"966 1933 OFFCURVE",
"938 1909 OFFCURVE",
"875 1870 CURVE SMOOTH",
"844 1828 OFFCURVE",
"820 1810 OFFCURVE",
"809 1802 CURVE",
"816 1777 LINE"
);
}
);
};
layerId = "055178C8-6F6F-4B48-86C1-608D4439D248";
paths = (
{
closed = 1;
nodes = (
"346 0 LINE",
"478 301 LINE",
"869 301 LINE",
"870 0 LINE",
"1211 0 LINE",
"1160.164 1362.974 LINE",
"1173.687 1394.456 OFFCURVE",
"1181 1430.078 OFFCURVE",
"1181 1469 CURVE SMOOTH",
"1181 1617 OFFCURVE",
"1067 1721 OFFCURVE",
"909 1721 CURVE SMOOTH",
"751 1721 OFFCURVE",
"646 1625 OFFCURVE",
"646 1468 CURVE SMOOTH",
"646 1438.281 OFFCURVE",
"649.834 1410.713 OFFCURVE",
"657.108 1385.545 CURVE",
"-3 0 LINE"
);
},
{
closed = 1;
nodes = (
"863 1160 LINE",
"865 1060 OFFCURVE",
"869 785 OFFCURVE",
"869 603 CURVE",
"608 601 LINE"
);
},
{
closed = 1;
nodes = (
"817 1527 OFFCURVE",
"858 1562 OFFCURVE",
"909 1562 CURVE SMOOTH",
"957 1562 OFFCURVE",
"1000 1527 OFFCURVE",
"1000 1468 CURVE SMOOTH",
"1000 1408 OFFCURVE",
"959 1374 OFFCURVE",
"909 1374 CURVE SMOOTH",
"847 1374 OFFCURVE",
"817 1410 OFFCURVE",
"817 1468 CURVE SMOOTH"
);
},
{
closed = 1;
nodes = (
"1074 1773 LINE",
"1224 1832 OFFCURVE",
"1417 1919 OFFCURVE",
"1449 1942 CURVE",
"1448 1969 LINE",
"1045 1969 LINE",
"1010 1938 OFFCURVE",
"874 1832 OFFCURVE",
"819 1801 CURVE",
"819 1773 LINE"
);
}
);
width = 1214;
}
);
note = Aringacute;
unicode = 01FA;
},
{
glyphname = AE;
lastChange = "2018-04-02 16:06:03 +0000";
layers = (
{
anchors = (
{
name = bottom;
position = "{403, 0}";
},
{
name = top;
position = "{883, 1462}";
}
);
layerId = "9047BFCD-DDCC-4357-AC30-29E5270711EF";
paths = (
{
closed = 1;
nodes = (
"512 94 LINE",
"645 719 LINE",
"1001 719 LINE",
"1022 813 LINE",
"666 813 LINE",
"782 1366 LINE",
"1159 1366 LINE",
"1180 1462 LINE",
"608 1462 LINE",
"-76 0 LINE",
"25 0 LINE",
"270 530 LINE",
"506 530 LINE",
"393 0 LINE",
"870 0 LINE",
"889 94 LINE"
);
},
{
closed = 1;
nodes = (
"682 1364 LINE",
"526 629 LINE",
"313 629 LINE",
"653 1364 LINE"
);
}
);
width = 1036;
},
{
anchors = (
{
name = bottom;
position = "{771, 0}";
},
{
name = top;
position = "{1302, 1462}";
}
);
layerId = "055178C8-6F6F-4B48-86C1-608D4439D248";
paths = (
{
closed = 1;
nodes = (
"1163 300 LINE",
"1228 610 LINE",
"1560 610 LINE",
"1623 907 LINE",
"1291 907 LINE",
"1346 1167 LINE",
"1708 1167 LINE",
"1771 1462 LINE",
"795 1462 LINE",
"-4 0 LINE",
"348 0 LINE",
"508 301 LINE",
"815 301 LINE",
"752 0 LINE",
"1461 0 LINE",
"1525 300 LINE"
);
},
{
closed = 1;
nodes = (
"879 601 LINE",
"668 601 LINE",
"959 1169 LINE",
"999 1169 LINE"
);
}
);
width = 1542;
}
);
note = AE;
unicode = 00C6;
},
{
glyphname = B;
lastChange = "2018-04-02 16:33:50 +0000";
layers = (
{
anchors = (
{
name = bottom;
position = "{294, 0}";
},
{
name = top;
position = "{604, 1462}";
}
);
layerId = "9047BFCD-DDCC-4357-AC30-29E5270711EF";
paths = (
{
closed = 1;
nodes = (
"338 0 LINE SMOOTH",
"429 0 OFFCURVE",
"506 21 OFFCURVE",
"571 64 CURVE SMOOTH",
"700 148 OFFCURVE",
"770 309 OFFCURVE",
"770 510 CURVE SMOOTH",
"770 638 OFFCURVE",
"703 741 OFFCURVE",
"606 766 CURVE",
"608 772 LINE",
"781 805 OFFCURVE",
"887 965 OFFCURVE",
"887 1188 CURVE SMOOTH",
"887 1353 OFFCURVE",
"773 1462 OFFCURVE",
"600 1462 CURVE SMOOTH",
"375 1462 LINE",
"66 0 LINE"
);
},
{
closed = 1;
nodes = (
"578 1366 LINE SMOOTH",
"717 1366 OFFCURVE",
"784 1305 OFFCURVE",
"784 1176 CURVE SMOOTH",
"784 1107 OFFCURVE",
"772 1044 OFFCURVE",
"747 989 CURVE SMOOTH",
"697 877 OFFCURVE",
"603 813 OFFCURVE",
"483 813 CURVE SMOOTH",
"336 813 LINE",
"455 1366 LINE"
);
},
{
closed = 1;
nodes = (
"596 719 OFFCURVE",
"668 633 OFFCURVE",
"668 494 CURVE SMOOTH",
"668 247 OFFCURVE",
"547 94 OFFCURVE",
"342 94 CURVE SMOOTH",
"184 94 LINE",
"317 719 LINE",
"475 719 LINE SMOOTH"
);
}
);
width = 817;
},
{
anchors = (
{
name = bottom;
position = "{547, 0}";
},
{
name = top;
position = "{578, 1462}";
}
);
background = {
paths = (
{
closed = 1;
nodes = (
"612 0 LINE SMOOTH",
"875 0 OFFCURVE",
"1055 149 OFFCURVE",
"1104 402 CURVE SMOOTH",
"1111 441 OFFCURVE",
"1115 477 OFFCURVE",
"1115 511 CURVE SMOOTH",
"1115 642 OFFCURVE",
"1057 728 OFFCURVE",
"933 763 CURVE",
"962 775 LINE",
"1081 797 OFFCURVE",
"1173 914 OFFCURVE",
"1200 1056 CURVE SMOOTH",
"1208 1099 OFFCURVE",
"1212 1138 OFFCURVE",
"1212 1173 CURVE SMOOTH",
"1212 1373 OFFCURVE",
"1081 1462 OFFCURVE",
"797 1462 CURVE SMOOTH",
"394 1462 LINE",
"115 0 LINE"
);
},
{
closed = 1;
nodes = (
"759 1165 LINE SMOOTH",
"833 1165 OFFCURVE",
"860 1154 OFFCURVE",
"860 1105 CURVE SMOOTH",
"860 1092 OFFCURVE",
"859 1077 OFFCURVE",
"855 1058 CURVE SMOOTH",
"836 960 OFFCURVE",
"785 901 OFFCURVE",
"699 901 CURVE SMOOTH",
"612 901 LINE",
"662 1165 LINE"
);
},
{
closed = 1;
nodes = (
"747 615 OFFCURVE",
"774 594 OFFCURVE",
"774 540 CURVE SMOOTH",
"774 526 OFFCURVE",
"773 510 OFFCURVE",
"769 491 CURVE SMOOTH",
"745 365 OFFCURVE",
"677 301 OFFCURVE",
"584 301 CURVE SMOOTH",
"497 301 LINE",
"557 615 LINE",
"674 615 LINE SMOOTH"
);
}
);
};
layerId = "055178C8-6F6F-4B48-86C1-608D4439D248";
paths = (
{
closed = 1;
nodes = (
"613 0 LINE SMOOTH",
"916 0 OFFCURVE",
"1126 221 OFFCURVE",
"1126 505 CURVE SMOOTH",
"1126 638 OFFCURVE",
"1080 724 OFFCURVE",
"949 762 CURVE",
"1129 798 OFFCURVE",
"1237 973 OFFCURVE",
"1237 1168 CURVE SMOOTH",
"1237 1372 OFFCURVE",
"1118 1462 OFFCURVE",
"826 1462 CURVE SMOOTH",
"424 1462 LINE",
"115 0 LINE"
);
},
{
closed = 1;
nodes = (
"785 1165 LINE SMOOTH",
"861 1165 OFFCURVE",
"883 1126 OFFCURVE",
"883 1078 CURVE SMOOTH",
"883 998 OFFCURVE",
"838 901 OFFCURVE",
"717 901 CURVE SMOOTH",
"631 901 LINE",
"687 1165 LINE"
);
},
{
closed = 1;
nodes = (
"763 615 OFFCURVE",
"785 566 OFFCURVE",
"785 513 CURVE SMOOTH",
"785 412 OFFCURVE",
"721 301 OFFCURVE",
"589 301 CURVE SMOOTH",
"504 301 LINE",
"570 615 LINE",
"688 615 LINE SMOOTH"
);
}
);
width = 1094;
}
);
note = B;
unicode = 0042;
},
{
glyphname = C;
lastChange = "2018-04-02 16:34:13 +0000";
layers = (
{
anchors = (
{
name = bottom;
position = "{375, 0}";
},
{
name = top;
position = "{751, 1462}";
}
);
layerId = "9047BFCD-DDCC-4357-AC30-29E5270711EF";
paths = (
{
closed = 1;
nodes = (
"795 1389 OFFCURVE",
"845 1372 OFFCURVE",
"885 1337 CURVE",
"946 1423 LINE",
"895 1466 OFFCURVE",
"825 1485 OFFCURVE",
"753 1485 CURVE SMOOTH",
"642 1485 OFFCURVE",
"540 1439 OFFCURVE",
"447 1344 CURVE SMOOTH",
"258 1152 OFFCURVE",
"135 792 OFFCURVE",
"135 447 CURVE SMOOTH",
"135 131 OFFCURVE",
"238 -20 OFFCURVE",
"445 -20 CURVE SMOOTH",
"503 -20 OFFCURVE",
"566 -8 OFFCURVE",
"629 16 CURVE",
"629 111 LINE",
"565 85 OFFCURVE",
"508 72 OFFCURVE",
"457 72 CURVE SMOOTH",
"299 72 OFFCURVE",
"233 196 OFFCURVE",
"233 455 CURVE SMOOTH",
"233 601 OFFCURVE",
"254 747 OFFCURVE",
"306 905 CURVE SMOOTH",
"408 1216 OFFCURVE",
"566 1389 OFFCURVE",
"740 1389 CURVE SMOOTH"
);
}
);
width = 727;
},
{
anchors = (
{
name = bottom;
position = "{573, 0}";
},
{
name = top;
position = "{904, 1462}";
}
);
background = {
anchors = (
{
name = bottom;
position = "{417, 0}";
},
{
name = top;
position = "{595, 1462}";
}
);
paths = (
{
closed = 1;
nodes = (
"957 1183 OFFCURVE",
"1031 1125 OFFCURVE",
"1063 1096 CURVE",
"1207 1361 LINE",
"1088 1447 OFFCURVE",
"993 1482 OFFCURVE",
"873 1482 CURVE SMOOTH",
"540 1482 OFFCURVE",
"305 1217 OFFCURVE",
"216 751 CURVE SMOOTH",
"186 593 OFFCURVE",
"183 461 OFFCURVE",
"203 367 CURVE SMOOTH",
"230 111 OFFCURVE",
"384 -20 OFFCURVE",
"628 -20 CURVE SMOOTH",
"727 -20 OFFCURVE",
"839 -2 OFFCURVE",
"929 54 CURVE",
"971 376 LINE",
"876 325 OFFCURVE",
"775 281 OFFCURVE",
"679 281 CURVE SMOOTH",
"619 281 OFFCURVE",
"577 296 OFFCURVE",
"545 335 CURVE SMOOTH",
"519 416 OFFCURVE",
"528 541 OFFCURVE",
"556 685 CURVE SMOOTH",
"617 1008 OFFCURVE",
"740 1183 OFFCURVE",
"883 1183 CURVE SMOOTH"
);
}
);
};
layerId = "055178C8-6F6F-4B48-86C1-608D4439D248";
paths = (
{
closed = 1;
nodes = (
"987 1183 OFFCURVE",
"1055 1126 OFFCURVE",
"1087 1097 CURVE",
"1235 1360 LINE",
"1117 1446 OFFCURVE",
"1023 1482 OFFCURVE",
"901 1482 CURVE SMOOTH",
"572 1482 OFFCURVE",
"329 1220 OFFCURVE",
"232 754 CURVE SMOOTH",
"210 648 OFFCURVE",
"201 559 OFFCURVE",
"201 480 CURVE SMOOTH",
"201 174 OFFCURVE",
"334 -20 OFFCURVE",
"624 -20 CURVE SMOOTH",
"730 -20 OFFCURVE",
"881 6 OFFCURVE",
"975 63 CURVE",
"975 377 LINE",
"879 326 OFFCURVE",
"793 281 OFFCURVE",
"680 281 CURVE SMOOTH",
"565 281 OFFCURVE",
"539 328 OFFCURVE",
"539 437 CURVE SMOOTH",
"539 511 OFFCURVE",
"551 593 OFFCURVE",
"571 682 CURVE SMOOTH",
"646 1019 OFFCURVE",
"767 1183 OFFCURVE",
"905 1183 CURVE SMOOTH"
);
}
);
width = 986;
}
);
note = C;
unicode = 0043;
},
{
glyphname = D;
lastChange = "2018-04-02 16:36:00 +0000";
layers = (
{
anchors = (
{
name = bottom;
position = "{333, 0}";
},
{
name = center;
position = "{488, 731}";
},
{
name = top;
position = "{643, 1462}";
}
);
layerId = "9047BFCD-DDCC-4357-AC30-29E5270711EF";
paths = (
{
closed = 1;
nodes = (
"913 1320 OFFCURVE",
"813 1462 OFFCURVE",
"592 1462 CURVE SMOOTH",
"375 1462 LINE",
"66 0 LINE",
"256 0 LINE SMOOTH",
"384 0 OFFCURVE",
"504 43 OFFCURVE",
"601 129 CURVE SMOOTH",
"796 302 OFFCURVE",
"913 664 OFFCURVE",
"913 1005 CURVE SMOOTH"
);
},
{
closed = 1;
nodes = (
"455 1366 LINE",
"578 1366 LINE SMOOTH",
"744 1366 OFFCURVE",
"809 1254 OFFCURVE",
"809 1023 CURVE SMOOTH",
"809 883 OFFCURVE",
"785 708 OFFCURVE",
"738 555 CURVE SMOOTH",
"647 259 OFFCURVE",
"480 94 OFFCURVE",
"276 94 CURVE SMOOTH",
"184 94 LINE"
);
}
);
width = 895;
},
{
anchors = (
{
name = bottom;
position = "{603, 0}";
},
{
name = center;
position = "{618, 731}";
},
{
name = top;
position = "{834, 1462}";
}
);
background = {
paths = (
{
closed = 1;
nodes = (
"1359 1177 OFFCURVE",
"1185 1462 OFFCURVE",
"829 1462 CURVE SMOOTH",
"394 1462 LINE",
"115 0 LINE",
"527 0 LINE SMOOTH",
"922 0 OFFCURVE",
"1183 255 OFFCURVE",
"1271 719 CURVE SMOOTH"
);
},
{
closed = 1;
nodes = (
"866 455 OFFCURVE",
"743 301 OFFCURVE",
"567 301 CURVE SMOOTH",
"519 301 LINE",
"684 1165 LINE",
"782 1165 LINE SMOOTH",
"938 1165 OFFCURVE",
"977 1040 OFFCURVE",
"924 762 CURVE SMOOTH"
);
}
);
};
layerId = "055178C8-6F6F-4B48-86C1-608D4439D248";
paths = (
{
closed = 1;
nodes = (
"1313 416 OFFCURVE",
"1313 899 CURVE SMOOTH",
"1313 1253 OFFCURVE",
"1153 1462 OFFCURVE",
"858 1462 CURVE SMOOTH",
"424 1462 LINE",
"115 0 LINE",
"528 0 LINE SMOOTH",
"1014 0 OFFCURVE"
);
},
{
closed = 1;
nodes = (
"825 301 OFFCURVE",
"572 301 CURVE SMOOTH",
"526 301 LINE",
"709 1165 LINE",
"808 1165 LINE SMOOTH",
"926 1165 OFFCURVE",
"966 1070 OFFCURVE",
"966 925 CURVE SMOOTH",
"966 654 OFFCURVE"
);
}
);
width = 1206;
}
);
note = D;
unicode = 0044;
},
{
glyphname = Eth;
lastChange = "2018-04-02 16:36:10 +0000";
layers = (
{
layerId = "9047BFCD-DDCC-4357-AC30-29E5270711EF";
paths = (
{
closed = 1;
nodes = (
"913 1320 OFFCURVE",
"813 1462 OFFCURVE",
"592 1462 CURVE SMOOTH",
"375 1462 LINE",
"233 807 LINE",
"145 807 LINE",
"127 715 LINE",
"215 715 LINE",
"66 0 LINE",
"256 0 LINE SMOOTH",
"384 0 OFFCURVE",
"504 43 OFFCURVE",
"601 129 CURVE SMOOTH",
"796 302 OFFCURVE",
"913 664 OFFCURVE",
"913 1005 CURVE SMOOTH"
);
},
{
closed = 1;
nodes = (
"313 715 LINE",
"506 715 LINE",
"524 807 LINE",
"334 807 LINE",
"455 1366 LINE",
"578 1366 LINE SMOOTH",
"744 1366 OFFCURVE",
"809 1254 OFFCURVE",
"809 1023 CURVE SMOOTH",
"809 883 OFFCURVE",
"785 708 OFFCURVE",
"738 555 CURVE SMOOTH",
"647 259 OFFCURVE",
"480 94 OFFCURVE",
"276 94 CURVE SMOOTH",
"184 94 LINE"
);
}
);
width = 895;
},
{
anchors = (
{
name = bottom;
position = "{603, 0}";
},
{
name = center;
position = "{618, 731}";
},
{
name = top;
position = "{834, 1462}";
}
);
background = {
paths = (
{
closed = 1;
nodes = (
"222 563 LINE",
"115 0 LINE",
"527 0 LINE SMOOTH",
"922 0 OFFCURVE",
"1183 255 OFFCURVE",
"1271 719 CURVE SMOOTH",
"1359 1177 OFFCURVE",
"1185 1462 OFFCURVE",
"829 1462 CURVE SMOOTH",
"394 1462 LINE",
"280 864 LINE",
"138 864 LINE",
"80 563 LINE"
);
},
{
closed = 1;
nodes = (
"866 455 OFFCURVE",
"743 301 OFFCURVE",
"567 301 CURVE SMOOTH",
"519 301 LINE",
"569 563 LINE",
"734 563 LINE",
"792 864 LINE",
"627 864 LINE",
"684 1165 LINE",
"782 1165 LINE SMOOTH",
"938 1165 OFFCURVE",
"977 1040 OFFCURVE",
"924 762 CURVE SMOOTH"
);
}
);
};
layerId = "055178C8-6F6F-4B48-86C1-608D4439D248";
paths = (
{
closed = 1;
nodes = (
"234 563 LINE",
"115 0 LINE",
"528 0 LINE SMOOTH",
"1014 0 OFFCURVE",
"1313 416 OFFCURVE",
"1313 899 CURVE SMOOTH",
"1313 1253 OFFCURVE",
"1153 1462 OFFCURVE",
"858 1462 CURVE SMOOTH",
"424 1462 LINE",
"298 864 LINE",
"156 864 LINE",
"92 563 LINE"
);
},
{
closed = 1;
nodes = (
"581 563 LINE",
"746 563 LINE",
"810 864 LINE",
"645 864 LINE",
"709 1165 LINE",
"808 1165 LINE SMOOTH",
"926 1165 OFFCURVE",
"966 1070 OFFCURVE",
"966 925 CURVE SMOOTH",
"966 654 OFFCURVE",
"825 301 OFFCURVE",
"572 301 CURVE SMOOTH",
"526 301 LINE"
);
}
);
width = 1206;
}
);
note = Eth;
unicode = 00D0;
},
{
glyphname = Dcroat;
lastChange = "2018-04-02 16:36:14 +0000";
layers = (
{
components = (
{
name = Eth;
}
);
layerId = "9047BFCD-DDCC-4357-AC30-29E5270711EF";
width = 895;
},
{
layerId = "055178C8-6F6F-4B48-86C1-608D4439D248";
paths = (
{
closed = 1;
nodes = (
"234 563 LINE",
"115 0 LINE",
"528 0 LINE SMOOTH",
"1014 0 OFFCURVE",
"1313 416 OFFCURVE",
"1313 899 CURVE SMOOTH",
"1313 1253 OFFCURVE",
"1153 1462 OFFCURVE",
"858 1462 CURVE SMOOTH",
"424 1462 LINE",
"298 864 LINE",
"156 864 LINE",
"92 563 LINE"
);
},
{
closed = 1;
nodes = (
"581 563 LINE",
"746 563 LINE",
"810 864 LINE",
"645 864 LINE",
"709 1165 LINE",
"808 1165 LINE SMOOTH",
"926 1165 OFFCURVE",
"966 1070 OFFCURVE",
"966 925 CURVE SMOOTH",
"966 654 OFFCURVE",
"825 301 OFFCURVE",
"572 301 CURVE SMOOTH",
"526 301 LINE"
);
}
);
width = 1206;
}
);
note = Dcroat;
unicode = 0110;
},
{
glyphname = E;
lastChange = "2018-04-02 19:31:18 +0000";
layers = (
{
anchors = (
{
name = bottom;
position = "{240, 0}";
},
{
name = ogonek;
position = "{523, 10}";
},
{
name = top;
position = "{590, 1462}";
},
{
name = topleft;
position = "{215, 1462}";
}
);
layerId = "9047BFCD-DDCC-4357-AC30-29E5270711EF";
paths = (
{
closed = 1;
nodes = (
"184 94 LINE",
"317 719 LINE",
"672 719 LINE",
"692 813 LINE",
"338 813 LINE",
"455 1366 LINE",
"831 1366 LINE",
"852 1462 LINE",
"375 1462 LINE",
"66 0 LINE",
"543 0 LINE",
"561 94 LINE"
);
}
);
width = 709;
},
{
anchors = (
{
name = bottom;
position = "{316, 0}";
},
{
name = ogonek;
position = "{678, 10}";
},
{
name = top;
position = "{687, 1462}";
},
{
name = topleft;
position = "{-87, 1462}";
}
);
layerId = "055178C8-6F6F-4B48-86C1-608D4439D248";
paths = (
{
closed = 1;
nodes = (
"388 300 LINE",
"453 610 LINE",
"792 610 LINE",
"855 907 LINE",
"516 907 LINE",
"571 1166 LINE",
"939 1166 LINE",
"1002 1462 LINE",
"286 1462 LINE",
"-23 0 LINE",
"692 0 LINE",
"756 300 LINE"
);
}
);
width = 907;
}
);
note = E;
unicode = 0045;
},
{
glyphname = F;
lastChange = "2018-04-02 16:06:03 +0000";
layers = (
{
anchors = (
{
name = bottom;
position = "{213, 0}";
},
{
name = top;
position = "{523, 1462}";
}
);
layerId = "9047BFCD-DDCC-4357-AC30-29E5270711EF";
paths = (
{
closed = 1;
nodes = (
"662 657 LINE",
"682 752 LINE",
"326 752 LINE",
"455 1366 LINE",
"834 1366 LINE",
"854 1462 LINE",
"375 1462 LINE",
"66 0 LINE",
"166 0 LINE",
"305 657 LINE"
);
}
);
width = 655;
},
{
anchors = (
{
name = bottom;
position = "{443, 0}";
},
{
name = top;
position = "{474, 1462}";
}
);
layerId = "055178C8-6F6F-4B48-86C1-608D4439D248";
paths = (
{
closed = 1;
nodes = (
"914 557 LINE",
"977 853 LINE",
"641 853 LINE",
"707 1166 LINE",
"1070 1166 LINE",
"1133 1462 LINE",
"424 1462 LINE",
"115 0 LINE",
"460 0 LINE",
"578 557 LINE"
);
}
);
width = 885;
}
);
note = F;
unicode = 0046;
},
{
glyphname = G;
lastChange = "2018-04-02 16:37:23 +0000";
layers = (
{
anchors = (
{
name = bottom;
position = "{429, 0}";
},
{
name = top;
position = "{770, 1462}";
}
);
layerId = "9047BFCD-DDCC-4357-AC30-29E5270711EF";
paths = (
{
closed = 1;
nodes = (
"819 647 LINE",
"702 100 LINE",
"641 81 OFFCURVE",
"574 72 OFFCURVE",
"516 72 CURVE SMOOTH",
"318 72 OFFCURVE",
"233 176 OFFCURVE",
"233 440 CURVE SMOOTH",
"233 665 OFFCURVE",
"295 928 OFFCURVE",
"389 1109 CURVE SMOOTH",
"486 1296 OFFCURVE",
"611 1389 OFFCURVE",
"766 1389 CURVE SMOOTH",
"836 1389 OFFCURVE",
"911 1370 OFFCURVE",
"1001 1303 CURVE",
"1065 1391 LINE",
"976 1456 OFFCURVE",
"869 1485 OFFCURVE",
"770 1485 CURVE SMOOTH",
"589 1485 OFFCURVE",
"441 1387 OFFCURVE",
"325 1184 CURVE SMOOTH",
"210 983 OFFCURVE",
"135 688 OFFCURVE",
"135 441 CURVE SMOOTH",
"135 127 OFFCURVE",
"257 -20 OFFCURVE",
"508 -20 CURVE SMOOTH",
"598 -20 OFFCURVE",
"701 -1 OFFCURVE",
"788 33 CURVE",
"940 741 LINE",
"645 741 LINE",
"625 647 LINE"
);
}
);
width = 967;
},
{
anchors = (
{
name = bottom;
position = "{565, -1}";
},
{
name = top;
position = "{989, 1462}";
}
);
background = {
paths = (
{
closed = 1;
nodes = (
"808 541 LINE",
"749 291 LINE",
"712 286 OFFCURVE",
"680 281 OFFCURVE",
"649 281 CURVE SMOOTH",
"531 281 OFFCURVE",
"509 439 OFFCURVE",
"551 662 CURVE SMOOTH",
"616 1003 OFFCURVE",
"784 1180 OFFCURVE",
"975 1180 CURVE SMOOTH",
"1029 1180 OFFCURVE",
"1097 1164 OFFCURVE",
"1168 1120 CURVE",
"1304 1390 LINE",
"1203 1448 OFFCURVE",
"1099 1483 OFFCURVE",
"959 1483 CURVE SMOOTH",
"578 1483 OFFCURVE",
"306 1223 OFFCURVE",
"212 729 CURVE SMOOTH",
"122 255 OFFCURVE",
"273 -20 OFFCURVE",
"650 -20 CURVE SMOOTH",
"758 -20 OFFCURVE",
"918 3 OFFCURVE",
"1065 64 CURVE",
"1203 843 LINE",
"702 843 LINE",
"644 541 LINE"
);
}
);
};
layerId = "055178C8-6F6F-4B48-86C1-608D4439D248";
paths = (
{
closed = 1;
nodes = (
"825 541 LINE",
"778 304 LINE",
"737 291 OFFCURVE",
"691 281 OFFCURVE",
"660 281 CURVE SMOOTH",
"572 281 OFFCURVE",
"541 351 OFFCURVE",
"541 476 CURVE SMOOTH",
"541 534 OFFCURVE",
"552 599 OFFCURVE",
"565 659 CURVE SMOOTH",
"639 1000 OFFCURVE",
"806 1180 OFFCURVE",
"1000 1180 CURVE SMOOTH",
"1056 1180 OFFCURVE",
"1122 1165 OFFCURVE",
"1193 1121 CURVE",
"1332 1389 LINE",
"1232 1447 OFFCURVE",
"1129 1483 OFFCURVE",
"988 1483 CURVE SMOOTH",
"614 1483 OFFCURVE",
"330 1228 OFFCURVE",
"227 732 CURVE SMOOTH",
"209 643 OFFCURVE",
"197 564 OFFCURVE",
"197 486 CURVE SMOOTH",
"197 157 OFFCURVE",
"350 -20 OFFCURVE",
"651 -20 CURVE SMOOTH",
"779 -20 OFFCURVE",
"920 12 OFFCURVE",
"1069 73 CURVE",
"1221 843 LINE",
"719 843 LINE",
"655 541 LINE"
);
}
);
width = 1128;
}
);
note = G;
unicode = 0047;
},
{
glyphname = H;
lastChange = "2018-04-02 19:31:18 +0000";
layers = (
{
anchors = (
{
name = bottom;
position = "{347, 0}";
},
{
name = center;
position = "{502, 731}";
},
{
name = top;
position = "{677, 1462}";
},
{
name = topleft;
position = "{215, 1462}";
}
);
layerId = "9047BFCD-DDCC-4357-AC30-29E5270711EF";
paths = (
{
closed = 1;
nodes = (
"913 1462 LINE",
"776 815 LINE",
"336 815 LINE",
"473 1462 LINE",
"375 1462 LINE",
"66 0 LINE",
"164 0 LINE",
"315 717 LINE",
"756 717 LINE",
"604 0 LINE",
"702 0 LINE",
"1012 1462 LINE"
);
}
);
width = 924;
},
{
anchors = (
{
name = bottom;
position = "{492, 0}";
},
{
name = center;
position = "{507, 731}";
},
{
name = top;
position = "{802, 1462}";
},
{
name = topleft;
position = "{-68, 1462}";
}
);
layerId = "055178C8-6F6F-4B48-86C1-608D4439D248";
paths = (
{
closed = 1;
nodes = (
"947 1462 LINE",
"830 910 LINE",
"537 910 LINE",
"654 1462 LINE",
"306 1462 LINE",
"-4 0 LINE",
"344 0 LINE",
"473 608 LINE",
"766 608 LINE",
"638 0 LINE",
"985 0 LINE",
"1295 1462 LINE"
);
}
);
width = 1219;
}
);
note = H;
unicode = 0048;
},
{
glyphname = Hbar;
lastChange = "2018-04-02 16:06:03 +0000";
layers = (
{
layerId = "9047BFCD-DDCC-4357-AC30-29E5270711EF";
paths = (
{
closed = 1;
nodes = (
"1075 1087 LINE",
"1096 1184 LINE",
"952 1184 LINE",
"1012 1462 LINE",
"911 1462 LINE",
"852 1184 LINE",
"414 1184 LINE",
"473 1462 LINE",
"375 1462 LINE",
"315 1184 LINE",
"172 1184 LINE",
"152 1087 LINE",
"295 1087 LINE",
"66 0 LINE",
"164 0 LINE",
"315 717 LINE",
"754 717 LINE",
"602 0 LINE",
"702 0 LINE",
"932 1087 LINE"
);
},
{
closed = 1;
nodes = (
"393 1087 LINE",
"831 1087 LINE",
"774 815 LINE",
"336 815 LINE"
);
}
);
width = 924;
},
{
layerId = "055178C8-6F6F-4B48-86C1-608D4439D248";
paths = (
{
closed = 1;
nodes = (
"1065 1462 LINE",
"1029 1289 LINE",
"735 1289 LINE",
"772 1462 LINE",
"424 1462 LINE",
"388 1289 LINE",
"256 1289 LINE",
"207 1058 LINE",
"339 1058 LINE",
"115 0 LINE",
"462 0 LINE",
"591 608 LINE",
"884 608 LINE",
"756 0 LINE",
"1103 0 LINE",
"1327 1058 LINE",
"1461 1058 LINE",
"1510 1289 LINE",
"1376 1289 LINE",
"1413 1462 LINE"
);
},
{
closed = 1;
nodes = (
"686 1058 LINE",
"980 1058 LINE",
"948 909 LINE",
"655 909 LINE"
);
}
);
width = 1219;
}
);
note = Hbar;
unicode = 0126;
},
{
glyphname = I;
lastChange = "2018-04-02 19:31:18 +0000";
layers = (
{
anchors = (
{
name = bottom;
position = "{94, 0}";
},
{
name = ogonek;
position = "{163, 10}";
},
{
name = top;
position = "{404, 1462}";
},
{
name = topleft;
position = "{215, 1462}";
}
);
layerId = "9047BFCD-DDCC-4357-AC30-29E5270711EF";
paths = (
{
closed = 1;
nodes = (
"473 1462 LINE",
"375 1462 LINE",
"66 0 LINE",
"164 0 LINE"
);
}
);
width = 418;
},
{
anchors = (
{
name = bottom;
position = "{222, 0}";
},
{
name = ogonek;
position = "{381, 10}";
},
{
name = top;
position = "{563, 1462}";
},
{
name = topleft;
position = "{-67, 1462}";
}
);
layerId = "055178C8-6F6F-4B48-86C1-608D4439D248";
paths = (
{
closed = 1;
nodes = (
"702 1462 LINE",
"378 1462 LINE",
"69 0 LINE",
"392 0 LINE"
);
}
);
width = 698;
}
);
note = I;
unicode = 0049;
},
{
glyphname = J;
lastChange = "2018-04-02 16:37:53 +0000";
layers = (
{
anchors = (
{
name = bottom;
position = "{65, 0}";
},
{
name = top;
position = "{415, 1462}";
}
);
layerId = "9047BFCD-DDCC-4357-AC30-29E5270711EF";
paths = (
{
closed = 1;
nodes = (
"27 -369 OFFCURVE",
"108 -275 OFFCURVE",
"154 -57 CURVE SMOOTH",
"475 1462 LINE",
"377 1462 LINE",
"59 -35 LINE SMOOTH",
"24 -201 OFFCURVE",
"-15 -272 OFFCURVE",
"-110 -272 CURVE SMOOTH",
"-140 -272 OFFCURVE",
"-171 -265 OFFCURVE",
"-199 -252 CURVE",
"-227 -344 LINE",
"-198 -361 OFFCURVE",
"-159 -369 OFFCURVE",
"-117 -369 CURVE SMOOTH"
);
}
);
width = 360;
},
{
anchors = (
{
name = bottom;
position = "{186, 0}";
},
{
name = top;
position = "{595, 1462}";
}
);
layerId = "055178C8-6F6F-4B48-86C1-608D4439D248";
paths = (
{
closed = 1;
nodes = (
"3 -445 OFFCURVE",
"93 -443 OFFCURVE",
"172 -405 CURVE SMOOTH",
"320 -334 OFFCURVE",
"434 -159 OFFCURVE",
"480 59 CURVE SMOOTH",
"777 1462 LINE",
"429 1462 LINE",
"134 70 LINE SMOOTH",
"110 -44 OFFCURVE",
"3 -141 OFFCURVE",
"-105 -141 CURVE SMOOTH",
"-136 -141 OFFCURVE",
"-175 -138 OFFCURVE",
"-221 -125 CURVE",
"-258 -415 LINE",
"-216 -432 OFFCURVE",
"-162 -445 OFFCURVE",
"-52 -445 CURVE SMOOTH"
);
}
);
width = 586;
}
);
note = J;
unicode = 004A;
},
{
glyphname = K;
lastChange = "2018-04-02 16:38:11 +0000";
layers = (
{
anchors = (
{
name = bottom;
position = "{327, 0}";
},
{
name = top;
position = "{567, 1462}";
}
);
layerId = "9047BFCD-DDCC-4357-AC30-29E5270711EF";
paths = (
{
closed = 1;
nodes = (
"948 1462 LINE",
"848 1462 LINE",
"432 868 LINE",
"309 688 LINE",
"473 1462 LINE",
"375 1462 LINE",
"66 0 LINE",
"164 0 LINE",
"287 580 LINE",
"416 709 LINE",
"565 0 LINE",
"666 0 LINE",
"496 795 LINE"
);
}
);
width = 743;
},
{
anchors = (
{
name = bottom;
position = "{562, 0}";
},
{
name = top;
position = "{949, 1462}";
}
);
background = {
paths = (
{
closed = 1;
nodes = (
"1422 1462 LINE",
"1045 1474 LINE",
"946 1320 OFFCURVE",
"834 1150 OFFCURVE",
"712 975 CURVE",
"700 924 OFFCURVE",
"659 859 OFFCURVE",
"605 771 CURVE",
"741 1462 LINE",
"394 1462 LINE",
"115 0 LINE",
"462 0 LINE",
"559 488 LINE",
"688 581 LINE",
"768 0 LINE",
"1129 0 LINE",
"973 834 LINE"
);
}
);
};
layerId = "055178C8-6F6F-4B48-86C1-608D4439D248";
paths = (
{
closed = 1;
nodes = (
"1453 1462 LINE",
"1066 1462 LINE",
"964 1308 OFFCURVE",
"854 1151 OFFCURVE",
"731 977 CURVE SMOOTH",
"701 934 OFFCURVE",
"664 860 OFFCURVE",
"620 772 CURVE",
"772 1462 LINE",
"424 1462 LINE",
"115 0 LINE",
"462 0 LINE",
"570 488 LINE",
"701 581 LINE",
"768 0 LINE",
"1129 0 LINE",
"990 834 LINE"
);
}
);
width = 1133;
}
);
note = K;
unicode = 004B;
},
{
glyphname = L;
lastChange = "2018-04-02 16:38:24 +0000";
layers = (
{
anchors = (
{
name = bottom;
position = "{275, 0}";
},
{
name = center;
position = "{360, 731}";
},
{
name = top;
position = "{515, 1462}";
},
{
name = topright;
position = "{814, 1462}";
}
);
layerId = "9047BFCD-DDCC-4357-AC30-29E5270711EF";
paths = (
{
closed = 1;
nodes = (
"543 94 LINE",
"184 94 LINE",
"473 1462 LINE",
"375 1462 LINE",
"66 0 LINE",
"524 0 LINE"
);
}
);
width = 639;
},
{
anchors = (
{
name = bottom;
position = "{429, 0}";
},
{
name = center;
position = "{483, 731}";
},
{
name = top;
position = "{658, 1462}";
},
{
name = topright;
position = "{1053, 1462}";
}
);
layerId = "055178C8-6F6F-4B48-86C1-608D4439D248";
paths = (
{
closed = 1;
nodes = (
"889 300 LINE",
"526 300 LINE",
"772 1462 LINE",
"424 1462 LINE",
"115 0 LINE",
"825 0 LINE"
);
}
);
width = 871;
}
);
note = L;
unicode = 004C;
},
{
glyphname = Ldot;
lastChange = "2018-04-02 16:38:35 +0000";
layers = (
{
layerId = "9047BFCD-DDCC-4357-AC30-29E5270711EF";
paths = (
{
closed = 1;
nodes = (
"543 94 LINE",
"184 94 LINE",
"473 1462 LINE",
"375 1462 LINE",
"66 0 LINE",
"524 0 LINE"
);
},
{
closed = 1;
nodes = (
"483 675 OFFCURVE",
"499 654 OFFCURVE",
"532 654 CURVE SMOOTH",
"580 654 OFFCURVE",
"612 709 OFFCURVE",
"612 785 CURVE SMOOTH",
"612 824 OFFCURVE",
"596 843 OFFCURVE",
"565 843 CURVE SMOOTH",
"517 843 OFFCURVE",
"483 786 OFFCURVE",
"483 718 CURVE SMOOTH"
);
}
);
width = 639;
},
{
layerId = "055178C8-6F6F-4B48-86C1-608D4439D248";
paths = (
{
closed = 1;
nodes = (
"889 300 LINE",
"526 300 LINE",
"772 1462 LINE",
"424 1462 LINE",
"115 0 LINE",
"825 0 LINE"
);
},
{
closed = 1;
nodes = (
"686 872 OFFCURVE",
"686 753 CURVE SMOOTH",
"686 650 OFFCURVE",
"743 600 OFFCURVE",
"862 600 CURVE SMOOTH",
"997 600 OFFCURVE",
"1070 664 OFFCURVE",
"1070 777 CURVE SMOOTH",
"1070 877 OFFCURVE",
"1013 928 OFFCURVE",
"890 928 CURVE SMOOTH",
"761 928 OFFCURVE"
);
}
);
width = 871;
}
);
note = Ldot;
unicode = 013F;
},
{
glyphname = Lslash;
lastChange = "2018-04-02 16:06:03 +0000";
layers = (
{
layerId = "9047BFCD-DDCC-4357-AC30-29E5270711EF";
paths = (
{
closed = 1;
nodes = (
"543 94 LINE",
"184 94 LINE",
"293 614 LINE",
"580 780 LINE",
"543 856 LINE",
"317 725 LINE",
"473 1462 LINE",
"375 1462 LINE",
"205 659 LINE",
"16 551 LINE",
"51 475 LINE",
"182 551 LINE",
"66 0 LINE",
"524 0 LINE"
);
}
);
width = 639;
},
{
layerId = "055178C8-6F6F-4B48-86C1-608D4439D248";
paths = (
{
closed = 1;
nodes = (
"946 300 LINE",
"585 300 LINE",
"679 729 LINE",
"931 903 LINE",
"816 1117 LINE",
"740 1055 LINE",
"831 1462 LINE",
"484 1462 LINE",
"340 797 LINE",
"110 645 LINE",
"219 426 LINE",
"279 471 LINE",
"175 0 LINE",
"882 0 LINE"
);
}
);
width = 930;
}
);
note = Lslash;
unicode = 0141;
},
{
glyphname = M;
lastChange = "2018-04-02 19:31:18 +0000";
layers = (
{
anchors = (
{
name = bottom;
position = "{513, 0}";
},
{
name = top;
position = "{863, 1462}";
}
);
layerId = "9047BFCD-DDCC-4357-AC30-29E5270711EF";
paths = (
{
closed = 1;
nodes = (
"1217 1329 LINE",
"1221 1329 LINE",
"1204 1260 OFFCURVE",
"1187 1191 OFFCURVE",
"1172 1122 CURVE SMOOTH",
"934 0 LINE",
"1034 0 LINE",
"1343 1462 LINE",
"1174 1462 LINE",
"680 352 LINE SMOOTH",
"618 214 OFFCURVE",
"589 147 OFFCURVE",
"573 102 CURVE",
"571 102 LINE",
"572 128 OFFCURVE",
"573 154 OFFCURVE",
"573 184 CURVE SMOOTH",
"573 212 OFFCURVE",
"571 283 OFFCURVE",
"569 354 CURVE SMOOTH",
"535 1462 LINE",
"375 1462 LINE",
"66 0 LINE",
"162 0 LINE",
"392 1091 LINE SMOOTH",
"409 1171 OFFCURVE",
"423 1251 OFFCURVE",
"436 1331 CURVE",
"442 1331 LINE",
"494 0 LINE",
"621 0 LINE"
);
}
);
width = 1255;
},
{
anchors = (
{
name = bottom;
position = "{721, 0}";
},
{
name = top;
position = "{1069, 1462}";
}
);
background = {
paths = (
{
closed = 1;
nodes = (
"436 0 LINE",
"614 933 LINE SMOOTH",
"632 1030 OFFCURVE",
"639 1119 OFFCURVE",
"639 1196 CURVE",
"661 1208 LINE",
"658 0 LINE",
"1040 0 LINE",
"1501 1208 LINE",
"1512 1221 LINE",
"1482 1144 OFFCURVE",
"1459 1056 OFFCURVE",
"1441 959 CURVE SMOOTH",
"1258 0 LINE",
"1579 0 LINE",
"1858 1462 LINE",
"1320 1462 LINE",
"1030 676 LINE SMOOTH",
"1003 596 OFFCURVE",
"968 512 OFFCURVE",
"929 421 CURVE",
"913 395 LINE",
"912 486 OFFCURVE",
"910 570 OFFCURVE",
"911 650 CURVE SMOOTH",
"928 1462 LINE",
"394 1462 LINE",
"115 0 LINE"
);
}
);
};
layerId = "055178C8-6F6F-4B48-86C1-608D4439D248";
paths = (
{
closed = 1;
nodes = (
"317 0 LINE",
"515 931 LINE SMOOTH",
"536 1028 OFFCURVE",
"553 1130 OFFCURVE",
"559 1207 CURVE",
"568 1208 LINE",
"539 0 LINE",
"921 0 LINE",
"1413 1221 LINE",
"1420 1222 LINE",
"1389 1145 OFFCURVE",
"1362 1058 OFFCURVE",
"1342 961 CURVE SMOOTH",
"1139 0 LINE",
"1460 0 LINE",
"1770 1462 LINE",
"1231 1462 LINE",
"918 677 LINE SMOOTH",
"887 598 OFFCURVE",
"844 487 OFFCURVE",
"810 396 CURVE",
"802 394 LINE",
"807 485 OFFCURVE",
"811 569 OFFCURVE",
"814 649 CURVE SMOOTH",
"840 1462 LINE",
"305 1462 LINE",
"-4 0 LINE"
);
}
);
width = 1694;
}
);
note = M;
unicode = 004D;
},
{
glyphname = N;
lastChange = "2018-04-02 19:31:18 +0000";
layers = (
{
anchors = (
{
name = bottom;
position = "{376, 0}";
},
{
name = top;
position = "{756, 1462}";
}
);
layerId = "9047BFCD-DDCC-4357-AC30-29E5270711EF";
paths = (
{
closed = 1;
nodes = (
"971 1462 LINE",
"754 440 LINE SMOOTH",
"740 374 OFFCURVE",
"729 311 OFFCURVE",
"705 166 CURVE",
"698 166 LINE",
"506 1462 LINE",
"375 1462 LINE",
"66 0 LINE",
"164 0 LINE",
"385 1049 LINE SMOOTH",
"406 1147 OFFCURVE",
"421 1234 OFFCURVE",
"430 1311 CURVE",
"438 1311 LINE",
"639 0 LINE",
"760 0 LINE",
"1069 1462 LINE"
);
}
);
width = 981;
},
{
anchors = (
{
name = bottom;
position = "{516, 0}";
},
{
name = top;
position = "{944, 1462}";
}
);
layerId = "055178C8-6F6F-4B48-86C1-608D4439D248";
paths = (
{
closed = 1;
nodes = (
"1122 1462 LINE",
"976 775 LINE SMOOTH",
"953 667 OFFCURVE",
"939 573 OFFCURVE",
"935 520 CURVE",
"927 520 LINE",
"724 1462 LINE",
"305 1462 LINE",
"-4 0 LINE",
"315 0 LINE",
"459 676 LINE SMOOTH",
"480 773 OFFCURVE",
"497 874 OFFCURVE",
"502 951 CURVE",
"510 951 LINE",
"714 0 LINE",
"1130 0 LINE",
"1440 1462 LINE"
);
}
);
width = 1364;
}
);
note = N;
unicode = 004E;
},
{
glyphname = Eng;
lastChange = "2018-04-02 19:31:18 +0000";
layers = (
{
layerId = "9047BFCD-DDCC-4357-AC30-29E5270711EF";
paths = (
{
closed = 1;
nodes = (
"588 -365 OFFCURVE",
"646 -329 OFFCURVE",
"690 -236 CURVE SMOOTH",
"712 -190 OFFCURVE",
"737 -111 OFFCURVE",
"760 0 CURVE SMOOTH",
"1069 1462 LINE",
"971 1462 LINE",
"832 815 OFFCURVE",
"755 450 OFFCURVE",
"739 366 CURVE SMOOTH",
"723 282 OFFCURVE",
"712 217 OFFCURVE",
"705 172 CURVE",
"698 172 LINE",
"506 1462 LINE",
"375 1462 LINE",
"66 0 LINE",
"164 0 LINE",
"385 1049 LINE SMOOTH",
"406 1147 OFFCURVE",
"421 1234 OFFCURVE",
"430 1311 CURVE",
"438 1311 LINE",
"645 -25 LINE",
"624 -189 OFFCURVE",
"574 -262 OFFCURVE",
"487 -262 CURVE SMOOTH",
"445 -262 OFFCURVE",
"411 -255 OFFCURVE",
"385 -240 CURVE",
"365 -336 LINE",
"380 -351 OFFCURVE",
"441 -365 OFFCURVE",
"477 -365 CURVE SMOOTH"
);
}
);
width = 981;
},
{
layerId = "055178C8-6F6F-4B48-86C1-608D4439D248";
paths = (
{
closed = 1;
nodes = (
"874 -445 OFFCURVE",
"1076 -259 OFFCURVE",
"1143 59 CURVE SMOOTH",
"1440 1462 LINE",
"1122 1462 LINE",
"1056 1150 LINE SMOOTH",
"1031 1030 OFFCURVE",
"997 863 OFFCURVE",
"965 677 CURVE",
"957 677 LINE",
"707 1462 LINE",
"305 1462 LINE",
"-4 0 LINE",
"315 0 LINE",
"414 463 LINE SMOOTH",
"431 544 OFFCURVE",
"467 720 OFFCURVE",
"509 962 CURVE",
"517 962 LINE",
"812 0 LINE",
"813 22 LINE",
"778 -63 OFFCURVE",
"687 -141 OFFCURVE",
"565 -141 CURVE SMOOTH",
"537 -141 OFFCURVE",
"494 -137 OFFCURVE",
"443 -124 CURVE",
"406 -415 LINE",
"447 -432 OFFCURVE",
"510 -445 OFFCURVE",
"605 -445 CURVE SMOOTH"
);
}
);
width = 1364;
}
);
note = Eng;
unicode = 014A;
},
{
glyphname = O;
lastChange = "2018-04-10 19:13:55 +0000";
layers = (
{
anchors = (
{
name = bottom;
position = "{404, 0}";
},
{
name = center;
position = "{519, 731}";
},
{
name = ogonek;
position = "{467, 10}";
},
{
name = tonos;
position = "{501, 1578}";
},
{
name = top;
position = "{711, 1462}";
},
{
name = topleft;
position = "{215, 1462}";
},
{
name = topright;
position = "{1133, 1462}";
}
);
layerId = "9047BFCD-DDCC-4357-AC30-29E5270711EF";
paths = (
{
closed = 1;
nodes = (
"513 -20 OFFCURVE",
"605 28 OFFCURVE",
"690 125 CURVE SMOOTH",
"859 318 OFFCURVE",
"977 721 OFFCURVE",
"977 1100 CURVE SMOOTH",
"977 1355 OFFCURVE",
"885 1483 OFFCURVE",
"702 1483 CURVE SMOOTH",
"545 1483 OFFCURVE",
"410 1381 OFFCURVE",
"306 1170 CURVE SMOOTH",
"201 958 OFFCURVE",
"135 640 OFFCURVE",
"135 379 CURVE SMOOTH",
"135 113 OFFCURVE",
"227 -20 OFFCURVE",
"412 -20 CURVE SMOOTH"
);
},
{
closed = 1;
nodes = (
"233 597 OFFCURVE",
"291 899 OFFCURVE",
"376 1095 CURVE SMOOTH",
"461 1291 OFFCURVE",
"571 1389 OFFCURVE",
"692 1389 CURVE SMOOTH",
"817 1389 OFFCURVE",
"879 1293 OFFCURVE",
"879 1100 CURVE SMOOTH",
"879 879 OFFCURVE",
"822 584 OFFCURVE",
"738 385 CURVE SMOOTH",
"654 185 OFFCURVE",
"543 74 OFFCURVE",
"420 74 CURVE SMOOTH",
"295 74 OFFCURVE",
"233 175 OFFCURVE",
"233 377 CURVE SMOOTH"
);
}
);
width = 958;
},
{
anchors = (
{
name = bottom;
position = "{524, 0}";
},
{
name = center;
position = "{539, 731}";
},
{
name = ogonek;
position = "{707, 10}";
},
{
name = tonos;
position = "{501, 1578}";
},
{
name = top;
position = "{865, 1462}";
},
{
name = topleft;
position = "{-68, 1462}";
},
{
name = topright;
position = "{1177, 1462}";
}
);
layerId = "055178C8-6F6F-4B48-86C1-608D4439D248";
paths = (
{
closed = 1;
nodes = (
"1265 806 OFFCURVE",
"1275 899 OFFCURVE",
"1275 983 CURVE SMOOTH",
"1275 1308 OFFCURVE",
"1116 1486 OFFCURVE",
"815 1486 CURVE SMOOTH",
"463 1486 OFFCURVE",
"213 1225 OFFCURVE",
"115 764 CURVE SMOOTH",
"93 660 OFFCURVE",
"82 566 OFFCURVE",
"82 482 CURVE SMOOTH",
"82 156 OFFCURVE",
"244 -20 OFFCURVE",
"545 -20 CURVE SMOOTH",
"897 -20 OFFCURVE",
"1143 234 OFFCURVE",
"1243 704 CURVE SMOOTH"
);
},
{
closed = 1;
nodes = (
"521 1014 OFFCURVE",
"650 1183 OFFCURVE",
"802 1183 CURVE SMOOTH",
"895 1183 OFFCURVE",
"931 1120 OFFCURVE",
"931 999 CURVE SMOOTH",
"931 932 OFFCURVE",
"920 858 OFFCURVE",
"900 762 CURVE SMOOTH",
"835 449 OFFCURVE",
"706 284 OFFCURVE",
"559 284 CURVE SMOOTH",
"467 284 OFFCURVE",
"427 350 OFFCURVE",
"427 479 CURVE SMOOTH",
"427 544 OFFCURVE",
"437 615 OFFCURVE",
"456 704 CURVE SMOOTH"
);
}
);
width = 1285;
}
);
note = O;
unicode = 004F;
},
{
glyphname = Ohorn;
lastChange = "2018-04-02 18:40:23 +0000";
layers = (
{
anchors = (
{
name = bottom;
position = "{404, 0}";
},
{
name = top;
position = "{704, 1462}";
}
);
layerId = "9047BFCD-DDCC-4357-AC30-29E5270711EF";
paths = (
{
closed = 1;
nodes = (
"513 -20 OFFCURVE",
"605 28 OFFCURVE",
"690 125 CURVE SMOOTH",
"859 318 OFFCURVE",
"977 721 OFFCURVE",
"977 1100 CURVE SMOOTH",
"977 1127 OFFCURVE",
"976 1153 OFFCURVE",
"973 1178 CURVE",
"1126 1236 OFFCURVE",
"1219 1353 OFFCURVE",
"1251 1530 CURVE",
"1243 1556 LINE",
"1159 1556 LINE",
"1132 1396 OFFCURVE",
"1070 1294 OFFCURVE",
"961 1255 CURVE",
"928 1407 OFFCURVE",
"841 1483 OFFCURVE",
"702 1483 CURVE SMOOTH",
"545 1483 OFFCURVE",
"410 1381 OFFCURVE",
"306 1170 CURVE SMOOTH",
"201 958 OFFCURVE",
"135 640 OFFCURVE",
"135 379 CURVE SMOOTH",
"135 113 OFFCURVE",
"227 -20 OFFCURVE",
"412 -20 CURVE SMOOTH"
);
},
{
closed = 1;
nodes = (
"233 597 OFFCURVE",
"291 899 OFFCURVE",
"376 1095 CURVE SMOOTH",
"461 1291 OFFCURVE",
"571 1389 OFFCURVE",
"692 1389 CURVE SMOOTH",
"817 1389 OFFCURVE",
"879 1293 OFFCURVE",
"879 1100 CURVE SMOOTH",
"879 879 OFFCURVE",
"822 584 OFFCURVE",
"738 385 CURVE SMOOTH",
"654 185 OFFCURVE",
"543 74 OFFCURVE",
"420 74 CURVE SMOOTH",
"295 74 OFFCURVE",
"233 175 OFFCURVE",
"233 377 CURVE SMOOTH"
);
}
);
width = 958;
},
{
anchors = (
{
name = bottom;
position = "{661, 0}";
},
{
name = top;
position = "{961, 1462}";
}
);
layerId = "055178C8-6F6F-4B48-86C1-608D4439D248";
paths = (
{
closed = 1;
nodes = (
"1369 821 OFFCURVE",
"1375 920 OFFCURVE",
"1375 1011 CURVE SMOOTH",
"1375 1033 OFFCURVE",
"1375 1054 OFFCURVE",
"1374 1075 CURVE",
"1551 1162 OFFCURVE",
"1664 1288 OFFCURVE",
"1771 1524 CURVE",
"1757 1556 LINE",
"1398 1556 LINE",
"1375 1449 OFFCURVE",
"1336 1372 OFFCURVE",
"1295 1309 CURVE",
"1217 1416 OFFCURVE",
"1090 1486 OFFCURVE",
"906 1486 CURVE SMOOTH",
"552 1486 OFFCURVE",
"306 1223 OFFCURVE",
"218 761 CURVE SMOOTH",
"200 666 OFFCURVE",
"191 579 OFFCURVE",
"191 501 CURVE SMOOTH",
"191 162 OFFCURVE",
"356 -20 OFFCURVE",
"662 -20 CURVE SMOOTH",
"1016 -20 OFFCURVE",
"1257 236 OFFCURVE",
"1347 707 CURVE SMOOTH"
);
},
{
closed = 1;
nodes = (
"619 1016 OFFCURVE",
"744 1183 OFFCURVE",
"893 1183 CURVE SMOOTH",
"985 1183 OFFCURVE",
"1029 1118 OFFCURVE",
"1029 982 CURVE SMOOTH",
"1029 922 OFFCURVE",
"1021 847 OFFCURVE",
"1004 759 CURVE SMOOTH",
"944 447 OFFCURVE",
"815 284 OFFCURVE",
"674 284 CURVE SMOOTH",
"580 284 OFFCURVE",
"536 357 OFFCURVE",
"536 497 CURVE SMOOTH",
"536 555 OFFCURVE",
"544 625 OFFCURVE",
"560 707 CURVE SMOOTH"
);
}
);
width = 1421;
}
);
note = Ohorn;
unicode = 01A0;
},
{
glyphname = Oslash;
lastChange = "2018-04-02 19:31:18 +0000";
layers = (
{
anchors = (
{
name = bottom;
position = "{404, 0}";
},
{
name = top;
position = "{704, 1462}";
}
);
layerId = "9047BFCD-DDCC-4357-AC30-29E5270711EF";
paths = (
{
closed = 1;
nodes = (
"511 -20 OFFCURVE",
"606 27 OFFCURVE",
"690 125 CURVE SMOOTH",
"858 321 OFFCURVE",
"977 719 OFFCURVE",
"977 1088 CURVE SMOOTH",
"977 1171 OFFCURVE",
"971 1221 OFFCURVE",
"956 1280 CURVE",
"1096 1501 LINE",
"1024 1546 LINE",
"915 1374 LINE",
"870 1447 OFFCURVE",
"798 1483 OFFCURVE",
"704 1483 CURVE SMOOTH",
"541 1483 OFFCURVE",
"407 1376 OFFCURVE",
"306 1170 CURVE SMOOTH",
"199 951 OFFCURVE",
"135 636 OFFCURVE",
"135 386 CURVE SMOOTH",
"135 292 OFFCURVE",
"144 225 OFFCURVE",
"162 170 CURVE",
"23 -53 LINE",
"92 -94 LINE",
"203 82 LINE",
"248 16 OFFCURVE",
"319 -20 OFFCURVE",
"409 -20 CURVE SMOOTH"
);
},
{
closed = 1;
nodes = (
"233 597 OFFCURVE",
"291 899 OFFCURVE",
"376 1095 CURVE SMOOTH",
"460 1290 OFFCURVE",
"571 1389 OFFCURVE",
"692 1389 CURVE SMOOTH",
"769 1389 OFFCURVE",
"822 1350 OFFCURVE",
"852 1272 CURVE",
"238 291 LINE",
"235 308 OFFCURVE",
"233 336 OFFCURVE",
"233 377 CURVE SMOOTH"
);
},
{
closed = 1;
nodes = (
"347 74 OFFCURVE",
"294 109 OFFCURVE",
"264 180 CURVE",
"877 1153 LINE",
"879 1135 OFFCURVE",
"879 1118 OFFCURVE",
"879 1100 CURVE SMOOTH",
"879 881 OFFCURVE",
"824 591 OFFCURVE",
"738 385 CURVE SMOOTH",
"654 185 OFFCURVE",
"544 74 OFFCURVE",
"418 74 CURVE SMOOTH"
);
}
);
width = 958;
},
{
anchors = (
{
name = bottom;
position = "{432, 0}";
},
{
name = top;
position = "{810, 1462}";
}
);
layerId = "055178C8-6F6F-4B48-86C1-608D4439D248";
paths = (
{
closed = 1;
nodes = (
"1261 802 OFFCURVE",
"1269 889 OFFCURVE",
"1269 965 CURVE SMOOTH",
"1269 1099 OFFCURVE",
"1244 1205 OFFCURVE",
"1196 1286 CURVE",
"1333 1475 LINE",
"1140 1567 LINE",
"1045 1441 LINE",
"975 1468 OFFCURVE",
"896 1486 OFFCURVE",
"802 1486 CURVE SMOOTH",
"452 1486 OFFCURVE",
"207 1234 OFFCURVE",
"114 761 CURVE SMOOTH",
"95 664 OFFCURVE",
"86 577 OFFCURVE",
"86 498 CURVE SMOOTH",
"86 358 OFFCURVE",
"115 247 OFFCURVE",
"170 164 CURVE",
"41 -11 LINE",
"233 -106 LINE",
"325 17 LINE",
"389 -6 OFFCURVE",
"466 -20 OFFCURVE",
"551 -20 CURVE SMOOTH",
"915 -20 OFFCURVE",
"1155 239 OFFCURVE",
"1243 707 CURVE SMOOTH"
);
},
{
closed = 1;
nodes = (
"517 1021 OFFCURVE",
"635 1183 OFFCURVE",
"789 1183 CURVE SMOOTH",
"819 1183 OFFCURVE",
"857 1177 OFFCURVE",
"881 1171 CURVE",
"424 529 LINE",
"433 586 OFFCURVE",
"446 656 OFFCURVE",
"456 707 CURVE SMOOTH"
);
},
{
closed = 1;
nodes = (
"837 440 OFFCURVE",
"726 284 OFFCURVE",
"570 284 CURVE SMOOTH",
"548 284 OFFCURVE",
"520 287 OFFCURVE",
"492 292 CURVE",
"933 907 LINE",
"922 864 OFFCURVE",
"914 830 OFFCURVE",
"900 759 CURVE SMOOTH"
);
}
);
width = 1285;
}
);
note = Oslash;
unicode = 00D8;
},
{
glyphname = OE;
lastChange = "2018-04-02 18:17:51 +0000";
layers = (
{
anchors = (
{
name = bottom;
position = "{567, 0}";
},
{
name = top;
position = "{827, 1462}";
}
);
layerId = "9047BFCD-DDCC-4357-AC30-29E5270711EF";
paths = (
{
closed = 1;
nodes = (
"580 94 LINE",
"713 719 LINE",
"1067 719 LINE",
"1087 813 LINE",
"733 813 LINE",
"850 1366 LINE",
"1227 1366 LINE",
"1247 1462 LINE",
"895 1462 LINE",
"707 1467 LINE",
"603 1466 OFFCURVE",
"501 1423 OFFCURVE",
"416 1327 CURVE SMOOTH",
"246 1135 OFFCURVE",
"135 733 OFFCURVE",
"135 427 CURVE SMOOTH",
"135 121 OFFCURVE",
"246 -6 OFFCURVE",
"438 -6 CURVE",
"590 0 LINE",
"938 0 LINE",
"956 94 LINE"
);
},
{
closed = 1;
nodes = (
"304 86 OFFCURVE",
"233 169 OFFCURVE",
"233 405 CURVE SMOOTH",
"233 621 OFFCURVE",
"293 905 OFFCURVE",
"372 1085 CURVE SMOOTH",
"452 1267 OFFCURVE",
"562 1374 OFFCURVE",
"690 1374 CURVE SMOOTH",
"703 1374 OFFCURVE",
"738 1373 OFFCURVE",
"750 1372 CURVE",
"479 86 LINE"
);
}
);
width = 1104;
},
{
anchors = (
{
name = bottom;
position = "{769, 0}";
},
{
name = top;
position = "{1200, 1462}";
}
);
layerId = "055178C8-6F6F-4B48-86C1-608D4439D248";
paths = (
{
closed = 1;
nodes = (
"1159 300 LINE",
"1224 610 LINE",
"1555 610 LINE",
"1618 907 LINE",
"1287 907 LINE",
"1342 1166 LINE",
"1703 1166 LINE",
"1766 1462 LINE",
"1094 1457 LINE",
"1040 1478 OFFCURVE",
"993 1493 OFFCURVE",
"922 1493 CURVE SMOOTH",
"566 1493 OFFCURVE",
"333 1233 OFFCURVE",
"235 768 CURVE SMOOTH",
"212 660 OFFCURVE",
"201 562 OFFCURVE",
"201 474 CURVE SMOOTH",
"201 154 OFFCURVE",
"354 -26 OFFCURVE",
"652 -26 CURVE SMOOTH",
"691 -26 OFFCURVE",
"734 -22 OFFCURVE",
"793 -4 CURVE",
"1456 0 LINE",
"1520 300 LINE"
);
},
{
closed = 1;
nodes = (
"639 1006 OFFCURVE",
"759 1189 OFFCURVE",
"900 1189 CURVE SMOOTH",
"923 1189 OFFCURVE",
"967 1187 OFFCURVE",
"1009 1174 CURVE",
"800 304 LINE",
"761 291 OFFCURVE",
"710 278 OFFCURVE",
"654 278 CURVE SMOOTH",
"581 278 OFFCURVE",
"545 343 OFFCURVE",
"545 465 CURVE SMOOTH",
"545 529 OFFCURVE",
"555 609 OFFCURVE",
"575 704 CURVE SMOOTH"
);
}
);
width = 1537;
}
);
note = OE;
unicode = 0152;
},
{
glyphname = P;
lastChange = "2018-04-02 18:18:09 +0000";
layers = (
{
anchors = (
{
name = bottom;
position = "{271, 0}";
},
{
name = top;
position = "{581, 1462}";
}
);
layerId = "9047BFCD-DDCC-4357-AC30-29E5270711EF";
paths = (
{
closed = 1;
nodes = (
"858 1342 OFFCURVE",
"738 1462 OFFCURVE",
"545 1462 CURVE SMOOTH",
"375 1462 LINE",
"66 0 LINE",
"164 0 LINE",
"291 604 LINE",
"387 604 LINE SMOOTH",
"482 604 OFFCURVE",
"566 628 OFFCURVE",
"637 675 CURVE SMOOTH",
"780 770 OFFCURVE",
"858 946 OFFCURVE",
"858 1155 CURVE SMOOTH"
);
},
{
closed = 1;
nodes = (
"530 1366 LINE SMOOTH",
"673 1366 OFFCURVE",
"754 1282 OFFCURVE",
"754 1139 CURVE SMOOTH",
"754 859 OFFCURVE",
"618 698 OFFCURVE",
"381 698 CURVE SMOOTH",
"311 698 LINE",
"453 1366 LINE"
);
}
);
width = 772;
},
{
anchors = (
{
name = bottom;
position = "{521, 0}";
},
{
name = top;
position = "{552, 1462}";
}
);
layerId = "055178C8-6F6F-4B48-86C1-608D4439D248";
paths = (
{
closed = 1;
nodes = (
"1210 1027 OFFCURVE",
"1216 1079 OFFCURVE",
"1216 1126 CURVE SMOOTH",
"1216 1344 OFFCURVE",
"1090 1462 OFFCURVE",
"857 1462 CURVE SMOOTH",
"424 1462 LINE",
"115 0 LINE",
"462 0 LINE",
"568 498 LINE",
"633 498 LINE SMOOTH",
"940 498 OFFCURVE",
"1134 668 OFFCURVE",
"1198 970 CURVE SMOOTH"
);
},
{
closed = 1;
nodes = (
"769 1165 LINE SMOOTH",
"836 1165 OFFCURVE",
"864 1138 OFFCURVE",
"864 1080 CURVE SMOOTH",
"864 1061 OFFCURVE",
"861 1038 OFFCURVE",
"855 1012 CURVE SMOOTH",
"824 867 OFFCURVE",
"743 796 OFFCURVE",
"651 796 CURVE SMOOTH",
"631 796 LINE",
"709 1165 LINE"
);
}
);
width = 1042;
}
);
note = P;
unicode = 0050;
},
{
glyphname = Thorn;
lastChange = "2018-04-02 18:18:20 +0000";
layers = (
{
anchors = (
{
name = bottom;
position = "{263, 0}";
},
{
name = top;
position = "{573, 1462}";
}
);
layerId = "9047BFCD-DDCC-4357-AC30-29E5270711EF";
paths = (
{
closed = 1;
nodes = (
"66 0 LINE",
"164 0 LINE",
"233 334 LINE",
"330 334 LINE SMOOTH",
"415 334 OFFCURVE",
"502 355 OFFCURVE",
"572 399 CURVE SMOOTH",
"712 487 OFFCURVE",
"801 678 OFFCURVE",
"801 863 CURVE SMOOTH",
"801 1082 OFFCURVE",
"676 1192 OFFCURVE",
"481 1192 CURVE SMOOTH",
"416 1192 LINE",
"473 1462 LINE",
"375 1462 LINE"
);
},
{
closed = 1;
nodes = (
"473 1096 LINE SMOOTH",
"637 1096 OFFCURVE",
"696 1012 OFFCURVE",
"696 848 CURVE SMOOTH",
"696 601 OFFCURVE",
"561 428 OFFCURVE",
"324 428 CURVE SMOOTH",
"254 428 LINE",
"395 1096 LINE"
);
}
);
width = 756;
},
{
anchors = (
{
name = bottom;
position = "{521, 0}";
},
{
name = top;
position = "{552, 1462}";
}
);
layerId = "055178C8-6F6F-4B48-86C1-608D4439D248";
paths = (
{
closed = 1;
nodes = (
"1163 804 OFFCURVE",
"1169 857 OFFCURVE",
"1169 905 CURVE SMOOTH",
"1169 1127 OFFCURVE",
"1043 1245 OFFCURVE",
"809 1245 CURVE SMOOTH",
"726 1245 LINE",
"772 1462 LINE",
"424 1462 LINE",
"115 0 LINE",
"462 0 LINE",
"521 279 LINE",
"585 279 LINE SMOOTH",
"894 279 OFFCURVE",
"1087 444 OFFCURVE",
"1151 746 CURVE SMOOTH"
);
},
{
closed = 1;
nodes = (
"726 952 LINE SMOOTH",
"788 952 OFFCURVE",
"817 921 OFFCURVE",
"817 860 CURVE SMOOTH",
"817 841 OFFCURVE",
"814 819 OFFCURVE",
"809 794 CURVE SMOOTH",
"779 649 OFFCURVE",
"696 573 OFFCURVE",
"604 573 CURVE SMOOTH",
"584 573 LINE",
"664 952 LINE"
);
}
);
width = 1042;
}
);
note = Thorn;
unicode = 00DE;
},
{
glyphname = Q;
lastChange = "2018-04-02 19:31:18 +0000";
layers = (
{
anchors = (
{
name = bottom;
position = "{364, 0}";
},
{
name = top;
position = "{674, 1462}";
}
);
layerId = "9047BFCD-DDCC-4357-AC30-29E5270711EF";
paths = (
{
closed = 1;
nodes = (
"539 -348 LINE",
"655 -348 LINE",
"541 8 LINE",
"621 42 OFFCURVE",
"695 112 OFFCURVE",
"759 215 CURVE SMOOTH",
"886 419 OFFCURVE",
"977 768 OFFCURVE",
"977 1061 CURVE SMOOTH",
"977 1348 OFFCURVE",
"890 1483 OFFCURVE",
"705 1483 CURVE SMOOTH",
"548 1483 OFFCURVE",
"411 1385 OFFCURVE",
"306 1170 CURVE SMOOTH",
"203 959 OFFCURVE",
"135 642 OFFCURVE",
"135 394 CURVE SMOOTH",
"135 113 OFFCURVE",
"222 -20 OFFCURVE",
"412 -20 CURVE SMOOTH",
"422 -20 OFFCURVE",
"432 -19 OFFCURVE",
"442 -18 CURVE"
);
},
{
closed = 1;
nodes = (
"233 508 OFFCURVE",
"254 682 OFFCURVE",
"296 851 CURVE SMOOTH",
"382 1198 OFFCURVE",
"521 1389 OFFCURVE",
"697 1389 CURVE SMOOTH",
"820 1389 OFFCURVE",
"879 1295 OFFCURVE",
"879 1090 CURVE SMOOTH",
"879 965 OFFCURVE",
"857 790 OFFCURVE",
"816 625 CURVE SMOOTH",
"731 282 OFFCURVE",
"588 74 OFFCURVE",
"414 74 CURVE SMOOTH",
"294 74 OFFCURVE",
"233 173 OFFCURVE",
"233 384 CURVE SMOOTH"
);
}
);
width = 958;
},
{
anchors = (
{
name = bottom;
position = "{509, 0}";
},
{
name = top;
position = "{540, 1462}";
}
);
layerId = "055178C8-6F6F-4B48-86C1-608D4439D248";
paths = (
{
closed = 1;
nodes = (
"1249 807 OFFCURVE",
"1260 900 OFFCURVE",
"1260 983 CURVE SMOOTH",
"1260 1306 OFFCURVE",
"1100 1486 OFFCURVE",
"800 1486 CURVE SMOOTH",
"445 1486 OFFCURVE",
"198 1225 OFFCURVE",
"98 757 CURVE SMOOTH",
"77 657 OFFCURVE",
"67 565 OFFCURVE",
"67 483 CURVE SMOOTH",
"67 159 OFFCURVE",
"227 -20 OFFCURVE",
"528 -20 CURVE",
"649 -348 LINE",
"1034 -348 LINE",
"838 61 LINE",
"1041 186 OFFCURVE",
"1164 405 OFFCURVE",
"1228 706 CURVE SMOOTH"
);
},
{
closed = 1;
nodes = (
"506 1015 OFFCURVE",
"631 1183 OFFCURVE",
"788 1183 CURVE SMOOTH",
"874 1183 OFFCURVE",
"916 1123 OFFCURVE",
"916 998 CURVE SMOOTH",
"916 936 OFFCURVE",
"906 858 OFFCURVE",
"886 764 CURVE SMOOTH",
"820 450 OFFCURVE",
"701 284 OFFCURVE",
"547 284 CURVE SMOOTH",
"456 284 OFFCURVE",
"412 350 OFFCURVE",
"412 480 CURVE SMOOTH",
"412 541 OFFCURVE",
"422 616 OFFCURVE",
"441 705 CURVE SMOOTH"
);
}
);
width = 1285;
}
);
note = Q;
unicode = 0051;
},
{
glyphname = R;
lastChange = "2018-04-02 18:18:42 +0000";
layers = (
{
anchors = (
{
name = bottom;
position = "{323, 0}";
},
{
name = top;
position = "{603, 1462}";
}
);
layerId = "9047BFCD-DDCC-4357-AC30-29E5270711EF";
paths = (
{
closed = 1;
nodes = (
"561 0 LINE",
"668 0 LINE",
"547 657 LINE",
"607 669 OFFCURVE",
"661 699 OFFCURVE",
"708 746 CURVE SMOOTH",
"803 841 OFFCURVE",
"856 993 OFFCURVE",
"856 1153 CURVE SMOOTH",
"856 1346 OFFCURVE",
"742 1462 OFFCURVE",
"555 1462 CURVE SMOOTH",
"375 1462 LINE",
"66 0 LINE",
"164 0 LINE",
"299 639 LINE",
"444 639 LINE"
);
},
{
closed = 1;
nodes = (
"530 1366 LINE SMOOTH",
"673 1366 OFFCURVE",
"754 1288 OFFCURVE",
"754 1145 CURVE SMOOTH",
"754 880 OFFCURVE",
"631 729 OFFCURVE",
"422 729 CURVE SMOOTH",
"317 729 LINE",
"453 1366 LINE"
);
}
);
width = 795;
},
{
anchors = (
{
name = bottom;
position = "{545, 0}";
},
{
name = top;
position = "{876, 1462}";
}
);
layerId = "055178C8-6F6F-4B48-86C1-608D4439D248";
paths = (
{
closed = 1;
nodes = (
"738 0 LINE",
"1098 0 LINE",
"964 624 LINE",
"1090 700 OFFCURVE",
"1167 822 OFFCURVE",
"1202 985 CURVE SMOOTH",
"1213 1040 OFFCURVE",
"1219 1091 OFFCURVE",
"1219 1137 CURVE SMOOTH",
"1219 1354 OFFCURVE",
"1090 1462 OFFCURVE",
"835 1462 CURVE SMOOTH",
"424 1462 LINE",
"115 0 LINE",
"462 0 LINE",
"576 539 LINE",
"639 539 LINE"
);
},
{
closed = 1;
nodes = (
"772 1167 LINE SMOOTH",
"839 1167 OFFCURVE",
"868 1150 OFFCURVE",
"868 1095 CURVE SMOOTH",
"868 1078 OFFCURVE",
"865 1058 OFFCURVE",
"860 1034 CURVE SMOOTH",
"833 907 OFFCURVE",
"774 835 OFFCURVE",
"668 835 CURVE SMOOTH",
"639 835 LINE",
"709 1167 LINE"
);
}
);
width = 1090;
}
);
note = R;
unicode = 0052;
},
{
glyphname = S;
lastChange = "2018-04-02 19:31:18 +0000";
layers = (
{
anchors = (
{
name = bottom;
position = "{249, 0}";
},
{
name = top;
position = "{589, 1462}";
}
);
layerId = "9047BFCD-DDCC-4357-AC30-29E5270711EF";
paths = (
{
closed = 1;
nodes = (
"655 467 OFFCURVE",
"647 509 OFFCURVE",
"636 549 CURVE SMOOTH",
"606 658 OFFCURVE",
"569 698 OFFCURVE",
"461 813 CURVE SMOOTH",
"371 909 OFFCURVE",
"315 970 OFFCURVE",
"315 1097 CURVE SMOOTH",
"315 1154 OFFCURVE",
"326 1202 OFFCURVE",
"349 1246 CURVE SMOOTH",
"395 1334 OFFCURVE",
"478 1386 OFFCURVE",
"593 1386 CURVE SMOOTH",
"663 1386 OFFCURVE",
"730 1367 OFFCURVE",
"791 1329 CURVE",
"844 1423 LINE",
"796 1455 OFFCURVE",
"693 1483 OFFCURVE",
"598 1483 CURVE SMOOTH",
"526 1483 OFFCURVE",
"456 1467 OFFCURVE",
"398 1434 CURVE SMOOTH",
"284 1370 OFFCURVE",
"213 1242 OFFCURVE",
"213 1082 CURVE SMOOTH",
"213 1039 OFFCURVE",
"218 1007 OFFCURVE",
"229 969 CURVE SMOOTH",
"251 894 OFFCURVE",
"280 851 OFFCURVE",
"383 739 CURVE SMOOTH",
"440 677 OFFCURVE",
"469 645 OFFCURVE",
"493 608 CURVE SMOOTH",
"531 549 OFFCURVE",
"553 480 OFFCURVE",
"553 391 CURVE SMOOTH",
"553 197 OFFCURVE",
"450 74 OFFCURVE",
"265 74 CURVE SMOOTH",
"183 74 OFFCURVE",
"90 98 OFFCURVE",
"10 145 CURVE",
"10 37 LINE",
"59 6 OFFCURVE",
"160 -20 OFFCURVE",
"261 -20 CURVE SMOOTH",
"508 -20 OFFCURVE",
"655 134 OFFCURVE",
"655 404 CURVE SMOOTH"
);
}
);
width = 727;
},
{
anchors = (
{
name = bottom;
position = "{291, 0}";
},
{
name = top;
position = "{669, 1462}";
}
);
background = {
paths = (
{
closed = 1;
nodes = (
"917 422 OFFCURVE",
"922 466 OFFCURVE",
"922 505 CURVE SMOOTH",
"922 669 OFFCURVE",
"840 753 OFFCURVE",
"739 825 CURVE SMOOTH",
"693 881 OFFCURVE",
"634 938 OFFCURVE",
"634 1016 CURVE SMOOTH",
"634 1027 OFFCURVE",
"635 1038 OFFCURVE",
"637 1049 CURVE SMOOTH",
"652 1119 OFFCURVE",
"701 1182 OFFCURVE",
"787 1182 CURVE SMOOTH",
"856 1182 OFFCURVE",
"936 1130 OFFCURVE",
"959 1112 CURVE",
"1108 1366 LINE",
"999 1442 OFFCURVE",
"891 1483 OFFCURVE",
"768 1483 CURVE SMOOTH",
"660 1483 OFFCURVE",
"544 1454 OFFCURVE",
"455 1395 CURVE SMOOTH",
"385 1319 OFFCURVE",
"327 1208 OFFCURVE",
"301 1085 CURVE SMOOTH",
"293 1045 OFFCURVE",
"289 1012 OFFCURVE",
"289 983 CURVE SMOOTH",
"289 956 OFFCURVE",
"293 933 OFFCURVE",
"299 913 CURVE SMOOTH",
"311 747 OFFCURVE",
"388 677 OFFCURVE",
"455 637 CURVE SMOOTH",
"518 564 OFFCURVE",
"570 495 OFFCURVE",
"570 426 CURVE SMOOTH",
"570 417 OFFCURVE",
"569 407 OFFCURVE",
"567 398 CURVE SMOOTH",
"552 324 OFFCURVE",
"495 278 OFFCURVE",
"405 278 CURVE SMOOTH",
"323 278 OFFCURVE",
"237 315 OFFCURVE",
"134 396 CURVE",
"86 73 LINE",
"166 17 OFFCURVE",
"282 -20 OFFCURVE",
"422 -20 CURVE SMOOTH",
"692 -20 OFFCURVE",
"851 109 OFFCURVE",
"907 372 CURVE SMOOTH"
);
}
);
};
layerId = "055178C8-6F6F-4B48-86C1-608D4439D248";
paths = (
{
closed = 1;
nodes = (
"789 629 OFFCURVE",
"697 748 OFFCURVE",
"609 829 CURVE SMOOTH",
"519 911 OFFCURVE",
"501 976 OFFCURVE",
"501 1016 CURVE SMOOTH",
"501 1091 OFFCURVE",
"563 1182 OFFCURVE",
"651 1182 CURVE SMOOTH",
"720 1182 OFFCURVE",
"803 1130 OFFCURVE",
"826 1112 CURVE",
"975 1366 LINE",
"866 1442 OFFCURVE",
"759 1483 OFFCURVE",
"634 1483 CURVE SMOOTH",
"334 1483 OFFCURVE",
"156 1284 OFFCURVE",
"156 987 CURVE SMOOTH",
"156 839 OFFCURVE",
"217 734 OFFCURVE",
"322 637 CURVE SMOOTH",
"417 550 OFFCURVE",
"437 473 OFFCURVE",
"437 426 CURVE SMOOTH",
"437 342 OFFCURVE",
"371 278 OFFCURVE",
"272 278 CURVE SMOOTH",
"199 278 OFFCURVE",
"104 315 OFFCURVE",
"1 396 CURVE",
"-48 73 LINE",
"33 17 OFFCURVE",
"148 -20 OFFCURVE",
"290 -20 CURVE SMOOTH",
"608 -20 OFFCURVE",
"789 147 OFFCURVE",
"789 466 CURVE SMOOTH"
);
}
);
width = 862;
}
);
note = S;
unicode = 0053;
},
{
glyphname = T;
lastChange = "2018-04-02 19:31:18 +0000";
layers = (
{
anchors = (
{
name = bottom;
position = "{205, 0}";
},
{
name = center;
position = "{360, 731}";
},
{
name = top;
position = "{545, 1462}";
}
);
layerId = "9047BFCD-DDCC-4357-AC30-29E5270711EF";
paths = (
{
closed = 1;
nodes = (
"836 1366 LINE",
"856 1462 LINE",
"244 1462 LINE",
"223 1366 LINE",
"479 1366 LINE",
"190 0 LINE",
"291 0 LINE",
"580 1366 LINE"
);
}
);
width = 639;
},
{
anchors = (
{
name = bottom;
position = "{334, 0}";
},
{
name = center;
position = "{393, 731}";
},
{
name = top;
position = "{732, 1462}";
}
);
layerId = "055178C8-6F6F-4B48-86C1-608D4439D248";
paths = (
{
closed = 1;
nodes = (
"1055 1161 LINE",
"1119 1462 LINE",
"223 1462 LINE",
"160 1161 LINE",
"435 1161 LINE",
"189 0 LINE",
"534 0 LINE",
"780 1161 LINE"
);
}
);
width = 960;
}
);
note = T;
unicode = 0054;
},
{
glyphname = Tbar;
lastChange = "2018-04-02 16:06:03 +0000";
layers = (
{
layerId = "9047BFCD-DDCC-4357-AC30-29E5270711EF";
paths = (
{
closed = 1;
nodes = (
"836 1366 LINE",
"856 1462 LINE",
"244 1462 LINE",
"223 1366 LINE",
"479 1366 LINE",
"360 801 LINE",
"170 801 LINE",
"154 725 LINE",
"344 725 LINE",
"190 0 LINE",
"291 0 LINE",
"442 725 LINE",
"651 725 LINE",
"668 801 LINE",
"459 801 LINE",
"580 1366 LINE"
);
}
);
width = 639;
},
{
layerId = "055178C8-6F6F-4B48-86C1-608D4439D248";
paths = (
{
closed = 1;
nodes = (
"943 572 LINE",
"1006 867 LINE",
"837 867 LINE",
"899 1162 LINE",
"1174 1162 LINE",
"1238 1462 LINE",
"342 1462 LINE",
"279 1162 LINE",
"554 1162 LINE",
"491 867 LINE",
"318 867 LINE",
"256 572 LINE",
"429 572 LINE",
"308 0 LINE",
"653 0 LINE",
"774 572 LINE"
);
}
);
width = 960;
}
);
note = Tbar;
unicode = 0166;
},
{
glyphname = U;
lastChange = "2018-04-02 19:31:18 +0000";
layers = (
{
anchors = (
{
name = bottom;
position = "{381, 0}";
},
{
name = ogonek;
position = "{485, 10}";
},
{
name = top;
position = "{681, 1462}";
},
{
name = topright;
position = "{1086, 1462}";
}
);
layerId = "9047BFCD-DDCC-4357-AC30-29E5270711EF";
paths = (
{
closed = 1;
nodes = (
"699 457 LINE SMOOTH",
"642 189 OFFCURVE",
"549 74 OFFCURVE",
"398 74 CURVE SMOOTH",
"282 74 OFFCURVE",
"225 141 OFFCURVE",
"225 274 CURVE SMOOTH",
"225 317 OFFCURVE",
"231 373 OFFCURVE",
"243 428 CURVE SMOOTH",
"465 1462 LINE",
"367 1462 LINE",
"147 440 LINE SMOOTH",
"136 388 OFFCURVE",
"129 328 OFFCURVE",
"129 275 CURVE SMOOTH",
"129 89 OFFCURVE",
"214 -20 OFFCURVE",
"394 -20 CURVE SMOOTH",
"600 -20 OFFCURVE",
"725 124 OFFCURVE",
"797 459 CURVE SMOOTH",
"1012 1462 LINE",
"913 1462 LINE"
);
}
);
width = 911;
},
{
anchors = (
{
name = bottom;
position = "{481, 0}";
},
{
name = ogonek;
position = "{662, 10}";
},
{
name = top;
position = "{809, 1462}";
},
{
name = topright;
position = "{1244, 1462}";
}
);
layerId = "055178C8-6F6F-4B48-86C1-608D4439D248";
paths = (
{
closed = 1;
nodes = (
"745 520 LINE SMOOTH",
"716 382 OFFCURVE",
"624 284 OFFCURVE",
"524 284 CURVE SMOOTH",
"469 284 OFFCURVE",
"430 313 OFFCURVE",
"430 386 CURVE SMOOTH",
"430 412 OFFCURVE",
"435 455 OFFCURVE",
"445 501 CURVE SMOOTH",
"648 1462 LINE",
"304 1462 LINE",
"111 554 LINE SMOOTH",
"97 486 OFFCURVE",
"90 424 OFFCURVE",
"90 368 CURVE SMOOTH",
"90 116 OFFCURVE",
"231 -20 OFFCURVE",
"497 -20 CURVE SMOOTH",
"808 -20 OFFCURVE",
"1015 163 OFFCURVE",
"1090 519 CURVE SMOOTH",
"1290 1462 LINE",
"945 1462 LINE"
);
}
);
width = 1211;
}
);
note = U;
unicode = 0055;
},
{
glyphname = Uhorn;
lastChange = "2018-04-02 18:40:13 +0000";
layers = (
{
anchors = (
{
name = bottom;
position = "{389, 0}";
},
{
name = top;
position = "{699, 1462}";
}
);
layerId = "9047BFCD-DDCC-4357-AC30-29E5270711EF";
paths = (
{
closed = 1;
nodes = (
"699 457 LINE SMOOTH",
"642 189 OFFCURVE",
"549 74 OFFCURVE",
"398 74 CURVE SMOOTH",
"282 74 OFFCURVE",
"225 141 OFFCURVE",
"225 274 CURVE SMOOTH",
"225 317 OFFCURVE",
"231 373 OFFCURVE",
"243 428 CURVE SMOOTH",
"465 1462 LINE",
"367 1462 LINE",
"147 440 LINE SMOOTH",
"136 388 OFFCURVE",
"129 328 OFFCURVE",
"129 275 CURVE SMOOTH",
"129 89 OFFCURVE",
"214 -20 OFFCURVE",
"393 -20 CURVE SMOOTH",
"609 -20 OFFCURVE",
"729 138 OFFCURVE",
"797 459 CURVE SMOOTH",
"948 1167 LINE",
"1118 1219 OFFCURVE",
"1220 1340 OFFCURVE",
"1255 1530 CURVE",
"1247 1556 LINE",
"1163 1556 LINE",
"1135 1391 OFFCURVE",
"1074 1292 OFFCURVE",
"967 1255 CURVE",
"1012 1462 LINE",
"913 1462 LINE"
);
}
);
width = 948;
},
{
anchors = (
{
name = bottom;
position = "{620, 0}";
},
{
name = top;
position = "{948, 1462}";
}
);
layerId = "055178C8-6F6F-4B48-86C1-608D4439D248";
paths = (
{
closed = 1;
nodes = (
"864 524 LINE SMOOTH",
"836 390 OFFCURVE",
"757 284 OFFCURVE",
"639 284 CURVE SMOOTH",
"577 284 OFFCURVE",
"548 313 OFFCURVE",
"548 386 CURVE SMOOTH",
"548 417 OFFCURVE",
"553 455 OFFCURVE",
"563 501 CURVE SMOOTH",
"766 1462 LINE",
"422 1462 LINE",
"229 554 LINE SMOOTH",
"215 486 OFFCURVE",
"208 424 OFFCURVE",
"208 368 CURVE SMOOTH",
"208 116 OFFCURVE",
"347 -20 OFFCURVE",
"615 -20 CURVE SMOOTH",
"926 -20 OFFCURVE",
"1130 165 OFFCURVE",
"1211 519 CURVE SMOOTH",
"1336 1063 LINE",
"1437 1077 OFFCURVE",
"1525 1090 OFFCURVE",
"1596 1117 CURVE SMOOTH",
"1738 1171 OFFCURVE",
"1843 1286 OFFCURVE",
"1951 1523 CURVE",
"1935 1556 LINE",
"1576 1556 LINE",
"1544 1406 OFFCURVE",
"1456 1307 OFFCURVE",
"1356 1278 CURVE",
"1408 1462 LINE",
"1063 1462 LINE"
);
}
);
width = 1513;
}
);
note = Uhorn;
unicode = 01AF;
},
{
glyphname = V;
lastChange = "2018-04-02 18:41:11 +0000";
layers = (
{
anchors = (
{
name = bottom;
position = "{250, 0}";
},
{
name = top;
position = "{590, 1462}";
}
);
layerId = "9047BFCD-DDCC-4357-AC30-29E5270711EF";
paths = (
{
closed = 1;
nodes = (
"371 302 OFFCURVE",
"330 191 OFFCURVE",
"307 121 CURVE",
"322 298 OFFCURVE",
"330 442 OFFCURVE",
"330 553 CURVE SMOOTH",
"330 1462 LINE",
"231 1462 LINE",
"231 0 LINE",
"340 0 LINE",
"950 1462 LINE",
"850 1462 LINE",
"432 455 LINE SMOOTH"
);
}
);
width = 729;
},
{
anchors = (
{
name = bottom;
position = "{459, 0}";
},
{
name = top;
position = "{847, 1462}";
}
);
layerId = "055178C8-6F6F-4B48-86C1-608D4439D248";
paths = (
{
closed = 1;
nodes = (
"1027 1303 OFFCURVE",
"980 1189 OFFCURVE",
"774 699 CURVE SMOOTH",
"713 554 OFFCURVE",
"666 414 OFFCURVE",
"627 294 CURVE",
"637 412 OFFCURVE",
"646 541 OFFCURVE",
"647 613 CURVE SMOOTH",
"655 1462 LINE",
"312 1462 LINE",
"343 0 LINE",
"792 0 LINE",
"1444 1462 LINE",
"1088 1462 LINE"
);
}
);
width = 1132;
}
);
note = V;
unicode = 0056;
},
{
glyphname = W;
lastChange = "2018-04-02 18:44:22 +0000";
layers = (
{
anchors = (
{
name = bottom;
position = "{560, 0}";
},
{
name = top;
position = "{860, 1462}";
}
);
layerId = "9047BFCD-DDCC-4357-AC30-29E5270711EF";
paths = (
{
closed = 1;
nodes = (
"950 383 OFFCURVE",
"914 286 OFFCURVE",
"852 111 CURVE",
"860 175 OFFCURVE",
"873 380 OFFCURVE",
"877 492 CURVE SMOOTH",
"909 1462 LINE",
"801 1462 LINE",
"412 451 LINE SMOOTH",
"383 375 OFFCURVE",
"342 264 OFFCURVE",
"287 111 CURVE",
"292 165 OFFCURVE",
"302 355 OFFCURVE",
"305 455 CURVE SMOOTH",
"332 1462 LINE",
"231 1462 LINE",
"205 0 LINE",
"326 0 LINE",
"752 1096 LINE",
"831 1333 LINE",
"815 1094 LINE",
"768 0 LINE",
"889 0 LINE",
"1477 1462 LINE",
"1376 1462 LINE",
"979 455 LINE SMOOTH"
);
}
);
width = 1270;
},
{
anchors = (
{
name = bottom;
position = "{853, 0}";
},
{
name = top;
position = "{1161, 1462}";
}
);
layerId = "055178C8-6F6F-4B48-86C1-608D4439D248";
paths = (
{
closed = 1;
nodes = (
"1665 1462 LINE",
"1417 728 LINE SMOOTH",
"1379 614 OFFCURVE",
"1332 452 OFFCURVE",
"1294 316 CURVE",
"1286 316 LINE",
"1299 438 OFFCURVE",
"1310 552 OFFCURVE",
"1315 692 CURVE SMOOTH",
"1345 1462 LINE",
"988 1462 LINE",
"695 722 LINE SMOOTH",
"666 649 OFFCURVE",
"638 551 OFFCURVE",
"574 316 CURVE",
"566 316 LINE",
"583 463 OFFCURVE",
"601 647 OFFCURVE",
"605 700 CURVE SMOOTH",
"667 1462 LINE",
"333 1462 LINE",
"267 0 LINE",
"704 0 LINE",
"941 619 LINE SMOOTH",
"997 766 OFFCURVE",
"1039 918 OFFCURVE",
"1079 1068 CURVE",
"1087 1068 LINE",
"1069 925 OFFCURVE",
"1053 767 OFFCURVE",
"1048 639 CURVE SMOOTH",
"1023 0 LINE",
"1458 0 LINE",
"2011 1462 LINE"
);
}
);
width = 1720;
}
);
note = W;
unicode = 0057;
},
{
glyphname = X;
lastChange = "2018-04-02 18:44:53 +0000";
layers = (
{
anchors = (
{
name = bottom;
position = "{211, 0}";
},
{
name = top;
position = "{521, 1462}";
}
);
layerId = "9047BFCD-DDCC-4357-AC30-29E5270711EF";
paths = (
{
closed = 1;
nodes = (
"856 1462 LINE",
"756 1462 LINE",
"449 856 LINE",
"381 1462 LINE",
"281 1462 LINE",
"362 791 LINE",
"-57 0 LINE",
"45 0 LINE",
"393 666 LINE",
"446 0 LINE",
"547 0 LINE",
"479 743 LINE"
);
}
);
width = 651;
},
{
anchors = (
{
name = bottom;
position = "{432, 0}";
},
{
name = top;
position = "{710, 1462}";
}
);
layerId = "055178C8-6F6F-4B48-86C1-608D4439D248";
paths = (
{
closed = 1;
nodes = (
"1366 1462 LINE",
"993 1462 LINE",
"751 1036 LINE",
"662 1462 LINE",
"323 1462 LINE",
"497 752 LINE",
"-13 0 LINE",
"357 0 LINE",
"627 461 LINE",
"731 0 LINE",
"1083 0 LINE",
"878 745 LINE"
);
}
);
width = 1078;
}
);
note = X;
unicode = 0058;
},
{
glyphname = Y;
lastChange = "2018-04-02 18:45:07 +0000";
layers = (
{
anchors = (
{
name = bottom;
position = "{233, 0}";
},
{
name = top;
position = "{533, 1462}";
},
{
name = topleft;
position = "{215, 1462}";
}
);
layerId = "9047BFCD-DDCC-4357-AC30-29E5270711EF";
paths = (
{
closed = 1;
nodes = (
"227 1462 LINE",
"301 571 LINE",
"180 0 LINE",
"281 0 LINE",
"401 571 LINE",
"848 1462 LINE",
"745 1462 LINE",
"379 707 LINE",
"328 1462 LINE"
);
}
);
width = 616;
},
{
anchors = (
{
name = bottom;
position = "{533, 0}";
},
{
name = top;
position = "{841, 1462}";
},
{
name = topleft;
position = "{191, 1462}";
}
);
layerId = "055178C8-6F6F-4B48-86C1-608D4439D248";
paths = (
{
closed = 1;
nodes = (
"314 1462 LINE",
"495 578 LINE",
"369 0 LINE",
"710 0 LINE",
"840 592 LINE",
"1393 1462 LINE",
"1023 1462 LINE",
"735 961 LINE",
"672 1462 LINE"
);
}
);
width = 1079;
}
);
note = Y;
unicode = 0059;
},
{
glyphname = Z;
lastChange = "2018-04-02 18:45:55 +0000";
layers = (
{
anchors = (
{
name = bottom;
position = "{215, 0}";
},
{
name = top;
position = "{515, 1462}";
}
);
layerId = "9047BFCD-DDCC-4357-AC30-29E5270711EF";
paths = (
{
closed = 1;
nodes = (
"92 94 LINE",
"743 1372 LINE",
"762 1462 LINE",
"289 1462 LINE",
"268 1366 LINE",
"635 1366 LINE",
"-6 88 LINE",
"-25 0 LINE",
"465 0 LINE",
"483 94 LINE"
);
}
);
width = 580;
},
{
anchors = (
{
name = bottom;
position = "{382, 0}";
},
{
name = top;
position = "{790, 1462}";
}
);
layerId = "055178C8-6F6F-4B48-86C1-608D4439D248";
paths = (
{
closed = 1;
nodes = (
"502 300 LINE",
"1183 1229 LINE",
"1228 1462 LINE",
"363 1462 LINE",
"300 1164 LINE",
"765 1164 LINE",
"82 233 LINE",
"37 0 LINE",
"934 0 LINE",
"998 300 LINE"
);
}
);
width = 977;
}
);
note = Z;
unicode = 005A;
},
{
glyphname = I.ss01;
lastChange = "2018-04-02 19:32:34 +0000";
layers = (
{
anchors = (
{
name = bottom;
position = "{137, 0}";
},
{
name = ogonek;
position = "{267, 10}";
},
{
name = top;
position = "{437, 1462}";
},
{
name = topleft;
position = "{215, 1462}";
}
);
layerId = "9047BFCD-DDCC-4357-AC30-29E5270711EF";
paths = (
{
closed = 1;
nodes = (
"201 90 LINE",
"473 1370 LINE",
"586 1386 LINE",
"602 1462 LINE",
"285 1462 LINE",
"268 1386 LINE",
"375 1370 LINE",
"102 90 LINE",
"-8 76 LINE",
"-23 0 LINE",
"293 0 LINE",
"307 76 LINE"
);
}
);
width = 424;
},
{
anchors = (
{
name = bottom;
position = "{236, 0}";
},
{
name = ogonek;
position = "{556, 10}";
},
{
name = top;
position = "{544, 1462}";
},
{
name = topleft;
position = "{72, 1462}";
}
);
layerId = "055178C8-6F6F-4B48-86C1-608D4439D248";
paths = (
{
closed = 1;
nodes = (
"509 332 LINE",
"687 1130 LINE",
"828 1238 LINE",
"872 1462 LINE",
"233 1462 LINE",
"190 1238 LINE",
"288 1130 LINE",
"111 332 LINE",
"-33 223 LINE",
"-76 0 LINE",
"562 0 LINE",
"605 223 LINE"
);
}
);
width = 724;
}
);
note = g44;
},
{
glyphname = a;
lastChange = "2018-04-09 15:15:42 +0000";
layers = (
{
anchors = (
{
name = bottom;
position = "{324, 0}";
},
{
name = ogonek;
position = "{630, 10}";
},
{
name = top;
position = "{574, 1085}";
}
);
layerId = "9047BFCD-DDCC-4357-AC30-29E5270711EF";
paths = (
{
closed = 1;
nodes = (
"410 -20 OFFCURVE",
"493 39 OFFCURVE",
"569 156 CURVE",
"573 156 LINE",
"555 0 LINE",
"631 0 LINE",
"860 1085 LINE",
"780 1085 LINE",
"741 956 LINE",
"735 956 LINE",
"708 1056 OFFCURVE",
"650 1106 OFFCURVE",
"561 1106 CURVE SMOOTH",
"482 1106 OFFCURVE",
"410 1069 OFFCURVE",
"344 994 CURVE SMOOTH",
"211 844 OFFCURVE",
"119 541 OFFCURVE",
"119 262 CURVE SMOOTH",
"119 74 OFFCURVE",
"186 -20 OFFCURVE",
"319 -20 CURVE SMOOTH"
);
},
{
closed = 1;
nodes = (
"247 63 OFFCURVE",
"217 127 OFFCURVE",
"217 248 CURVE SMOOTH",
"217 363 OFFCURVE",
"234 486 OFFCURVE",
"268 617 CURVE SMOOTH",
"336 878 OFFCURVE",
"440 1016 OFFCURVE",
"557 1016 CURVE SMOOTH",
"642 1016 OFFCURVE",
"692 959 OFFCURVE",
"692 848 CURVE SMOOTH",
"692 730 OFFCURVE",
"674 604 OFFCURVE",
"638 471 CURVE SMOOTH",
"566 204 OFFCURVE",
"458 63 OFFCURVE",
"338 63 CURVE SMOOTH"
);
}
);
width = 817;
},
{
anchors = (
{
name = bottom;
position = "{365, 0}";
},
{
name = ogonek;
position = "{890, 9}";
},
{
name = top;
position = "{695, 1127}";
}
);
background = {
paths = (
{
closed = 1;
nodes = (
"561 -20 OFFCURVE",
"613 24 OFFCURVE",
"699 163 CURVE",
"661 163 LINE",
"643 0 LINE",
"942 -2 LINE",
"1172 1085 LINE",
"866 1085 LINE",
"833 972 LINE",
"844 972 LINE",
"815 1080 OFFCURVE",
"727 1128 OFFCURVE",
"561 1128 CURVE SMOOTH",
"312 1128 OFFCURVE",
"16 840 OFFCURVE",
"16 402 CURVE SMOOTH",
"16 233 OFFCURVE",
"94 -20 OFFCURVE",
"359 -20 CURVE SMOOTH"
);
},
{
closed = 1;
nodes = (
"369 244 OFFCURVE",
"323 327 OFFCURVE",
"323 443 CURVE SMOOTH",
"323 476 OFFCURVE",
"327 512 OFFCURVE",
"335 550 CURVE SMOOTH",
"371 718 OFFCURVE",
"478 855 OFFCURVE",
"574 855 CURVE SMOOTH",
"648 855 OFFCURVE",
"694 772 OFFCURVE",
"694 657 CURVE SMOOTH",
"694 623 OFFCURVE",
"690 587 OFFCURVE",
"682 550 CURVE SMOOTH",
"646 381 OFFCURVE",
"539 244 OFFCURVE",
"444 244 CURVE SMOOTH"
);
}
);
};
layerId = "055178C8-6F6F-4B48-86C1-608D4439D248";
paths = (
{
closed = 1;
nodes = (
"485 -20 OFFCURVE",
"593 24 OFFCURVE",
"679 163 CURVE",
"611 163 LINE",
"593 0 LINE",
"892 0 LINE",
"1131 1127 LINE",
"825 1127 LINE",
"783 972 LINE",
"824 972 LINE",
"776 1080 OFFCURVE",
"688 1148 OFFCURVE",
"561 1148 CURVE SMOOTH",
"283 1148 OFFCURVE",
"16 795 OFFCURVE",
"16 402 CURVE SMOOTH",
"16 183 OFFCURVE",
"124 -20 OFFCURVE",
"369 -20 CURVE SMOOTH"
);
},
{
closed = 1;
nodes = (
"313 404 OFFCURVE",
"319 491 OFFCURVE",
"329 545 CURVE SMOOTH",
"361 715 OFFCURVE",
"454 870 OFFCURVE",
"570 870 CURVE SMOOTH",
"647 870 OFFCURVE",
"692 800 OFFCURVE",
"692 742 CURVE SMOOTH",
"692 685 OFFCURVE",
"683 619 OFFCURVE",
"668 555 CURVE SMOOTH",
"630 392 OFFCURVE",
"561 255 OFFCURVE",
"428 255 CURVE SMOOTH",
"394 255 OFFCURVE",
"361 265 OFFCURVE",
"338 293 CURVE SMOOTH",
"323 312 OFFCURVE",
"313 338 OFFCURVE",
"313 373 CURVE SMOOTH"
);
}
);
width = 1072;
}
);
note = a;
unicode = 0061;
},
{
glyphname = aringacute;
lastChange = "2018-04-03 15:09:00 +0000";
layers = (
{
background = {
paths = (
{
closed = 1;
nodes = (
"781 1731 OFFCURVE",
"895 1842 OFFCURVE",
"952 1921 CURVE",
"952 1937 LINE",
"813 1937 LINE",
"752 1826 OFFCURVE",
"677 1736 OFFCURVE",
"610 1657 CURVE",
"610 1640 LINE",
"662 1640 LINE"
);
},
{
closed = 1;
nodes = (
"410 -20 OFFCURVE",
"493 39 OFFCURVE",
"569 156 CURVE",
"573 156 LINE",
"555 0 LINE",
"631 0 LINE",
"860 1085 LINE",
"780 1085 LINE",
"741 956 LINE",
"735 956 LINE",
"708 1056 OFFCURVE",
"650 1106 OFFCURVE",
"561 1106 CURVE SMOOTH",
"482 1106 OFFCURVE",
"410 1069 OFFCURVE",
"344 994 CURVE SMOOTH",
"211 844 OFFCURVE",
"119 541 OFFCURVE",
"119 262 CURVE SMOOTH",
"119 74 OFFCURVE",
"186 -20 OFFCURVE",
"319 -20 CURVE SMOOTH"
);
},
{
closed = 1;
nodes = (
"247 63 OFFCURVE",
"217 127 OFFCURVE",
"217 248 CURVE SMOOTH",
"217 363 OFFCURVE",
"234 486 OFFCURVE",
"268 617 CURVE SMOOTH",
"336 878 OFFCURVE",
"440 1016 OFFCURVE",
"557 1016 CURVE SMOOTH",
"642 1016 OFFCURVE",
"692 959 OFFCURVE",
"692 848 CURVE SMOOTH",
"692 730 OFFCURVE",
"674 604 OFFCURVE",
"638 471 CURVE SMOOTH",
"566 204 OFFCURVE",
"458 63 OFFCURVE",
"338 63 CURVE SMOOTH"
);
},
{
closed = 1;
nodes = (
"803 1488 OFFCURVE",
"725 1563 OFFCURVE",
"612 1563 CURVE SMOOTH",
"493 1563 OFFCURVE",
"422 1489 OFFCURVE",
"422 1376 CURVE SMOOTH",
"422 1260 OFFCURVE",
"497 1190 OFFCURVE",
"612 1190 CURVE SMOOTH",
"729 1190 OFFCURVE",
"803 1264 OFFCURVE",
"803 1380 CURVE SMOOTH"
);
},
{
closed = 1;
nodes = (
"731 1304 OFFCURVE",
"683 1257 OFFCURVE",
"612 1257 CURVE SMOOTH",
"533 1257 OFFCURVE",
"494 1297 OFFCURVE",
"494 1376 CURVE SMOOTH",
"494 1447 OFFCURVE",
"539 1497 OFFCURVE",
"612 1497 CURVE SMOOTH",
"687 1497 OFFCURVE",
"731 1447 OFFCURVE",
"731 1376 CURVE SMOOTH"
);
}
);
};
components = (
{
alignment = -1;
name = a;
},
{
alignment = -1;
name = ringcomb;
transform = "{1, 0, 0, 1, 225, -62}";
},
{
name = acutecomb;
transform = "{1, 0, 0, 1, 387, 477}";
}
);
layerId = "9047BFCD-DDCC-4357-AC30-29E5270711EF";
width = 817;
},
{
components = (
{
name = a;
},
{
name = ringcomb;
transform = "{1, 0, 0, 1, 321, 0}";
},
{
name = acutecomb;
transform = "{1, 0, 0, 1, 535, 614}";
}
);
layerId = "055178C8-6F6F-4B48-86C1-608D4439D248";
width = 1072;
}
);
note = aringacute;
unicode = 01FB;
},
{
glyphname = ae;
lastChange = "2018-04-10 17:46:38 +0000";
layers = (
{
anchors = (
{
name = bottom;
position = "{481, 0}";
},
{
name = top;
position = "{791, 1085}";
}
);
layerId = "9047BFCD-DDCC-4357-AC30-29E5270711EF";
paths = (
{
closed = 1;
nodes = (
"415 -20 OFFCURVE",
"492 39 OFFCURVE",
"551 156 CURVE",
"528 0 LINE",
"604 0 LINE",
"637 164 LINE",
"660 47 OFFCURVE",
"741 -20 OFFCURVE",
"858 -20 CURVE SMOOTH",
"938 -20 OFFCURVE",
"991 -4 OFFCURVE",
"1059 35 CURVE",
"1059 121 LINE",
"995 84 OFFCURVE",
"933 66 OFFCURVE",
"874 66 CURVE SMOOTH",
"749 66 OFFCURVE",
"686 142 OFFCURVE",
"686 307 CURVE SMOOTH",
"686 374 OFFCURVE",
"693 440 OFFCURVE",
"707 506 CURVE",
"719 506 LINE SMOOTH",
"821 506 OFFCURVE",
"909 521 OFFCURVE",
"983 551 CURVE SMOOTH",
"1130 611 OFFCURVE",
"1212 739 OFFCURVE",
"1212 903 CURVE SMOOTH",
"1212 1039 OFFCURVE",
"1146 1106 OFFCURVE",
"1030 1106 CURVE SMOOTH",
"951 1106 OFFCURVE",
"874 1052 OFFCURVE",
"801 944 CURVE",
"834 1085 LINE",
"754 1085 LINE",
"715 952 LINE",
"688 1065 OFFCURVE",
"640 1106 OFFCURVE",
"561 1106 CURVE SMOOTH",
"482 1106 OFFCURVE",
"410 1069 OFFCURVE",
"344 994 CURVE SMOOTH",
"211 844 OFFCURVE",
"119 541 OFFCURVE",
"119 262 CURVE SMOOTH",
"119 74 OFFCURVE",
"186 -20 OFFCURVE",
"319 -20 CURVE SMOOTH"
);
},
{
closed = 1;
nodes = (
"247 63 OFFCURVE",
"217 127 OFFCURVE",
"217 248 CURVE SMOOTH",
"217 363 OFFCURVE",
"234 486 OFFCURVE",
"268 617 CURVE SMOOTH",
"336 878 OFFCURVE",
"440 1016 OFFCURVE",
"557 1016 CURVE SMOOTH",
"622 1016 OFFCURVE",
"659 956 OFFCURVE",
"659 848 CURVE SMOOTH",
"659 721 OFFCURVE",
"644 592 OFFCURVE",
"614 461 CURVE SMOOTH",
"554 200 OFFCURVE",
"455 63 OFFCURVE",
"338 63 CURVE SMOOTH"
);
},
{
closed = 1;
nodes = (
"1093 1018 OFFCURVE",
"1118 976 OFFCURVE",
"1118 905 CURVE SMOOTH",
"1118 694 OFFCURVE",
"981 588 OFFCURVE",
"721 588 CURVE",
"759 730 OFFCURVE",
"803 837 OFFCURVE",
"854 910 CURVE SMOOTH",
"905 982 OFFCURVE",
"958 1018 OFFCURVE",
"1014 1018 CURVE SMOOTH"
);
}
);
width = 1192;
},
{
anchors = (
{
name = bottom;
position = "{757, 0}";
},
{
name = top;
position = "{1017, 1127}";
}
);
components = (
{
name = a;
},
{
alignment = -1;
name = e;
transform = "{1, 0, 0, 1, 722, 0}";
}
);
layerId = "055178C8-6F6F-4B48-86C1-608D4439D248";
width = 1724;
}
);
leftMetricsKey = a;
note = ae;
rightMetricsKey = e;
unicode = 00E6;
},
{
glyphname = b;
lastChange = "2018-04-02 20:51:00 +0000";
layers = (
{
anchors = (
{
name = bottom;
position = "{287, 0}";
},
{
name = top;
position = "{517, 1085}";
}
);
layerId = "9047BFCD-DDCC-4357-AC30-29E5270711EF";
paths = (
{
closed = 1;
nodes = (
"512 1106 OFFCURVE",
"428 1040 OFFCURVE",
"358 920 CURVE",
"354 920 LINE",
"362 947 OFFCURVE",
"369 974 OFFCURVE",
"375 1001 CURVE SMOOTH",
"494 1556 LINE",
"399 1556 LINE",
"72 0 LINE",
"145 0 LINE",
"190 131 LINE",
"197 131 LINE",
"213 40 OFFCURVE",
"278 -20 OFFCURVE",
"372 -20 CURVE SMOOTH",
"451 -20 OFFCURVE",
"527 22 OFFCURVE",
"588 92 CURVE SMOOTH",
"720 243 OFFCURVE",
"813 549 OFFCURVE",
"813 802 CURVE SMOOTH",
"813 1012 OFFCURVE",
"749 1106 OFFCURVE",
"620 1106 CURVE SMOOTH"
);
},
{
closed = 1;
nodes = (
"688 1022 OFFCURVE",
"715 954 OFFCURVE",
"715 829 CURVE SMOOTH",
"715 730 OFFCURVE",
"698 598 OFFCURVE",
"665 469 CURVE SMOOTH",
"597 203 OFFCURVE",
"492 66 OFFCURVE",
"366 66 CURVE SMOOTH",
"282 66 OFFCURVE",
"240 128 OFFCURVE",
"240 272 CURVE SMOOTH",
"240 363 OFFCURVE",
"257 497 OFFCURVE",
"291 624 CURVE SMOOTH",
"357 872 OFFCURVE",
"466 1022 OFFCURVE",
"599 1022 CURVE SMOOTH"
);
}
);
width = 803;
},
{
anchors = (
{
name = bottom;
position = "{279, 0}";
},
{
name = top;
position = "{649, 1127}";
}
);
background = {
anchors = (
{
name = bottom;
position = "{279, 0}";
},
{
name = top;
position = "{649, 1127}";
}
);
paths = (
{
closed = 1;
nodes = (
"667 1149 OFFCURVE",
"594 1115 OFFCURVE",
"505 993 CURVE",
"487 966 LINE",
"525 1079 OFFCURVE",
"553 1178 OFFCURVE",
"564 1228 CURVE SMOOTH",
"633 1556 LINE",
"292 1556 LINE",
"-37 0 LINE",
"215 0 LINE",
"298 117 LINE",
"324 129 LINE",
"371 23 OFFCURVE",
"442 -20 OFFCURVE",
"539 -20 CURVE SMOOTH",
"749 -20 OFFCURVE",
"906 181 OFFCURVE",
"981 532 CURVE SMOOTH",
"1061 913 OFFCURVE",
"971 1149 OFFCURVE",
"750 1149 CURVE SMOOTH"
);
},
{
closed = 1;
nodes = (
"679 863 OFFCURVE",
"685 777 OFFCURVE",
"646 597 CURVE SMOOTH",
"625 493 OFFCURVE",
"597 418 OFFCURVE",
"567 381 CURVE SMOOTH",
"534 303 OFFCURVE",
"488 270 OFFCURVE",
"440 270 CURVE SMOOTH",
"416 270 OFFCURVE",
"398 277 OFFCURVE",
"386 307 CURVE SMOOTH",
"386 364 OFFCURVE",
"398 444 OFFCURVE",
"423 564 CURVE SMOOTH",
"429 592 LINE SMOOTH",
"451 696 OFFCURVE",
"483 764 OFFCURVE",
"510 788 CURVE SMOOTH",
"523 825 OFFCURVE",
"562 863 OFFCURVE",
"613 863 CURVE SMOOTH"
);
}
);
};
layerId = "055178C8-6F6F-4B48-86C1-608D4439D248";
paths = (
{
closed = 1;
nodes = (
"638 1149 OFFCURVE",
"554 1088 OFFCURVE",
"495 966 CURVE",
"487 966 LINE",
"524 1076 OFFCURVE",
"554 1181 OFFCURVE",
"564 1228 CURVE SMOOTH",
"633 1556 LINE",
"292 1556 LINE",
"-37 0 LINE",
"215 0 LINE",
"316 129 LINE",
"324 129 LINE",
"366 23 OFFCURVE",
"442 -20 OFFCURVE",
"539 -20 CURVE SMOOTH",
"745 -20 OFFCURVE",
"907 178 OFFCURVE",
"981 532 CURVE SMOOTH",
"1000 624 OFFCURVE",
"1010 708 OFFCURVE",
"1010 782 CURVE SMOOTH",
"1010 1013 OFFCURVE",
"918 1149 OFFCURVE",
"750 1149 CURVE SMOOTH"
);
},
{
closed = 1;
nodes = (
"652 863 OFFCURVE",
"670 835 OFFCURVE",
"670 770 CURVE SMOOTH",
"670 723 OFFCURVE",
"661 667 OFFCURVE",
"646 597 CURVE SMOOTH",
"627 507 OFFCURVE",
"607 445 OFFCURVE",
"570 379 CURVE SMOOTH",
"524 297 OFFCURVE",
"485 270 OFFCURVE",
"441 270 CURVE SMOOTH",
"420 270 OFFCURVE",
"386 276 OFFCURVE",
"386 323 CURVE SMOOTH",
"386 350 OFFCURVE",
"394 443 OFFCURVE",
"423 564 CURVE SMOOTH",
"445 657 OFFCURVE",
"465 724 OFFCURVE",
"507 790 CURVE SMOOTH",
"526 820 OFFCURVE",
"558 863 OFFCURVE",
"610 863 CURVE SMOOTH"
);
}
);
width = 1069;
}
);
note = b;
unicode = 0062;
},
{
glyphname = c;
lastChange = "2018-04-02 22:11:12 +0000";
layers = (
{
anchors = (
{
name = bottom;
position = "{279, 0}";
},
{
name = top;
position = "{567, 1069}";
}
);
layerId = "9047BFCD-DDCC-4357-AC30-29E5270711EF";
paths = (
{
closed = 1;
nodes = (
"416 -20 OFFCURVE",
"470 -7 OFFCURVE",
"520 20 CURVE",
"520 106 LINE",
"467 79 OFFCURVE",
"420 66 OFFCURVE",
"375 66 CURVE SMOOTH",
"266 66 OFFCURVE",
"217 141 OFFCURVE",
"217 302 CURVE SMOOTH",
"217 397 OFFCURVE",
"234 522 OFFCURVE",
"267 642 CURVE SMOOTH",
"331 876 OFFCURVE",
"434 1016 OFFCURVE",
"565 1016 CURVE SMOOTH",
"600 1016 OFFCURVE",
"639 1006 OFFCURVE",
"674 987 CURVE",
"713 1073 LINE",
"673 1096 OFFCURVE",
"620 1106 OFFCURVE",
"573 1106 CURVE SMOOTH",
"483 1106 OFFCURVE",
"407 1069 OFFCURVE",
"345 1004 CURVE SMOOTH",
"212 864 OFFCURVE",
"119 571 OFFCURVE",
"119 317 CURVE SMOOTH",
"119 90 OFFCURVE",
"193 -20 OFFCURVE",
"359 -20 CURVE SMOOTH"
);
}
);
width = 588;
},
{
anchors = (
{
name = bottom;
position = "{353, 0}";
},
{
name = top;
position = "{593, 1127}";
}
);
background = {
paths = (
{
closed = 1;
nodes = (
"483 -20 OFFCURVE",
"561 -2 OFFCURVE",
"653 48 CURVE",
"699 365 LINE",
"609 307 OFFCURVE",
"514 270 OFFCURVE",
"439 270 CURVE SMOOTH",
"395 270 OFFCURVE",
"378 279 OFFCURVE",
"365 316 CURVE SMOOTH",
"365 374 OFFCURVE",
"372 445 OFFCURVE",
"391 533 CURVE SMOOTH",
"413 640 OFFCURVE",
"443 720 OFFCURVE",
"474 757 CURVE SMOOTH",
"500 819 OFFCURVE",
"546 860 OFFCURVE",
"611 860 CURVE SMOOTH",
"643 860 OFFCURVE",
"691 850 OFFCURVE",
"742 811 CURVE",
"869 1054 LINE",
"791 1111 OFFCURVE",
"693 1148 OFFCURVE",
"572 1148 CURVE SMOOTH",
"310 1148 OFFCURVE",
"137 980 OFFCURVE",
"56 601 CURVE SMOOTH",
"-31 187 OFFCURVE",
"94 -20 OFFCURVE",
"391 -20 CURVE SMOOTH"
);
}
);
};
layerId = "055178C8-6F6F-4B48-86C1-608D4439D248";
paths = (
{
closed = 1;
nodes = (
"482 -20 OFFCURVE",
"561 -2 OFFCURVE",
"653 48 CURVE",
"699 365 LINE",
"608 304 OFFCURVE",
"490 270 OFFCURVE",
"443 270 CURVE SMOOTH",
"395 270 OFFCURVE",
"365 304 OFFCURVE",
"365 346 CURVE SMOOTH",
"365 394 OFFCURVE",
"372 445 OFFCURVE",
"391 533 CURVE SMOOTH",
"412 632 OFFCURVE",
"436 699 OFFCURVE",
"471 759 CURVE SMOOTH",
"505 817 OFFCURVE",
"544 860 OFFCURVE",
"611 860 CURVE SMOOTH",
"643 860 OFFCURVE",
"691 850 OFFCURVE",
"742 811 CURVE",
"869 1054 LINE",
"791 1111 OFFCURVE",
"693 1148 OFFCURVE",
"572 1148 CURVE SMOOTH",
"317 1148 OFFCURVE",
"136 985 OFFCURVE",
"56 601 CURVE SMOOTH",
"38 514 OFFCURVE",
"29 437 OFFCURVE",
"29 368 CURVE SMOOTH",
"29 109 OFFCURVE",
"155 -20 OFFCURVE",
"393 -20 CURVE SMOOTH"
);
}
);
width = 813;
}
);
note = c;
unicode = 0063;
},
{
glyphname = d;
lastChange = "2018-04-02 22:13:28 +0000";
layers = (
{
anchors = (
{
name = bottom;
position = "{294, 0}";
},
{
name = center;
position = "{409, 543}";
},
{
name = top;
position = "{524, 1085}";
},
{
name = topright;
position = "{1242, 1556}";
}
);
layerId = "9047BFCD-DDCC-4357-AC30-29E5270711EF";
paths = (
{
closed = 1;
nodes = (
"410 -20 OFFCURVE",
"493 39 OFFCURVE",
"569 156 CURVE",
"573 156 LINE",
"555 0 LINE",
"631 0 LINE",
"961 1556 LINE",
"866 1556 LINE",
"741 954 LINE",
"735 954 LINE",
"719 1045 OFFCURVE",
"653 1106 OFFCURVE",
"561 1106 CURVE SMOOTH",
"482 1106 OFFCURVE",
"410 1069 OFFCURVE",
"344 994 CURVE SMOOTH",
"211 844 OFFCURVE",
"119 541 OFFCURVE",
"119 262 CURVE SMOOTH",
"119 74 OFFCURVE",
"186 -20 OFFCURVE",
"319 -20 CURVE SMOOTH"
);
},
{
closed = 1;
nodes = (
"247 63 OFFCURVE",
"217 127 OFFCURVE",
"217 248 CURVE SMOOTH",
"217 363 OFFCURVE",
"234 486 OFFCURVE",
"268 617 CURVE SMOOTH",
"336 878 OFFCURVE",
"440 1016 OFFCURVE",
"557 1016 CURVE SMOOTH",
"652 1016 OFFCURVE",
"692 957 OFFCURVE",
"692 844 CURVE SMOOTH",
"692 723 OFFCURVE",
"674 597 OFFCURVE",
"638 466 CURVE SMOOTH",
"566 202 OFFCURVE",
"458 63 OFFCURVE",
"338 63 CURVE SMOOTH"
);
}
);
width = 817;
},
{
anchors = (
{
name = bottom;
position = "{415, 0}";
},
{
name = center;
position = "{535, 564}";
},
{
name = top;
position = "{655, 1127}";
},
{
name = topright;
position = "{1169, 1127}";
}
);
background = {
paths = (
{
closed = 1;
nodes = (
"402 -20 OFFCURVE",
"494 6 OFFCURVE",
"583 128 CURVE",
"597 141 LINE",
"624 0 LINE",
"869 0 LINE",
"1199 1556 LINE",
"859 1556 LINE",
"793 1248 LINE SMOOTH",
"782 1192 OFFCURVE",
"772 1121 OFFCURVE",
"756 995 CURVE",
"722 968 LINE",
"688 1085 OFFCURVE",
"632 1148 OFFCURVE",
"520 1148 CURVE SMOOTH",
"319 1148 OFFCURVE",
"159 935 OFFCURVE",
"87 595 CURVE SMOOTH",
"7 217 OFFCURVE",
"104 -20 OFFCURVE",
"327 -20 CURVE SMOOTH"
);
},
{
closed = 1;
nodes = (
"434 266 OFFCURVE",
"413 269 OFFCURVE",
"398 299 CURVE SMOOTH",
"395 359 OFFCURVE",
"404 437 OFFCURVE",
"423 524 CURVE SMOOTH",
"448 644 OFFCURVE",
"481 723 OFFCURVE",
"504 752 CURVE SMOOTH",
"528 815 OFFCURVE",
"572 857 OFFCURVE",
"627 857 CURVE SMOOTH",
"647 857 OFFCURVE",
"672 854 OFFCURVE",
"685 824 CURVE SMOOTH",
"686 763 OFFCURVE",
"668 674 OFFCURVE",
"647 573 CURVE SMOOTH",
"641 549 LINE SMOOTH",
"622 455 OFFCURVE",
"584 359 OFFCURVE",
"561 339 CURVE SMOOTH",
"544 296 OFFCURVE",
"500 266 OFFCURVE",
"454 266 CURVE SMOOTH"
);
}
);
};
layerId = "055178C8-6F6F-4B48-86C1-608D4439D248";
paths = (
{
closed = 1;
nodes = (
"419 -20 OFFCURVE",
"520 19 OFFCURVE",
"589 141 CURVE",
"597 141 LINE",
"624 0 LINE",
"869 0 LINE",
"1199 1556 LINE",
"859 1556 LINE",
"793 1248 LINE SMOOTH",
"782 1195 OFFCURVE",
"756 1063 OFFCURVE",
"744 968 CURVE",
"736 968 LINE",
"701 1089 OFFCURVE",
"628 1148 OFFCURVE",
"521 1148 CURVE SMOOTH",
"323 1148 OFFCURVE",
"162 945 OFFCURVE",
"87 595 CURVE SMOOTH",
"68 507 OFFCURVE",
"59 426 OFFCURVE",
"59 354 CURVE SMOOTH",
"59 119 OFFCURVE",
"156 -20 OFFCURVE",
"327 -20 CURVE SMOOTH"
);
},
{
closed = 1;
nodes = (
"406 266 OFFCURVE",
"397 294 OFFCURVE",
"397 338 CURVE SMOOTH",
"397 399 OFFCURVE",
"415 486 OFFCURVE",
"423 524 CURVE SMOOTH",
"448 644 OFFCURVE",
"484 722 OFFCURVE",
"501 753 CURVE SMOOTH",
"539 822 OFFCURVE",
"589 857 OFFCURVE",
"632 857 CURVE SMOOTH",
"669 857 OFFCURVE",
"684 829 OFFCURVE",
"684 792 CURVE SMOOTH",
"684 740 OFFCURVE",
"655 607 OFFCURVE",
"647 573 CURVE SMOOTH",
"619 452 OFFCURVE",
"596 386 OFFCURVE",
"564 337 CURVE SMOOTH",
"534 291 OFFCURVE",
"500 266 OFFCURVE",
"450 266 CURVE SMOOTH"
);
}
);
width = 1069;
}
);
note = d;
unicode = 0064;
},
{
glyphname = eth;
lastChange = "2018-04-02 22:19:31 +0000";
layers = (
{
layerId = "9047BFCD-DDCC-4357-AC30-29E5270711EF";
paths = (
{
closed = 1;
nodes = (
"756 1069 OFFCURVE",
"722 1209 OFFCURVE",
"610 1370 CURVE",
"821 1495 LINE",
"791 1548 LINE",
"569 1419 LINE",
"506 1481 OFFCURVE",
"442 1532 OFFCURVE",
"377 1573 CURVE",
"324 1513 LINE",
"397 1460 OFFCURVE",
"448 1415 OFFCURVE",
"479 1378 CURVE",
"264 1253 LINE",
"297 1194 LINE",
"524 1329 LINE",
"636 1202 OFFCURVE",
"678 1034 OFFCURVE",
"678 715 CURVE",
"669 785 OFFCURVE",
"659 832 OFFCURVE",
"644 864 CURVE SMOOTH",
"621 913 OFFCURVE",
"571 954 OFFCURVE",
"488 954 CURVE SMOOTH",
"415 954 OFFCURVE",
"345 923 OFFCURVE",
"288 867 CURVE SMOOTH",
"167 748 OFFCURVE",
"80 491 OFFCURVE",
"80 289 CURVE SMOOTH",
"80 85 OFFCURVE",
"168 -20 OFFCURVE",
"312 -20 CURVE SMOOTH",
"400 -20 OFFCURVE",
"479 19 OFFCURVE",
"545 96 CURVE SMOOTH",
"680 254 OFFCURVE",
"756 562 OFFCURVE",
"756 866 CURVE SMOOTH"
);
},
{
closed = 1;
nodes = (
"224 66 OFFCURVE",
"178 135 OFFCURVE",
"178 291 CURVE SMOOTH",
"178 380 OFFCURVE",
"193 479 OFFCURVE",
"222 574 CURVE SMOOTH",
"280 764 OFFCURVE",
"373 864 OFFCURVE",
"484 864 CURVE SMOOTH",
"580 864 OFFCURVE",
"629 790 OFFCURVE",
"629 632 CURVE SMOOTH",
"629 544 OFFCURVE",
"614 443 OFFCURVE",
"585 350 CURVE SMOOTH",
"526 161 OFFCURVE",
"428 66 OFFCURVE",
"318 66 CURVE SMOOTH"
);
}
);
width = 770;
},
{
background = {
paths = (
{
closed = 1;
nodes = (
"1078 867 OFFCURVE",
"1040 1096 OFFCURVE",
"901 1271 CURVE",
"1103 1395 LINE",
"1018 1573 LINE",
"762 1410 LINE",
"713 1455 OFFCURVE",
"633 1510 OFFCURVE",
"524 1570 CURVE",
"389 1385 LINE",
"469 1340 OFFCURVE",
"518 1309 OFFCURVE",
"545 1290 CURVE",
"298 1146 LINE",
"387 968 LINE",
"668 1141 LINE",
"723 1069 OFFCURVE",
"756 996 OFFCURVE",
"769 911 CURVE",
"734 881 LINE",
"694 956 OFFCURVE",
"636 1007 OFFCURVE",
"551 1007 CURVE SMOOTH",
"300 1007 OFFCURVE",
"121 828 OFFCURVE",
"55 518 CURVE SMOOTH",
"-15 186 OFFCURVE",
"132 -20 OFFCURVE",
"437 -20 CURVE SMOOTH",
"723 -20 OFFCURVE",
"938 206 OFFCURVE",
"1014 564 CURVE SMOOTH"
);
},
{
closed = 1;
nodes = (
"626 378 OFFCURVE",
"559 268 OFFCURVE",
"453 268 CURVE SMOOTH",
"380 268 OFFCURVE",
"364 328 OFFCURVE",
"393 464 CURVE SMOOTH",
"432 648 OFFCURVE",
"495 745 OFFCURVE",
"607 745 CURVE SMOOTH",
"670 745 OFFCURVE",
"693 691 OFFCURVE",
"669 579 CURVE SMOOTH"
);
}
);
};
layerId = "055178C8-6F6F-4B48-86C1-608D4439D248";
paths = (
{
closed = 1;
nodes = (
"38 124 OFFCURVE",
"187 -20 OFFCURVE",
"428 -20 CURVE SMOOTH",
"734 -20 OFFCURVE",
"938 212 OFFCURVE",
"1014 564 CURVE SMOOTH",
"1034 657 OFFCURVE",
"1044 750 OFFCURVE",
"1044 828 CURVE SMOOTH",
"1044 1012 OFFCURVE",
"993 1162 OFFCURVE",
"891 1283 CURVE SMOOTH",
"882 1293 LINE",
"1104 1412 LINE",
"1012 1584 LINE",
"732 1434 LINE",
"683 1473 OFFCURVE",
"613 1521 OFFCURVE",
"524 1570 CURVE",
"389 1385 LINE",
"441 1356 OFFCURVE",
"480 1332 OFFCURVE",
"509 1314 CURVE",
"278 1191 LINE",
"369 1019 LINE",
"658 1174 LINE",
"669 1158 LINE SMOOTH",
"722 1078 OFFCURVE",
"760 971 OFFCURVE",
"763 881 CURVE",
"755 881 LINE",
"703 974 OFFCURVE",
"631 1007 OFFCURVE",
"534 1007 CURVE SMOOTH",
"234 1007 OFFCURVE",
"38 682 OFFCURVE",
"38 364 CURVE SMOOTH"
);
},
{
closed = 1;
nodes = (
"379 392 OFFCURVE",
"380 436 OFFCURVE",
"387 478 CURVE SMOOTH",
"408 607 OFFCURVE",
"480 745 OFFCURVE",
"601 745 CURVE SMOOTH",
"654 745 OFFCURVE",
"678 719 OFFCURVE",
"678 655 CURVE SMOOTH",
"678 530 OFFCURVE",
"587 268 OFFCURVE",
"454 268 CURVE SMOOTH",
"417 268 OFFCURVE",
"379 288 OFFCURVE",
"379 359 CURVE SMOOTH"
);
}
);
width = 1079;
}
);
note = eth;
unicode = 00F0;
},
{
glyphname = dcaron;
lastChange = "2018-04-02 22:25:25 +0000";
layers = (
{
background = {
paths = (
{
closed = 1;
nodes = (
"410 -20 OFFCURVE",
"493 39 OFFCURVE",
"569 156 CURVE",
"573 156 LINE",
"555 0 LINE",
"631 0 LINE",
"961 1556 LINE",
"866 1556 LINE",
"741 954 LINE",
"735 954 LINE",
"719 1045 OFFCURVE",
"653 1106 OFFCURVE",
"561 1106 CURVE SMOOTH",
"482 1106 OFFCURVE",
"410 1069 OFFCURVE",
"344 994 CURVE SMOOTH",
"211 844 OFFCURVE",
"119 541 OFFCURVE",
"119 262 CURVE SMOOTH",
"119 74 OFFCURVE",
"186 -20 OFFCURVE",
"319 -20 CURVE SMOOTH"
);
},
{
closed = 1;
nodes = (
"247 63 OFFCURVE",
"217 127 OFFCURVE",
"217 248 CURVE SMOOTH",
"217 363 OFFCURVE",
"234 486 OFFCURVE",
"268 617 CURVE SMOOTH",
"336 878 OFFCURVE",
"440 1016 OFFCURVE",
"557 1016 CURVE SMOOTH",
"652 1016 OFFCURVE",
"692 957 OFFCURVE",
"692 844 CURVE SMOOTH",
"692 723 OFFCURVE",
"674 597 OFFCURVE",
"638 466 CURVE SMOOTH",
"566 202 OFFCURVE",
"458 63 OFFCURVE",
"338 63 CURVE SMOOTH"
);
},
{
closed = 1;
nodes = (
"1064 1229 LINE",
"1117 1293 OFFCURVE",
"1214 1456 OFFCURVE",
"1245 1536 CURVE",
"1245 1556 LINE",
"1138 1556 LINE",
"1117 1485 OFFCURVE",
"1079 1381 OFFCURVE",
"1024 1245 CURVE",
"1024 1229 LINE"
);
}
);
};
components = (
{
name = d;
},
{
name = caron.alt;
transform = "{1, 0, 0, 1, 872, 0}";
}
);
layerId = "9047BFCD-DDCC-4357-AC30-29E5270711EF";
width = 817;
},
{
components = (
{
name = d;
},
{
name = caron.alt;
transform = "{1, 0, 0, 1, 1000, 0}";
}
);
layerId = "055178C8-6F6F-4B48-86C1-608D4439D248";
width = 1069;
}
);
note = dcaron;
unicode = 010F;
},
{
glyphname = dcroat;
lastChange = "2018-04-02 22:28:21 +0000";
layers = (
{
layerId = "9047BFCD-DDCC-4357-AC30-29E5270711EF";
paths = (
{
closed = 1;
nodes = (
"410 -20 OFFCURVE",
"493 39 OFFCURVE",
"569 156 CURVE",
"573 156 LINE",
"555 0 LINE",
"631 0 LINE",
"901 1278 LINE",
"1022 1278 LINE",
"1040 1362 LINE",
"918 1362 LINE",
"961 1556 LINE",
"866 1556 LINE",
"825 1362 LINE",
"612 1362 LINE",
"594 1278 LINE",
"807 1278 LINE",
"741 954 LINE",
"735 954 LINE",
"719 1045 OFFCURVE",
"653 1106 OFFCURVE",
"561 1106 CURVE SMOOTH",
"482 1106 OFFCURVE",
"410 1069 OFFCURVE",
"344 994 CURVE SMOOTH",
"211 844 OFFCURVE",
"119 541 OFFCURVE",
"119 262 CURVE SMOOTH",
"119 74 OFFCURVE",
"186 -20 OFFCURVE",
"319 -20 CURVE SMOOTH"
);
},
{
closed = 1;
nodes = (
"247 63 OFFCURVE",
"217 127 OFFCURVE",
"217 248 CURVE SMOOTH",
"217 363 OFFCURVE",
"234 486 OFFCURVE",
"268 617 CURVE SMOOTH",
"336 878 OFFCURVE",
"440 1016 OFFCURVE",
"557 1016 CURVE SMOOTH",
"652 1016 OFFCURVE",
"692 957 OFFCURVE",
"692 844 CURVE SMOOTH",
"692 723 OFFCURVE",
"674 597 OFFCURVE",
"638 466 CURVE SMOOTH",
"566 202 OFFCURVE",
"458 63 OFFCURVE",
"338 63 CURVE SMOOTH"
);
}
);
width = 817;
},
{
anchors = (
{
name = bottom;
position = "{415, 0}";
},
{
name = center;
position = "{535, 564}";
},
{
name = top;
position = "{655, 1127}";
},
{
name = topright;
position = "{1169, 1127}";
}
);
background = {
paths = (
{
closed = 1;
nodes = (
"353 -20 OFFCURVE",
"440 18 OFFCURVE",
"523 128 CURVE",
"540 141 LINE",
"561 0 LINE",
"807 0 LINE",
"1055 1172 LINE",
"1181 1172 LINE",
"1231 1405 LINE",
"1105 1405 LINE",
"1137 1556 LINE",
"797 1556 LINE",
"765 1405 LINE",
"535 1405 LINE",
"486 1172 LINE",
"719 1187 LINE",
"709 1142 OFFCURVE",
"693 1031 OFFCURVE",
"680 926 CURVE",
"646 899 LINE",
"613 1019 OFFCURVE",
"553 1076 OFFCURVE",
"443 1076 CURVE SMOOTH",
"242 1076 OFFCURVE",
"85 876 OFFCURVE",
"17 558 CURVE SMOOTH",
"-59 199 OFFCURVE",
"45 -20 OFFCURVE",
"263 -20 CURVE SMOOTH"
);
},
{
closed = 1;
nodes = (
"369 266 OFFCURVE",
"347 271 OFFCURVE",
"330 293 CURVE SMOOTH",
"327 346 OFFCURVE",
"337 420 OFFCURVE",
"353 494 CURVE SMOOTH",
"392 683 OFFCURVE",
"465 788 OFFCURVE",
"553 788 CURVE SMOOTH",
"576 788 OFFCURVE",
"603 782 OFFCURVE",
"614 753 CURVE SMOOTH",
"611 706 OFFCURVE",
"601 649 OFFCURVE",
"584 568 CURVE SMOOTH",
"578 540 LINE SMOOTH",
"543 375 OFFCURVE",
"495 266 OFFCURVE",
"394 266 CURVE SMOOTH"
);
}
);
};
layerId = "055178C8-6F6F-4B48-86C1-608D4439D248";
paths = (
{
closed = 1;
nodes = (
"-1 119 OFFCURVE",
"96 -20 OFFCURVE",
"267 -20 CURVE SMOOTH",
"359 -20 OFFCURVE",
"460 19 OFFCURVE",
"529 141 CURVE",
"537 141 LINE",
"564 0 LINE",
"809 0 LINE",
"1057.348 1171 LINE",
"1182 1171 LINE",
"1232 1404 LINE",
"1106.763 1404 LINE",
"1139 1556 LINE",
"799 1556 LINE",
"766.37 1404 LINE",
"536 1404 LINE",
"486 1171 LINE",
"716.538 1171 LINE",
"704.402 1110.439 OFFCURVE",
"682.869 994.043 OFFCURVE",
"672 908 CURVE",
"664 908 LINE",
"637 1029 OFFCURVE",
"561 1088 OFFCURVE",
"448 1088 CURVE SMOOTH",
"250 1088 OFFCURVE",
"95 915 OFFCURVE",
"21 565 CURVE SMOOTH",
"2 477 OFFCURVE",
"-1 426 OFFCURVE",
"-1 354 CURVE SMOOTH"
);
},
{
closed = 1;
nodes = (
"337 390 OFFCURVE",
"348 456 OFFCURVE",
"357 494 CURVE SMOOTH",
"382 614 OFFCURVE",
"411 662 OFFCURVE",
"428 693 CURVE SMOOTH",
"465 763 OFFCURVE",
"516 797 OFFCURVE",
"559 797 CURVE SMOOTH",
"596 797 OFFCURVE",
"611 774 OFFCURVE",
"611 732 CURVE SMOOTH",
"611 680 OFFCURVE",
"588 577 OFFCURVE",
"581 543 CURVE SMOOTH",
"555 422 OFFCURVE",
"545 386 OFFCURVE",
"504 337 CURVE SMOOTH",
"471 297 OFFCURVE",
"430 266 OFFCURVE",
"390 266 CURVE SMOOTH",
"346 266 OFFCURVE",
"337 294 OFFCURVE",
"337 338 CURVE SMOOTH"
);
}
);
width = 1069;
}
);
note = dcroat;
unicode = 0111;
},
{
glyphname = e;
lastChange = "2018-04-02 20:51:00 +0000";
layers = (
{
anchors = (
{
name = bottom;
position = "{347, 0}";
},
{
name = ogonek;
position = "{476, 10}";
},
{
name = top;
position = "{557, 1085}";
}
);
layerId = "9047BFCD-DDCC-4357-AC30-29E5270711EF";
paths = (
{
closed = 1;
nodes = (
"458 -20 OFFCURVE",
"528 -4 OFFCURVE",
"584 27 CURVE",
"584 123 LINE",
"513 82 OFFCURVE",
"464 66 OFFCURVE",
"401 66 CURVE SMOOTH",
"278 66 OFFCURVE",
"217 146 OFFCURVE",
"217 307 CURVE SMOOTH",
"217 374 OFFCURVE",
"224 440 OFFCURVE",
"238 506 CURVE",
"250 506 LINE SMOOTH",
"352 506 OFFCURVE",
"440 521 OFFCURVE",
"514 551 CURVE SMOOTH",
"661 611 OFFCURVE",
"743 739 OFFCURVE",
"743 903 CURVE SMOOTH",
"743 1039 OFFCURVE",
"677 1106 OFFCURVE",
"561 1106 CURVE SMOOTH",
"485 1106 OFFCURVE",
"413 1069 OFFCURVE",
"344 996 CURVE SMOOTH",
"206 849 OFFCURVE",
"119 582 OFFCURVE",
"119 297 CURVE SMOOTH",
"119 97 OFFCURVE",
"213 -20 OFFCURVE",
"373 -20 CURVE SMOOTH"
);
},
{
closed = 1;
nodes = (
"624 1018 OFFCURVE",
"649 976 OFFCURVE",
"649 905 CURVE SMOOTH",
"649 694 OFFCURVE",
"516 588 OFFCURVE",
"250 588 CURVE",
"311 847 OFFCURVE",
"426 1018 OFFCURVE",
"545 1018 CURVE SMOOTH"
);
}
);
width = 723;
},
{
anchors = (
{
name = bottom;
position = "{409, 0}";
},
{
name = ogonek;
position = "{643, 10}";
},
{
name = top;
position = "{629, 1127}";
}
);
layerId = "055178C8-6F6F-4B48-86C1-608D4439D248";
paths = (
{
closed = 1;
nodes = (
"566 -20 OFFCURVE",
"696 1 OFFCURVE",
"800 55 CURVE",
"838 343 LINE",
"733 287 OFFCURVE",
"623 248 OFFCURVE",
"523 248 CURVE SMOOTH",
"428 248 OFFCURVE",
"376 283 OFFCURVE",
"376 382 CURVE SMOOTH",
"376 402 OFFCURVE",
"378 425 OFFCURVE",
"383 451 CURVE",
"691 459 OFFCURVE",
"788 484 OFFCURVE",
"860 534 CURVE SMOOTH",
"911 570 OFFCURVE",
"980 637 OFFCURVE",
"980 787 CURVE SMOOTH",
"980 1001 OFFCURVE",
"843 1148 OFFCURVE",
"620 1148 CURVE SMOOTH",
"347 1148 OFFCURVE",
"140 944 OFFCURVE",
"65 584 CURVE SMOOTH",
"51 517 OFFCURVE",
"44 454 OFFCURVE",
"44 397 CURVE SMOOTH",
"44 130 OFFCURVE",
"190 -20 OFFCURVE",
"464 -20 CURVE SMOOTH"
);
},
{
closed = 1;
nodes = (
"655 892 OFFCURVE",
"702 862 OFFCURVE",
"702 798 CURVE SMOOTH",
"702 708 OFFCURVE",
"606 682 OFFCURVE",
"429 681 CURVE",
"462 811 OFFCURVE",
"534 892 OFFCURVE",
"609 892 CURVE SMOOTH"
);
}
);
width = 1002;
}
);
note = e;
unicode = 0065;
},
{
glyphname = f;
lastChange = "2018-04-02 22:29:25 +0000";
layers = (
{
anchors = (
{
name = bottom;
position = "{89, 0}";
},
{
name = top;
position = "{319, 1085}";
}
);
layerId = "9047BFCD-DDCC-4357-AC30-29E5270711EF";
paths = (
{
closed = 1;
nodes = (
"-7 -492 OFFCURVE",
"38 -446 OFFCURVE",
"78 -345 CURVE SMOOTH",
"100 -289 OFFCURVE",
"120 -213 OFFCURVE",
"143 -106 CURVE SMOOTH",
"383 1001 LINE",
"526 1001 LINE",
"545 1085 LINE",
"401 1085 LINE",
"431 1230 OFFCURVE",
"449 1306 OFFCURVE",
"467 1359 CURVE SMOOTH",
"495 1441 OFFCURVE",
"521 1475 OFFCURVE",
"585 1475 CURVE SMOOTH",
"614 1475 OFFCURVE",
"640 1468 OFFCURVE",
"668 1454 CURVE",
"709 1542 LINE",
"679 1559 OFFCURVE",
"642 1567 OFFCURVE",
"598 1567 CURVE SMOOTH",
"545 1567 OFFCURVE",
"503 1555 OFFCURVE",
"472 1532 CURVE SMOOTH",
"411 1487 OFFCURVE",
"370 1391 OFFCURVE",
"328 1194 CURVE SMOOTH",
"307 1096 LINE",
"176 1055 LINE",
"166 1001 LINE",
"287 1001 LINE",
"51 -100 LINE SMOOTH",
"32 -187 OFFCURVE",
"18 -245 OFFCURVE",
"4 -286 CURVE SMOOTH",
"-24 -366 OFFCURVE",
"-50 -401 OFFCURVE",
"-122 -401 CURVE SMOOTH",
"-146 -401 OFFCURVE",
"-176 -397 OFFCURVE",
"-201 -389 CURVE",
"-201 -481 LINE",
"-176 -488 OFFCURVE",
"-146 -492 OFFCURVE",
"-114 -492 CURVE SMOOTH"
);
}
);
width = 408;
},
{
anchors = (
{
name = bottom;
position = "{220, 0}";
},
{
name = top;
position = "{460, 1127}";
}
);
layerId = "055178C8-6F6F-4B48-86C1-608D4439D248";
paths = (
{
closed = 1;
nodes = (
"-294 -468 OFFCURVE",
"-210 -492 OFFCURVE",
"-111 -492 CURVE SMOOTH",
"107 -492 OFFCURVE",
"252 -378 OFFCURVE",
"300 -150 CURVE SMOOTH",
"512 861 LINE",
"702 861 LINE",
"758 1127 LINE",
"568 1127 LINE",
"582 1190 LINE SMOOTH",
"592 1236 OFFCURVE",
"626 1286 OFFCURVE",
"669 1286 CURVE SMOOTH",
"718 1286 OFFCURVE",
"747 1284 OFFCURVE",
"786 1267 CURVE",
"903 1507 LINE",
"840 1543 OFFCURVE",
"756 1567 OFFCURVE",
"657 1567 CURVE SMOOTH",
"439 1567 OFFCURVE",
"299 1453 OFFCURVE",
"246 1225 CURVE SMOOTH",
"223 1125 LINE",
"78 1027 LINE",
"46 861 LINE",
"171 861 LINE",
"-36 -115 LINE SMOOTH",
"-46 -161 OFFCURVE",
"-80 -211 OFFCURVE",
"-123 -211 CURVE SMOOTH",
"-172 -211 OFFCURVE",
"-201 -209 OFFCURVE",
"-240 -192 CURVE",
"-357 -432 LINE"
);
}
);
width = 680;
}
);
note = f;
unicode = 0066;
},
{
glyphname = g;
lastChange = "2018-04-02 22:31:54 +0000";
layers = (
{
anchors = (
{
name = bottom;
position = "{219, 0}";
},
{
name = top;
position = "{529, 1085}";
}
);
layerId = "9047BFCD-DDCC-4357-AC30-29E5270711EF";
paths = (
{
closed = 1;
nodes = (
"591 1099 OFFCURVE",
"558 1106 OFFCURVE",
"520 1106 CURVE SMOOTH",
"455 1106 OFFCURVE",
"398 1086 OFFCURVE",
"349 1046 CURVE SMOOTH",
"248 964 OFFCURVE",
"174 790 OFFCURVE",
"174 631 CURVE SMOOTH",
"174 532 OFFCURVE",
"203 467 OFFCURVE",
"260 418 CURVE",
"149 339 OFFCURVE",
"113 277 OFFCURVE",
"113 211 CURVE SMOOTH",
"113 161 OFFCURVE",
"134 124 OFFCURVE",
"176 96 CURVE",
"20 25 OFFCURVE",
"-74 -89 OFFCURVE",
"-74 -240 CURVE SMOOTH",
"-74 -397 OFFCURVE",
"27 -492 OFFCURVE",
"204 -492 CURVE SMOOTH",
"426 -492 OFFCURVE",
"582 -344 OFFCURVE",
"582 -129 CURVE SMOOTH",
"582 9 OFFCURVE",
"518 77 OFFCURVE",
"354 129 CURVE SMOOTH",
"287 150 OFFCURVE",
"247 164 OFFCURVE",
"236 170 CURVE SMOOTH",
"214 182 OFFCURVE",
"203 201 OFFCURVE",
"203 228 CURVE SMOOTH",
"203 279 OFFCURVE",
"243 329 OFFCURVE",
"328 389 CURVE",
"336 388 OFFCURVE",
"361 387 OFFCURVE",
"375 387 CURVE SMOOTH",
"434 387 OFFCURVE",
"489 409 OFFCURVE",
"538 453 CURVE SMOOTH",
"635 540 OFFCURVE",
"700 710 OFFCURVE",
"700 858 CURVE SMOOTH",
"700 915 OFFCURVE",
"690 963 OFFCURVE",
"670 1001 CURVE",
"807 1018 LINE",
"821 1085 LINE",
"614 1085 LINE"
);
},
{
closed = 1;
nodes = (
"16 -101 OFFCURVE",
"108 13 OFFCURVE",
"240 59 CURVE",
"330 35 LINE SMOOTH",
"445 4 OFFCURVE",
"494 -64 OFFCURVE",
"494 -156 CURVE SMOOTH",
"494 -298 OFFCURVE",
"379 -414 OFFCURVE",
"207 -414 CURVE SMOOTH",
"83 -414 OFFCURVE",
"16 -354 OFFCURVE",
"16 -238 CURVE SMOOTH"
);
},
{
closed = 1;
nodes = (
"266 669 OFFCURVE",
"277 735 OFFCURVE",
"300 808 CURVE SMOOTH",
"348 958 OFFCURVE",
"418 1028 OFFCURVE",
"500 1028 CURVE SMOOTH",
"570 1028 OFFCURVE",
"606 977 OFFCURVE",
"606 870 CURVE SMOOTH",
"606 811 OFFCURVE",
"595 742 OFFCURVE",
"573 672 CURVE SMOOTH",
"526 524 OFFCURVE",
"457 461 OFFCURVE",
"377 461 CURVE SMOOTH",
"305 461 OFFCURVE",
"266 512 OFFCURVE",
"266 615 CURVE SMOOTH"
);
}
);
width = 668;
},
{
anchors = (
{
name = bottom;
position = "{275, 0}";
},
{
name = top;
position = "{665, 1127}";
}
);
background = {
paths = (
{
closed = 1;
nodes = (
"728 1129 OFFCURVE",
"648 1148 OFFCURVE",
"591 1148 CURVE SMOOTH",
"335 1148 OFFCURVE",
"177 1025 OFFCURVE",
"127 790 CURVE SMOOTH",
"96 640 OFFCURVE",
"135 505 OFFCURVE",
"199 457 CURVE",
"108 389 OFFCURVE",
"66 352 OFFCURVE",
"49 276 CURVE SMOOTH",
"31 185 OFFCURVE",
"78 113 OFFCURVE",
"129 92 CURVE",
"-22 50 OFFCURVE",
"-114 -39 OFFCURVE",
"-136 -144 CURVE SMOOTH",
"-182 -362 OFFCURVE",
"-46 -492 OFFCURVE",
"236 -492 CURVE SMOOTH",
"587 -492 OFFCURVE",
"793 -354 OFFCURVE",
"849 -88 CURVE SMOOTH",
"897 137 OFFCURVE",
"804 254 OFFCURVE",
"618 254 CURVE SMOOTH",
"416 254 LINE SMOOTH",
"335 254 OFFCURVE",
"314 256 OFFCURVE",
"320 284 CURVE SMOOTH",
"329 330 OFFCURVE",
"363 355 OFFCURVE",
"390 362 CURVE",
"397 366 OFFCURVE",
"427 367 OFFCURVE",
"480 367 CURVE SMOOTH",
"728 367 OFFCURVE",
"891 491 OFFCURVE",
"940 725 CURVE SMOOTH",
"955 797 OFFCURVE",
"952 835 OFFCURVE",
"943 880 CURVE",
"1084 929 LINE",
"1124 1123 LINE",
"757 1119 LINE"
);
},
{
closed = 1;
nodes = (
"181 -95 OFFCURVE",
"231 -40 OFFCURVE",
"278 -40 CURVE SMOOTH",
"432 -40 LINE SMOOTH",
"544 -40 OFFCURVE",
"549 -38 OFFCURVE",
"539 -87 CURVE SMOOTH",
"518 -185 OFFCURVE",
"425 -250 OFFCURVE",
"260 -250 CURVE SMOOTH",
"187 -250 OFFCURVE",
"153 -230 OFFCURVE",
"165 -177 CURVE SMOOTH"
);
},
{
closed = 1;
nodes = (
"475 858 OFFCURVE",
"528 926 OFFCURVE",
"596 926 CURVE SMOOTH",
"638 926 OFFCURVE",
"643 889 OFFCURVE",
"620 786 CURVE SMOOTH",
"595 662 OFFCURVE",
"541 592 OFFCURVE",
"475 592 CURVE SMOOTH",
"429 592 OFFCURVE",
"427 632 OFFCURVE",
"449 730 CURVE SMOOTH"
);
}
);
};
layerId = "055178C8-6F6F-4B48-86C1-608D4439D248";
paths = (
{
closed = 1;
nodes = (
"721 1130 OFFCURVE",
"661 1148 OFFCURVE",
"575 1148 CURVE SMOOTH",
"299 1148 OFFCURVE",
"116 919 OFFCURVE",
"116 686 CURVE SMOOTH",
"116 587 OFFCURVE",
"150 493 OFFCURVE",
"199 457 CURVE",
"111 391 OFFCURVE",
"45 329 OFFCURVE",
"45 237 CURVE SMOOTH",
"45 165 OFFCURVE",
"86 110 OFFCURVE",
"129 92 CURVE",
"-39 44 OFFCURVE",
"-145 -68 OFFCURVE",
"-145 -223 CURVE SMOOTH",
"-145 -393 OFFCURVE",
"-20 -492 OFFCURVE",
"254 -492 CURVE SMOOTH",
"571 -492 OFFCURVE",
"789 -360 OFFCURVE",
"849 -88 CURVE SMOOTH",
"858 -49 OFFCURVE",
"862 -11 OFFCURVE",
"862 20 CURVE SMOOTH",
"862 174 OFFCURVE",
"771 254 OFFCURVE",
"618 254 CURVE SMOOTH",
"416 254 LINE SMOOTH",
"343 254 OFFCURVE",
"319 256 OFFCURVE",
"319 276 CURVE SMOOTH",
"319 309 OFFCURVE",
"347 347 OFFCURVE",
"390 362 CURVE SMOOTH",
"398 365 OFFCURVE",
"416 367 OFFCURVE",
"480 367 CURVE SMOOTH",
"726 368 OFFCURVE",
"887 484 OFFCURVE",
"940 725 CURVE SMOOTH",
"948 761 OFFCURVE",
"951 789 OFFCURVE",
"951 813 CURVE SMOOTH",
"951 837 OFFCURVE",
"948 858 OFFCURVE",
"943 880 CURVE",
"1084 929 LINE",
"1124 1119 LINE",
"757 1119 LINE"
);
},
{
closed = 1;
nodes = (
"214 -40 OFFCURVE",
"278 -40 CURVE SMOOTH",
"432 -40 LINE SMOOTH",
"521 -40 OFFCURVE",
"542 -49 OFFCURVE",
"542 -73 CURVE SMOOTH",
"542 -192 OFFCURVE",
"410 -250 OFFCURVE",
"267 -250 CURVE SMOOTH",
"198 -250 OFFCURVE",
"163 -237 OFFCURVE",
"163 -196 CURVE SMOOTH",
"163 -147 OFFCURVE"
);
},
{
closed = 1;
nodes = (
"470 819 OFFCURVE",
"507 926 OFFCURVE",
"593 926 CURVE SMOOTH",
"621 926 OFFCURVE",
"634 915 OFFCURVE",
"634 878 CURVE SMOOTH",
"634 856 OFFCURVE",
"629 826 OFFCURVE",
"620 786 CURVE SMOOTH",
"590 657 OFFCURVE",
"543 592 OFFCURVE",
"477 592 CURVE SMOOTH",
"447 592 OFFCURVE",
"435 606 OFFCURVE",
"435 640 CURVE SMOOTH",
"435 662 OFFCURVE",
"440 691 OFFCURVE",
"449 730 CURVE SMOOTH"
);
}
);
width = 1020;
}
);
note = g;
unicode = 0067;
},
{
glyphname = h;
lastChange = "2018-04-02 22:37:32 +0000";
layers = (
{
anchors = (
{
name = bottom;
position = "{277, 0}";
},
{
name = center;
position = "{392, 543}";
},
{
name = top;
position = "{637, 1485}";
}
);
layerId = "9047BFCD-DDCC-4357-AC30-29E5270711EF";
paths = (
{
closed = 1;
nodes = (
"766 797 LINE SMOOTH",
"775 840 OFFCURVE",
"780 882 OFFCURVE",
"780 916 CURVE SMOOTH",
"780 1039 OFFCURVE",
"716 1106 OFFCURVE",
"606 1106 CURVE SMOOTH",
"504 1106 OFFCURVE",
"424 1049 OFFCURVE",
"362 934 CURVE",
"358 934 LINE",
"399 1102 LINE",
"498 1556 LINE",
"403 1556 LINE",
"74 0 LINE",
"168 0 LINE",
"295 596 LINE SMOOTH",
"354 875 OFFCURVE",
"443 1012 OFFCURVE",
"582 1012 CURVE SMOOTH",
"653 1012 OFFCURVE",
"686 977 OFFCURVE",
"686 896 CURVE SMOOTH",
"686 871 OFFCURVE",
"682 842 OFFCURVE",
"676 815 CURVE SMOOTH",
"504 0 LINE",
"598 0 LINE"
);
}
);
width = 784;
},
{
anchors = (
{
name = bottom;
position = "{309, 0}";
},
{
name = center;
position = "{429, 564}";
},
{
name = top;
position = "{779, 1527}";
}
);
background = {
paths = (
{
closed = 1;
nodes = (
"1049 703 LINE SMOOTH",
"1108 984 OFFCURVE",
"1012 1148 OFFCURVE",
"777 1148 CURVE SMOOTH",
"686 1148 OFFCURVE",
"600 1112 OFFCURVE",
"518 999 CURVE",
"500 972 LINE",
"546 1123 OFFCURVE",
"571 1218 OFFCURVE",
"581 1263 CURVE SMOOTH",
"643 1556 LINE",
"302 1556 LINE",
"-27 0 LINE",
"313 0 LINE",
"419 495 LINE SMOOTH",
"442 608 OFFCURVE",
"473 692 OFFCURVE",
"507 742 CURVE SMOOTH",
"537 817 OFFCURVE",
"591 862 OFFCURVE",
"659 862 CURVE SMOOTH",
"714 862 OFFCURVE",
"723 791 OFFCURVE",
"692 644 CURVE SMOOTH",
"556 0 LINE",
"899 0 LINE"
);
}
);
};
layerId = "055178C8-6F6F-4B48-86C1-608D4439D248";
paths = (
{
closed = 1;
nodes = (
"1049 703 LINE SMOOTH",
"1060 757 OFFCURVE",
"1066 807 OFFCURVE",
"1066 852 CURVE SMOOTH",
"1066 1041 OFFCURVE",
"963 1148 OFFCURVE",
"784 1148 CURVE SMOOTH",
"652 1148 OFFCURVE",
"572 1086 OFFCURVE",
"508 972 CURVE",
"500 972 LINE",
"547 1127 OFFCURVE",
"572 1221 OFFCURVE",
"581 1263 CURVE SMOOTH",
"643 1556 LINE",
"302 1556 LINE",
"-27 0 LINE",
"313 0 LINE",
"419 495 LINE SMOOTH",
"444 613 OFFCURVE",
"474 688 OFFCURVE",
"504 743 CURVE SMOOTH",
"542 813 OFFCURVE",
"589 862 OFFCURVE",
"651 862 CURVE SMOOTH",
"693 862 OFFCURVE",
"710 840 OFFCURVE",
"710 778 CURVE SMOOTH",
"710 741 OFFCURVE",
"704 699 OFFCURVE",
"692 644 CURVE SMOOTH",
"556 0 LINE",
"899 0 LINE"
);
}
);
width = 1110;
}
);
note = h;
unicode = 0068;
},
{
glyphname = hbar;
lastChange = "2018-04-02 22:37:13 +0000";
layers = (
{
layerId = "9047BFCD-DDCC-4357-AC30-29E5270711EF";
paths = (
{
closed = 1;
nodes = (
"766 797 LINE SMOOTH",
"775 840 OFFCURVE",
"780 882 OFFCURVE",
"780 916 CURVE SMOOTH",
"780 1039 OFFCURVE",
"716 1106 OFFCURVE",
"606 1106 CURVE SMOOTH",
"504 1106 OFFCURVE",
"424 1049 OFFCURVE",
"362 934 CURVE",
"358 934 LINE",
"399 1102 LINE",
"436 1278 LINE",
"639 1278 LINE",
"655 1362 LINE",
"455 1362 LINE",
"498 1556 LINE",
"403 1556 LINE",
"360 1362 LINE",
"229 1362 LINE",
"213 1278 LINE",
"344 1278 LINE",
"74 0 LINE",
"168 0 LINE",
"295 596 LINE SMOOTH",
"354 875 OFFCURVE",
"443 1012 OFFCURVE",
"582 1012 CURVE SMOOTH",
"653 1012 OFFCURVE",
"686 977 OFFCURVE",
"686 896 CURVE SMOOTH",
"686 871 OFFCURVE",
"682 842 OFFCURVE",
"676 815 CURVE SMOOTH",
"504 0 LINE",
"598 0 LINE"
);
}
);
width = 782;
},
{
anchors = (
{
name = bottom;
position = "{309, 0}";
},
{
name = center;
position = "{429, 564}";
},
{
name = top;
position = "{679, 1127}";
}
);
background = {
paths = (
{
closed = 1;
nodes = (
"1158 921 OFFCURVE",
"1053 1076 OFFCURVE",
"838 1076 CURVE SMOOTH",
"736 1076 OFFCURVE",
"650 1044 OFFCURVE",
"566 925 CURVE",
"551 899 LINE",
"571 929 OFFCURVE",
"579 954 OFFCURVE",
"583 977 CURVE SMOOTH",
"625 1176 LINE",
"864 1176 LINE",
"913 1407 LINE",
"674 1407 LINE",
"706 1556 LINE",
"365 1556 LINE",
"334 1407 LINE",
"207 1407 LINE",
"158 1176 LINE",
"285 1176 LINE",
"36 0 LINE",
"376 0 LINE",
"473 453 LINE SMOOTH",
"496 565 OFFCURVE",
"528 649 OFFCURVE",
"568 692 CURVE SMOOTH",
"597 752 OFFCURVE",
"645 790 OFFCURVE",
"701 790 CURVE SMOOTH",
"765 790 OFFCURVE",
"772 726 OFFCURVE",
"743 590 CURVE SMOOTH",
"619 0 LINE",
"962 0 LINE",
"1102 658 LINE SMOOTH"
);
}
);
};
layerId = "055178C8-6F6F-4B48-86C1-608D4439D248";
paths = (
{
closed = 1;
nodes = (
"375 0 LINE",
"474 465 LINE SMOOTH",
"499 583 OFFCURVE",
"517 636 OFFCURVE",
"552 691 CURVE SMOOTH",
"595 758 OFFCURVE",
"638 792 OFFCURVE",
"700 792 CURVE SMOOTH",
"720 792 OFFCURVE",
"739 785 OFFCURVE",
"748 766 CURVE SMOOTH",
"756 749 OFFCURVE",
"758 718 OFFCURVE",
"758 688 CURVE SMOOTH",
"758 639 OFFCURVE",
"746 601 OFFCURVE",
"732 534 CURVE SMOOTH",
"618 0 LINE",
"961 0 LINE",
"1102 663 LINE SMOOTH",
"1114 717 OFFCURVE",
"1119 766 OFFCURVE",
"1119 802 CURVE SMOOTH",
"1119 971 OFFCURVE",
"1022 1078 OFFCURVE",
"833 1078 CURVE SMOOTH",
"701 1078 OFFCURVE",
"624 1026 OFFCURVE",
"560 912 CURVE",
"552 912 LINE",
"587.792 1032.604 OFFCURVE",
"610.87 1122.331 OFFCURVE",
"623.59 1176 CURVE",
"864 1176 LINE",
"913 1407 LINE",
"673.289 1407 LINE",
"705 1556 LINE",
"364 1556 LINE",
"332.496 1407 LINE",
"207 1407 LINE",
"158 1176 LINE",
"283.653 1176 LINE",
"35 0 LINE"
);
}
);
width = 1110;
}
);
note = hbar;
unicode = 0127;
},
{
glyphname = i;
lastChange = "2018-04-04 15:29:40 +0000";
layers = (
{
anchors = (
{
name = bottom;
position = "{119, 0}";
}
);
background = {
paths = (
{
closed = 1;
nodes = (
"299 1085 LINE",
"68 0 LINE",
"162 0 LINE",
"393 1085 LINE"
);
},
{
closed = 1;
nodes = (
"346 1313 OFFCURVE",
"362 1292 OFFCURVE",
"395 1292 CURVE SMOOTH",
"443 1292 OFFCURVE",
"475 1347 OFFCURVE",
"475 1423 CURVE SMOOTH",
"475 1462 OFFCURVE",
"459 1481 OFFCURVE",
"428 1481 CURVE SMOOTH",
"380 1481 OFFCURVE",
"346 1424 OFFCURVE",
"346 1356 CURVE SMOOTH"
);
}
);
};
components = (
{
name = idotless;
},
{
name = dotaccentcomb;
transform = "{1, 0, 0, 1, 168, 0}";
}
);
layerId = "9047BFCD-DDCC-4357-AC30-29E5270711EF";
width = 348;
},
{
anchors = (
{
name = bottom;
position = "{152, 0}";
}
);
components = (
{
name = idotless;
},
{
name = dotaccentcomb;
transform = "{1, 0, 0, 1, 109, 0}";
}
);
layerId = "055178C8-6F6F-4B48-86C1-608D4439D248";
width = 544;
}
);
note = i;
unicode = 0069;
},
{
glyphname = idotless;
lastChange = "2018-04-02 19:30:34 +0000";
layers = (
{
anchors = (
{
name = bottom;
position = "{119, 0}";
},
{
name = ogonek;
position = "{161, 10}";
},
{
name = top;
position = "{345, 1085}";
}
);
layerId = "9047BFCD-DDCC-4357-AC30-29E5270711EF";
paths = (
{
closed = 1;
nodes = (
"299 1085 LINE",
"68 0 LINE",
"162 0 LINE",
"393 1085 LINE"
);
}
);
width = 348;
},
{
anchors = (
{
name = bottom;
position = "{33, 0}";
},
{
name = ogonek;
position = "{251, 10}";
},
{
name = top;
position = "{403, 1127}";
}
);
layerId = "055178C8-6F6F-4B48-86C1-608D4439D248";
paths = (
{
closed = 1;
nodes = (
"221 1127 LINE",
"-17 0 LINE",
"323 0 LINE",
"562 1127 LINE"
);
}
);
width = 544;
}
);
note = dotlessi;
unicode = 0131;
},
{
glyphname = j;
lastChange = "2018-04-04 15:29:35 +0000";
layers = (
{
background = {
paths = (
{
closed = 1;
nodes = (
"346 1313 OFFCURVE",
"362 1292 OFFCURVE",
"395 1292 CURVE SMOOTH",
"443 1292 OFFCURVE",
"475 1347 OFFCURVE",
"475 1423 CURVE SMOOTH",
"475 1462 OFFCURVE",
"459 1481 OFFCURVE",
"428 1481 CURVE SMOOTH",
"380 1481 OFFCURVE",
"346 1424 OFFCURVE",
"346 1356 CURVE SMOOTH"
);
},
{
closed = 1;
nodes = (
"30 -183 OFFCURVE",
"14 -245 OFFCURVE",
"0 -286 CURVE SMOOTH",
"-29 -369 OFFCURVE",
"-58 -401 OFFCURVE",
"-121 -401 CURVE SMOOTH",
"-152 -401 OFFCURVE",
"-180 -397 OFFCURVE",
"-205 -389 CURVE",
"-205 -481 LINE",
"-180 -488 OFFCURVE",
"-151 -492 OFFCURVE",
"-117 -492 CURVE SMOOTH",
"-17 -492 OFFCURVE",
"33 -448 OFFCURVE",
"74 -344 CURVE SMOOTH",
"95 -292 OFFCURVE",
"116 -213 OFFCURVE",
"139 -106 CURVE SMOOTH",
"393 1085 LINE",
"299 1085 LINE",
"47 -100 LINE SMOOTH"
);
}
);
};
components = (
{
name = jdotless;
},
{
name = dotaccentcomb;
transform = "{1, 0, 0, 1, 169, 0}";
}
);
layerId = "9047BFCD-DDCC-4357-AC30-29E5270711EF";
width = 348;
},
{
components = (
{
name = jdotless;
},
{
name = dotaccentcomb;
transform = "{1, 0, 0, 1, 208, 0}";
}
);
layerId = "055178C8-6F6F-4B48-86C1-608D4439D248";
width = 549;
}
);
note = j;
unicode = 006A;
},
{
glyphname = jdotless;
lastChange = "2018-04-02 22:38:10 +0000";
layers = (
{
anchors = (
{
name = bottom;
position = "{59, 0}";
},
{
name = top;
position = "{346, 1085}";
}
);
layerId = "9047BFCD-DDCC-4357-AC30-29E5270711EF";
paths = (
{
closed = 1;
nodes = (
"30 -183 OFFCURVE",
"14 -245 OFFCURVE",
"0 -286 CURVE SMOOTH",
"-29 -369 OFFCURVE",
"-58 -401 OFFCURVE",
"-121 -401 CURVE SMOOTH",
"-152 -401 OFFCURVE",
"-180 -397 OFFCURVE",
"-205 -389 CURVE",
"-205 -481 LINE",
"-180 -488 OFFCURVE",
"-151 -492 OFFCURVE",
"-117 -492 CURVE SMOOTH",
"-17 -492 OFFCURVE",
"33 -448 OFFCURVE",
"74 -344 CURVE SMOOTH",
"95 -292 OFFCURVE",
"116 -213 OFFCURVE",
"139 -106 CURVE SMOOTH",
"393 1085 LINE",
"299 1085 LINE",
"47 -100 LINE SMOOTH"
);
}
);
width = 348;
},
{
anchors = (
{
name = bottom;
position = "{132, 0}";
},
{
name = top;
position = "{502, 1127}";
}
);
background = {
paths = (
{
closed = 1;
nodes = (
"199 -492 OFFCURVE",
"351 -360 OFFCURVE",
"403 -114 CURVE SMOOTH",
"666 1127 LINE",
"326 1127 LINE",
"81 -27 LINE SMOOTH",
"70 -82 OFFCURVE",
"44 -128 OFFCURVE",
"18 -143 CURVE SMOOTH",
"1 -179 OFFCURVE",
"-36 -206 OFFCURVE",
"-79 -206 CURVE SMOOTH",
"-95 -206 OFFCURVE",
"-125 -203 OFFCURVE",
"-158 -191 CURVE",
"-191 -457 LINE",
"-150 -477 OFFCURVE",
"-96 -492 OFFCURVE",
"-14 -492 CURVE SMOOTH"
);
}
);
};
layerId = "055178C8-6F6F-4B48-86C1-608D4439D248";
paths = (
{
closed = 1;
nodes = (
"201 -492 OFFCURVE",
"351 -360 OFFCURVE",
"403 -114 CURVE SMOOTH",
"666 1127 LINE",
"326 1127 LINE",
"81 -27 LINE SMOOTH",
"55 -148 OFFCURVE",
"2 -206 OFFCURVE",
"-79 -206 CURVE SMOOTH",
"-97 -206 OFFCURVE",
"-125 -203 OFFCURVE",
"-158 -191 CURVE",
"-191 -457 LINE",
"-150 -477 OFFCURVE",
"-94 -492 OFFCURVE",
"-20 -492 CURVE SMOOTH"
);
}
);
width = 549;
}
);
note = uni0237;
unicode = 0237;
},
{
glyphname = k;
lastChange = "2018-04-04 15:30:47 +0000";
layers = (
{
anchors = (
{
name = bottom;
position = "{265, 0}";
},
{
name = top;
position = "{435, 1085}";
}
);
layerId = "9047BFCD-DDCC-4357-AC30-29E5270711EF";
paths = (
{
closed = 1;
nodes = (
"299 649 OFFCURVE",
"313 712 OFFCURVE",
"319 739 CURVE SMOOTH",
"498 1556 LINE",
"403 1556 LINE",
"72 0 LINE",
"166 0 LINE",
"258 434 LINE",
"385 573 LINE",
"469 0 LINE",
"567 0 LINE",
"471 655 LINE",
"778 1085 LINE",
"676 1085 LINE",
"406 713 LINE SMOOTH",
"371 664 OFFCURVE",
"354 643 OFFCURVE",
"276 549 CURVE",
"274 549 LINE"
);
}
);
width = 639;
},
{
anchors = (
{
name = bottom;
position = "{417, 0}";
},
{
name = top;
position = "{657, 1127}";
}
);
layerId = "055178C8-6F6F-4B48-86C1-608D4439D248";
paths = (
{
closed = 1;
nodes = (
"456 867 LINE",
"601 1556 LINE",
"260 1556 LINE",
"-69 0 LINE",
"271 0 LINE",
"349 350 LINE",
"464 416 LINE",
"558 0 LINE",
"905 0 LINE",
"734 644 LINE",
"1134 1127 LINE",
"767 1127 LINE",
"488 770 LINE",
"392 627 LINE",
"390 627 LINE"
);
}
);
width = 1074;
}
);
note = k;
unicode = 006B;
},
{
glyphname = kgreenlandic;
lastChange = "2018-04-04 15:31:24 +0000";
layers = (
{
anchors = (
{
name = bottom;
position = "{270, 0}";
},
{
name = top;
position = "{510, 1085}";
}
);
layerId = "9047BFCD-DDCC-4357-AC30-29E5270711EF";
paths = (
{
closed = 1;
nodes = (
"319 739 LINE",
"395 1085 LINE",
"303 1085 LINE",
"72 0 LINE",
"166 0 LINE",
"256 424 LINE",
"389 575 LINE",
"469 0 LINE",
"567 0 LINE",
"471 655 LINE",
"778 1085 LINE",
"676 1085 LINE",
"486 823 OFFCURVE",
"353 641 OFFCURVE",
"276 539 CURVE",
"272 539 LINE"
);
}
);
width = 649;
},
{
anchors = (
{
name = bottom;
position = "{417, 0}";
},
{
name = top;
position = "{657, 1127}";
}
);
background = {
paths = (
{
closed = 1;
nodes = (
"699 1043 OFFCURVE",
"652 984 OFFCURVE",
"525 844 CURVE SMOOTH",
"475 763 OFFCURVE",
"447 725 OFFCURVE",
"379 626 CURVE",
"389 600 LINE",
"411 691 OFFCURVE",
"436 776 OFFCURVE",
"453 859 CURVE SMOOTH",
"510 1127 LINE",
"169 1127 LINE",
"-69 0 LINE",
"271 0 LINE",
"349 350 LINE",
"464 416 LINE",
"558 0 LINE",
"905 0 LINE",
"735 648 LINE",
"1134 1127 LINE",
"768 1140 LINE"
);
}
);
};
layerId = "055178C8-6F6F-4B48-86C1-608D4439D248";
paths = (
{
closed = 1;
nodes = (
"170 1127 LINE",
"-69 0 LINE",
"271 0 LINE",
"349 350 LINE",
"464 416 LINE",
"558 0 LINE",
"905 0 LINE",
"734 644 LINE",
"1134 1127 LINE",
"767 1127 LINE",
"488 770 LINE",
"392 627 LINE",
"390 627 LINE",
"456 867 LINE",
"511 1127 LINE"
);
}
);
width = 1074;
}
);
note = kgreenlandic;
unicode = 0138;
},
{
glyphname = l;
lastChange = "2018-04-04 15:38:46 +0000";
layers = (
{
anchors = (
{
name = bottom;
position = "{78, 0}";
},
{
name = center;
position = "{173, 543}";
},
{
name = top;
position = "{455, 1556}";
},
{
name = topright;
position = "{758, 1556}";
}
);
layerId = "9047BFCD-DDCC-4357-AC30-29E5270711EF";
paths = (
{
closed = 1;
nodes = (
"403 1556 LINE",
"72 0 LINE",
"166 0 LINE",
"498 1556 LINE"
);
}
);
width = 346;
},
{
anchors = (
{
name = bottom;
position = "{117, 0}";
},
{
name = center;
position = "{267, 564}";
},
{
name = top;
position = "{517, 1554}";
},
{
name = topright;
position = "{633, 1127}";
}
);
layerId = "055178C8-6F6F-4B48-86C1-608D4439D248";
paths = (
{
closed = 1;
nodes = (
"306 1556 LINE",
"-23 0 LINE",
"317 0 LINE",
"647 1556 LINE"
);
}
);
width = 533;
}
);
note = l;
unicode = 006C;
},
{
glyphname = lcaron;
lastChange = "2018-04-04 15:32:07 +0000";
layers = (
{
background = {
paths = (
{
closed = 1;
nodes = (
"403 1556 LINE",
"72 0 LINE",
"166 0 LINE",
"498 1556 LINE"
);
},
{
closed = 1;
nodes = (
"575 1229 LINE",
"628 1293 OFFCURVE",
"725 1456 OFFCURVE",
"756 1536 CURVE",
"756 1556 LINE",
"649 1556 LINE",
"628 1485 OFFCURVE",
"590 1381 OFFCURVE",
"535 1245 CURVE",
"535 1229 LINE"
);
}
);
};
components = (
{
name = l;
},
{
name = caron.alt;
transform = "{1, 0, 0, 1, 388, 0}";
}
);
layerId = "9047BFCD-DDCC-4357-AC30-29E5270711EF";
width = 346;
},
{
components = (
{
name = l;
},
{
name = caron.alt;
transform = "{1, 0, 0, 1, 400, 0}";
}
);
layerId = "055178C8-6F6F-4B48-86C1-608D4439D248";
width = 533;
}
);
note = lcaron;
unicode = 013E;
},
{
glyphname = ldot;
lastChange = "2018-04-04 15:39:30 +0000";
layers = (
{
layerId = "9047BFCD-DDCC-4357-AC30-29E5270711EF";
paths = (
{
closed = 1;
nodes = (
"403 1556 LINE",
"72 0 LINE",
"166 0 LINE",
"498 1556 LINE"
);
},
{
closed = 1;
nodes = (
"436 601 OFFCURVE",
"452 580 OFFCURVE",
"485 580 CURVE SMOOTH",
"533 580 OFFCURVE",
"565 635 OFFCURVE",
"565 711 CURVE SMOOTH",
"565 750 OFFCURVE",
"549 769 OFFCURVE",
"518 769 CURVE SMOOTH",
"470 769 OFFCURVE",
"436 712 OFFCURVE",
"436 644 CURVE SMOOTH"
);
}
);
width = 494;
},
{
components = (
{
name = l;
},
{
name = periodcentered;
transform = "{1, 0, 0, 1, 400, 0}";
}
);
layerId = "055178C8-6F6F-4B48-86C1-608D4439D248";
width = 938;
}
);
note = ldot;
unicode = 0140;
},
{
glyphname = lslash;
lastChange = "2018-04-02 20:51:00 +0000";
layers = (
{
layerId = "9047BFCD-DDCC-4357-AC30-29E5270711EF";
paths = (
{
closed = 1;
nodes = (
"403 1556 LINE",
"238 776 LINE",
"53 655 LINE",
"90 586 LINE",
"213 666 LINE",
"72 0 LINE",
"166 0 LINE",
"324 737 LINE",
"559 893 LINE",
"518 963 LINE",
"346 850 LINE",
"498 1556 LINE"
);
}
);
width = 391;
},
{
layerId = "055178C8-6F6F-4B48-86C1-608D4439D248";
paths = (
{
closed = 1;
nodes = (
"354 1556 LINE",
"176 732 LINE",
"-37 594 LINE",
"78 378 LINE",
"114 404 LINE",
"25 0 LINE",
"363 0 LINE",
"504 649 LINE",
"716 787 LINE",
"602 1002 LINE",
"566 978 LINE",
"693 1556 LINE"
);
}
);
width = 625;
}
);
note = lslash;
unicode = 0142;
},
{
glyphname = m;
lastChange = "2018-04-04 15:48:28 +0000";
layers = (
{
anchors = (
{
name = bottom;
position = "{471, 0}";
},
{
name = top;
position = "{781, 1085}";
}
);
layerId = "9047BFCD-DDCC-4357-AC30-29E5270711EF";
paths = (
{
closed = 1;
nodes = (
"1151 786 LINE SMOOTH",
"1160 829 OFFCURVE",
"1165 869 OFFCURVE",
"1165 908 CURVE SMOOTH",
"1165 1040 OFFCURVE",
"1108 1106 OFFCURVE",
"1000 1106 CURVE SMOOTH",
"905 1106 OFFCURVE",
"832 1054 OFFCURVE",
"766 956 CURVE",
"754 1056 OFFCURVE",
"699 1106 OFFCURVE",
"602 1106 CURVE SMOOTH",
"500 1106 OFFCURVE",
"422 1050 OFFCURVE",
"360 934 CURVE",
"356 934 LINE",
"381 1085 LINE",
"301 1085 LINE",
"72 0 LINE",
"166 0 LINE",
"293 596 LINE SMOOTH",
"325 745 OFFCURVE",
"362 852 OFFCURVE",
"407 916 CURVE SMOOTH",
"452 980 OFFCURVE",
"509 1012 OFFCURVE",
"573 1012 CURVE SMOOTH",
"641 1012 OFFCURVE",
"674 975 OFFCURVE",
"674 897 CURVE SMOOTH",
"674 870 OFFCURVE",
"670 838 OFFCURVE",
"662 799 CURVE SMOOTH",
"494 0 LINE",
"588 0 LINE",
"745 752 LINE SMOOTH",
"777 903 OFFCURVE",
"867 1012 OFFCURVE",
"978 1012 CURVE SMOOTH",
"1043 1012 OFFCURVE",
"1073 974 OFFCURVE",
"1073 897 CURVE SMOOTH",
"1073 873 OFFCURVE",
"1070 844 OFFCURVE",
"1063 813 CURVE SMOOTH",
"891 0 LINE",
"985 0 LINE"
);
}
);
width = 1171;
},
{
anchors = (
{
name = bottom;
position = "{610, 0}";
},
{
name = top;
position = "{980, 1127}";
}
);
layerId = "055178C8-6F6F-4B48-86C1-608D4439D248";
paths = (
{
closed = 1;
nodes = (
"1653 720 LINE SMOOTH",
"1663 769 OFFCURVE",
"1669 814 OFFCURVE",
"1669 858 CURVE SMOOTH",
"1669 1038 OFFCURVE",
"1534 1148 OFFCURVE",
"1395 1148 CURVE SMOOTH",
"1280 1148 OFFCURVE",
"1164 1074 OFFCURVE",
"1071 938 CURVE",
"1063 938 LINE",
"1046 1070 OFFCURVE",
"926 1148 OFFCURVE",
"799 1148 CURVE SMOOTH",
"696 1148 OFFCURVE",
"575 1097 OFFCURVE",
"493 987 CURVE",
"485 987 LINE",
"476 1127 LINE",
"211 1127 LINE",
"-27 0 LINE",
"313 0 LINE",
"418 493 LINE SMOOTH",
"446 625 OFFCURVE",
"480 703 OFFCURVE",
"515 758 CURVE SMOOTH",
"562 832 OFFCURVE",
"611 865 OFFCURVE",
"661 865 CURVE SMOOTH",
"702 865 OFFCURVE",
"720 843 OFFCURVE",
"720 784 CURVE SMOOTH",
"720 748 OFFCURVE",
"713 703 OFFCURVE",
"701 647 CURVE SMOOTH",
"565 0 LINE",
"908 0 LINE",
"1012 485 LINE SMOOTH",
"1040 617 OFFCURVE",
"1073 699 OFFCURVE",
"1108 756 CURVE SMOOTH",
"1152 828 OFFCURVE",
"1203 865 OFFCURVE",
"1256 865 CURVE SMOOTH",
"1296 865 OFFCURVE",
"1314 844 OFFCURVE",
"1314 788 CURVE SMOOTH",
"1314 754 OFFCURVE",
"1307 708 OFFCURVE",
"1294 647 CURVE SMOOTH",
"1158 0 LINE",
"1500 0 LINE"
);
}
);
width = 1712;
}
);
note = m;
unicode = 006D;
},
{
glyphname = n;
lastChange = "2018-04-04 18:08:07 +0000";
layers = (
{
anchors = (
{
name = bottom;
position = "{276, 0}";
},
{
name = top;
position = "{596, 1085}";
}
);
layerId = "9047BFCD-DDCC-4357-AC30-29E5270711EF";
paths = (
{
closed = 1;
nodes = (
"764 797 LINE SMOOTH",
"773 840 OFFCURVE",
"778 881 OFFCURVE",
"778 918 CURVE SMOOTH",
"778 1039 OFFCURVE",
"714 1106 OFFCURVE",
"602 1106 CURVE SMOOTH",
"503 1106 OFFCURVE",
"422 1049 OFFCURVE",
"360 934 CURVE",
"356 934 LINE",
"381 1085 LINE",
"301 1085 LINE",
"72 0 LINE",
"166 0 LINE",
"293 596 LINE SMOOTH",
"354 880 OFFCURVE",
"444 1012 OFFCURVE",
"584 1012 CURVE SMOOTH",
"651 1012 OFFCURVE",
"684 974 OFFCURVE",
"684 899 CURVE SMOOTH",
"684 870 OFFCURVE",
"680 843 OFFCURVE",
"674 815 CURVE SMOOTH",
"502 0 LINE",
"596 0 LINE"
);
}
);
width = 782;
},
{
anchors = (
{
name = bottom;
position = "{397, 0}";
},
{
name = top;
position = "{663, 1127}";
}
);
layerId = "055178C8-6F6F-4B48-86C1-608D4439D248";
paths = (
{
closed = 1;
nodes = (
"1032 702 LINE SMOOTH",
"1044 759 OFFCURVE",
"1050 811 OFFCURVE",
"1050 857 CURVE SMOOTH",
"1050 1060 OFFCURVE",
"938 1148 OFFCURVE",
"777 1148 CURVE SMOOTH",
"640 1148 OFFCURVE",
"534 1083 OFFCURVE",
"477 987 CURVE",
"469 987 LINE",
"460 1127 LINE",
"195 1127 LINE",
"-43 0 LINE",
"297 0 LINE",
"402 493 LINE SMOOTH",
"429 621 OFFCURVE",
"462 703 OFFCURVE",
"494 756 CURVE SMOOTH",
"542 835 OFFCURVE",
"595 862 OFFCURVE",
"642 862 CURVE SMOOTH",
"678 862 OFFCURVE",
"696 846 OFFCURVE",
"696 788 CURVE SMOOTH",
"696 753 OFFCURVE",
"689 705 OFFCURVE",
"676 644 CURVE SMOOTH",
"540 0 LINE",
"883 0 LINE"
);
}
);
width = 1078;
}
);
note = n;
unicode = 006E;
},
{
glyphname = eng;
lastChange = "2018-04-04 18:10:06 +0000";
layers = (
{
layerId = "9047BFCD-DDCC-4357-AC30-29E5270711EF";
paths = (
{
closed = 1;
nodes = (
"684 867 OFFCURVE",
"680 842 OFFCURVE",
"674 815 CURVE SMOOTH",
"481 -100 LINE SMOOTH",
"464 -183 OFFCURVE",
"448 -245 OFFCURVE",
"434 -286 CURVE SMOOTH",
"405 -372 OFFCURVE",
"374 -401 OFFCURVE",
"308 -401 CURVE SMOOTH",
"284 -401 OFFCURVE",
"254 -397 OFFCURVE",
"229 -389 CURVE",
"229 -481 LINE",
"254 -488 OFFCURVE",
"284 -492 OFFCURVE",
"316 -492 CURVE SMOOTH",
"417 -492 OFFCURVE",
"467 -451 OFFCURVE",
"508 -345 CURVE SMOOTH",
"530 -289 OFFCURVE",
"552 -205 OFFCURVE",
"573 -106 CURVE SMOOTH",
"764 797 LINE SMOOTH",
"773 840 OFFCURVE",
"778 882 OFFCURVE",
"778 916 CURVE SMOOTH",
"778 1039 OFFCURVE",
"714 1106 OFFCURVE",
"604 1106 CURVE SMOOTH",
"502 1106 OFFCURVE",
"422 1049 OFFCURVE",
"360 934 CURVE",
"356 934 LINE",
"381 1085 LINE",
"301 1085 LINE",
"72 0 LINE",
"166 0 LINE",
"293 596 LINE SMOOTH",
"352 874 OFFCURVE",
"440 1012 OFFCURVE",
"581 1012 CURVE SMOOTH",
"652 1012 OFFCURVE",
"684 977 OFFCURVE",
"684 896 CURVE SMOOTH"
);
}
);
width = 782;
},
{
anchors = (
{
name = bottom;
position = "{412, 0}";
},
{
name = top;
position = "{678, 1127}";
}
);
background = {
paths = (
{
closed = 1;
nodes = (
"676 -492 OFFCURVE",
"823 -360 OFFCURVE",
"875 -114 CURVE SMOOTH",
"1052 720 LINE SMOOTH",
"1109 989 OFFCURVE",
"1010 1148 OFFCURVE",
"794 1148 CURVE SMOOTH",
"681 1148 OFFCURVE",
"584 1107 OFFCURVE",
"510 1000 CURVE",
"485 987 LINE",
"476 1127 LINE",
"211 1127 LINE",
"-27 0 LINE",
"313 0 LINE",
"418 493 LINE SMOOTH",
"447 628 OFFCURVE",
"481 717 OFFCURVE",
"512 754 CURVE SMOOTH",
"541 818 OFFCURVE",
"597 865 OFFCURVE",
"659 865 CURVE SMOOTH",
"725 865 OFFCURVE",
"725 802 OFFCURVE",
"692 644 CURVE SMOOTH",
"549 -27 LINE SMOOTH",
"526 -138 OFFCURVE",
"469 -206 OFFCURVE",
"389 -206 CURVE SMOOTH",
"374 -206 OFFCURVE",
"338 -202 OFFCURVE",
"310 -191 CURVE",
"277 -457 LINE",
"316 -477 OFFCURVE",
"381 -492 OFFCURVE",
"453 -492 CURVE SMOOTH"
);
}
);
};
layerId = "055178C8-6F6F-4B48-86C1-608D4439D248";
paths = (
{
closed = 1;
nodes = (
"312 0 LINE",
"417 493 LINE SMOOTH",
"444 621 OFFCURVE",
"477 703 OFFCURVE",
"509 756 CURVE SMOOTH",
"557 835 OFFCURVE",
"610 862 OFFCURVE",
"657 862 CURVE SMOOTH",
"693 862 OFFCURVE",
"711 846 OFFCURVE",
"711 788 CURVE SMOOTH",
"711 753 OFFCURVE",
"704 705 OFFCURVE",
"691 644 CURVE SMOOTH",
"549 -27 LINE SMOOTH",
"526 -138 OFFCURVE",
"468 -206 OFFCURVE",
"392 -206 CURVE SMOOTH",
"373 -206 OFFCURVE",
"338 -202 OFFCURVE",
"310 -191 CURVE",
"277 -457 LINE",
"316 -477 OFFCURVE",
"380 -492 OFFCURVE",
"454 -492 CURVE SMOOTH",
"675 -492 OFFCURVE",
"821 -360 OFFCURVE",
"873 -114 CURVE SMOOTH",
"1047 702 LINE SMOOTH",
"1059 759 OFFCURVE",
"1065 811 OFFCURVE",
"1065 857 CURVE SMOOTH",
"1065 1060 OFFCURVE",
"953 1148 OFFCURVE",
"792 1148 CURVE SMOOTH",
"655 1148 OFFCURVE",
"549 1083 OFFCURVE",
"492 987 CURVE",
"484 987 LINE",
"475 1127 LINE",
"210 1127 LINE",
"-28 0 LINE"
);
}
);
width = 1110;
}
);
note = eng;
unicode = 014B;
},
{
glyphname = o;
lastChange = "2018-04-04 18:11:16 +0000";
layers = (
{
anchors = (
{
name = bottom;
position = "{335, 0}";
},
{
name = center;
position = "{390, 543}";
},
{
name = ogonek;
position = "{427, 10}";
},
{
name = top;
position = "{555, 1085}";
},
{
name = topright;
position = "{875, 1085}";
}
);
layerId = "9047BFCD-DDCC-4357-AC30-29E5270711EF";
paths = (
{
closed = 1;
nodes = (
"463 -20 OFFCURVE",
"572 62 OFFCURVE",
"652 219 CURVE SMOOTH",
"729 370 OFFCURVE",
"784 603 OFFCURVE",
"784 779 CURVE SMOOTH",
"784 997 OFFCURVE",
"700 1106 OFFCURVE",
"559 1106 CURVE SMOOTH",
"431 1106 OFFCURVE",
"323 1017 OFFCURVE",
"249 869 CURVE SMOOTH",
"172 715 OFFCURVE",
"119 473 OFFCURVE",
"119 298 CURVE SMOOTH",
"119 86 OFFCURVE",
"197 -20 OFFCURVE",
"339 -20 CURVE SMOOTH"
);
},
{
closed = 1;
nodes = (
"217 377 OFFCURVE",
"234 507 OFFCURVE",
"267 632 CURVE SMOOTH",
"331 877 OFFCURVE",
"429 1016 OFFCURVE",
"554 1016 CURVE SMOOTH",
"641 1016 OFFCURVE",
"686 949 OFFCURVE",
"686 796 CURVE SMOOTH",
"686 705 OFFCURVE",
"670 576 OFFCURVE",
"639 454 CURVE SMOOTH",
"578 213 OFFCURVE",
"475 66 OFFCURVE",
"347 66 CURVE SMOOTH",
"260 66 OFFCURVE",
"217 133 OFFCURVE",
"217 283 CURVE SMOOTH"
);
}
);
width = 780;
},
{
anchors = (
{
name = bottom;
position = "{421, 0}";
},
{
name = center;
position = "{541, 564}";
},
{
name = ogonek;
position = "{584, 10}";
},
{
name = top;
position = "{661, 1127}";
},
{
name = topright;
position = "{1182, 1127}";
}
);
layerId = "055178C8-6F6F-4B48-86C1-608D4439D248";
paths = (
{
closed = 1;
nodes = (
"803 -20 OFFCURVE",
"1031 342 OFFCURVE",
"1031 719 CURVE SMOOTH",
"1031 982 OFFCURVE",
"888 1148 OFFCURVE",
"642 1148 CURVE SMOOTH",
"292 1148 OFFCURVE",
"53 799 OFFCURVE",
"53 433 CURVE SMOOTH",
"53 175 OFFCURVE",
"190 -20 OFFCURVE",
"445 -20 CURVE SMOOTH"
);
},
{
closed = 1;
nodes = (
"373 409 OFFCURVE",
"379 461 OFFCURVE",
"390 515 CURVE SMOOTH",
"426 687 OFFCURVE",
"505 860 OFFCURVE",
"621 860 CURVE SMOOTH",
"677 860 OFFCURVE",
"713 820 OFFCURVE",
"713 762 CURVE SMOOTH",
"713 705 OFFCURVE",
"704 639 OFFCURVE",
"689 575 CURVE SMOOTH",
"650 412 OFFCURVE",
"576 265 OFFCURVE",
"469 265 CURVE SMOOTH",
"411 265 OFFCURVE",
"373 309 OFFCURVE",
"373 363 CURVE SMOOTH"
);
}
);
width = 1082;
}
);
note = o;
unicode = 006F;
},
{
glyphname = ohorn;
lastChange = "2018-04-04 18:40:56 +0000";
layers = (
{
anchors = (
{
name = bottom;
position = "{317, 0}";
},
{
name = top;
position = "{537, 1085}";
}
);
layerId = "9047BFCD-DDCC-4357-AC30-29E5270711EF";
paths = (
{
closed = 1;
nodes = (
"394 -20 OFFCURVE",
"472 12 OFFCURVE",
"537 82 CURVE SMOOTH",
"667 221 OFFCURVE",
"764 530 OFFCURVE",
"764 778 CURVE SMOOTH",
"764 822 OFFCURVE",
"761 852 OFFCURVE",
"756 893 CURVE",
"869 958 OFFCURVE",
"940 1066 OFFCURVE",
"969 1217 CURVE",
"961 1243 LINE",
"877 1243 LINE",
"852 1103 OFFCURVE",
"804 1012 OFFCURVE",
"733 969 CURVE",
"696 1060 OFFCURVE",
"631 1106 OFFCURVE",
"539 1106 CURVE SMOOTH",
"415 1106 OFFCURVE",
"306 1022 OFFCURVE",
"228 867 CURVE SMOOTH",
"151 714 OFFCURVE",
"98 476 OFFCURVE",
"98 301 CURVE SMOOTH",
"98 86 OFFCURVE",
"178 -20 OFFCURVE",
"317 -20 CURVE SMOOTH"
);
},
{
closed = 1;
nodes = (
"197 374 OFFCURVE",
"213 501 OFFCURVE",
"245 626 CURVE SMOOTH",
"308 874 OFFCURVE",
"407 1016 OFFCURVE",
"533 1016 CURVE SMOOTH",
"620 1016 OFFCURVE",
"666 949 OFFCURVE",
"666 795 CURVE SMOOTH",
"666 704 OFFCURVE",
"650 577 OFFCURVE",
"619 454 CURVE SMOOTH",
"558 213 OFFCURVE",
"455 66 OFFCURVE",
"327 66 CURVE SMOOTH",
"240 66 OFFCURVE",
"197 133 OFFCURVE",
"197 283 CURVE SMOOTH"
);
}
);
width = 764;
},
{
anchors = (
{
name = bottom;
position = "{398, 0}";
},
{
name = top;
position = "{588, 1127}";
}
);
background = {
paths = (
{
closed = 1;
nodes = (
"955 613 OFFCURVE",
"960 681 OFFCURVE",
"960 740 CURVE SMOOTH",
"960 773 OFFCURVE",
"958 803 OFFCURVE",
"956 830 CURVE",
"1158 911 OFFCURVE",
"1272 1013 OFFCURVE",
"1391 1265 CURVE",
"1376 1298 LINE",
"1019 1312 LINE",
"990 1191 OFFCURVE",
"927 1098 OFFCURVE",
"850 1043 CURVE",
"790 1102 OFFCURVE",
"697 1148 OFFCURVE",
"568 1148 CURVE SMOOTH",
"290 1148 OFFCURVE",
"72 936 OFFCURVE",
"0 598 CURVE SMOOTH",
"-13 538 OFFCURVE",
"-19 484 OFFCURVE",
"-19 435 CURVE SMOOTH",
"-19 384 OFFCURVE",
"-12 340 OFFCURVE",
"1 303 CURVE SMOOTH",
"31 104 OFFCURVE",
"159 -20 OFFCURVE",
"374 -20 CURVE SMOOTH",
"647 -20 OFFCURVE",
"864 185 OFFCURVE",
"938 534 CURVE SMOOTH"
);
},
{
closed = 1;
nodes = (
"358 646 OFFCURVE",
"389 723 OFFCURVE",
"424 762 CURVE SMOOTH",
"452 823 OFFCURVE",
"501 860 OFFCURVE",
"557 860 CURVE SMOOTH",
"592 860 OFFCURVE",
"616 846 OFFCURVE",
"630 814 CURVE SMOOTH",
"632 756 OFFCURVE",
"622 679 OFFCURVE",
"604 594 CURVE SMOOTH",
"558 378 OFFCURVE",
"481 268 OFFCURVE",
"379 268 CURVE SMOOTH",
"355 268 OFFCURVE",
"329 272 OFFCURVE",
"311 301 CURVE SMOOTH",
"311 310 OFFCURVE",
"310 319 OFFCURVE",
"310 329 CURVE SMOOTH",
"310 383 OFFCURVE",
"317 454 OFFCURVE",
"336 539 CURVE SMOOTH"
);
}
);
};
layerId = "055178C8-6F6F-4B48-86C1-608D4439D248";
paths = (
{
closed = 1;
nodes = (
"-18 175 OFFCURVE",
"119 -20 OFFCURVE",
"374 -20 CURVE SMOOTH",
"732 -20 OFFCURVE",
"960 342 OFFCURVE",
"960 719 CURVE SMOOTH",
"960 757.449 OFFCURVE",
"956.944 793.824 OFFCURVE",
"950.956 827.911 CURVE",
"1155.708 909.239 OFFCURVE",
"1270.932 1011.087 OFFCURVE",
"1391 1265 CURVE",
"1376 1298 LINE",
"1019 1298 LINE",
"990 1176 OFFCURVE",
"926.409 1096.773 OFFCURVE",
"848.825 1041.719 CURVE",
"782.671 1110.06 OFFCURVE",
"688.606 1148 OFFCURVE",
"571 1148 CURVE SMOOTH",
"221 1148 OFFCURVE",
"-18 799 OFFCURVE",
"-18 433 CURVE SMOOTH"
);
},
{
closed = 1;
nodes = (
"302 409 OFFCURVE",
"308 461 OFFCURVE",
"319 515 CURVE SMOOTH",
"355 687 OFFCURVE",
"434 860 OFFCURVE",
"550 860 CURVE SMOOTH",
"606 860 OFFCURVE",
"642 820 OFFCURVE",
"642 762 CURVE SMOOTH",
"642 705 OFFCURVE",
"633 639 OFFCURVE",
"618 575 CURVE SMOOTH",
"579 412 OFFCURVE",
"505 265 OFFCURVE",
"398 265 CURVE SMOOTH",
"340 265 OFFCURVE",
"302 309 OFFCURVE",
"302 363 CURVE SMOOTH"
);
}
);
width = 1235;
}
);
note = ohorn;
unicode = 01A1;
},
{
glyphname = oslash;
lastChange = "2018-04-04 18:44:31 +0000";
layers = (
{
anchors = (
{
name = top;
position = "{555, 1085}";
}
);
layerId = "9047BFCD-DDCC-4357-AC30-29E5270711EF";
paths = (
{
closed = 1;
nodes = (
"464 -20 OFFCURVE",
"572 63 OFFCURVE",
"652 219 CURVE SMOOTH",
"729 369 OFFCURVE",
"784 600 OFFCURVE",
"784 787 CURVE SMOOTH",
"784 843 OFFCURVE",
"779 887 OFFCURVE",
"768 926 CURVE",
"903 1128 LINE",
"836 1171 LINE",
"731 1014 LINE",
"692 1075 OFFCURVE",
"634 1106 OFFCURVE",
"559 1106 CURVE SMOOTH",
"431 1106 OFFCURVE",
"324 1018 OFFCURVE",
"249 869 CURVE SMOOTH",
"173 718 OFFCURVE",
"119 479 OFFCURVE",
"119 289 CURVE SMOOTH",
"119 221 OFFCURVE",
"126 168 OFFCURVE",
"141 125 CURVE",
"10 -74 LINE",
"74 -117 LINE",
"184 49 LINE",
"222 3 OFFCURVE",
"274 -20 OFFCURVE",
"340 -20 CURVE SMOOTH"
);
},
{
closed = 1;
nodes = (
"215 365 OFFCURVE",
"231 491 OFFCURVE",
"264 619 CURVE SMOOTH",
"332 885 OFFCURVE",
"433 1016 OFFCURVE",
"550 1016 CURVE SMOOTH",
"607 1016 OFFCURVE",
"649 985 OFFCURVE",
"670 922 CURVE",
"215 240 LINE"
);
},
{
closed = 1;
nodes = (
"300 66 OFFCURVE",
"261 89 OFFCURVE",
"240 133 CURVE",
"688 803 LINE",
"686 680 OFFCURVE",
"669 557 OFFCURVE",
"637 439 CURVE SMOOTH",
"574 206 OFFCURVE",
"471 66 OFFCURVE",
"349 66 CURVE SMOOTH"
);
}
);
width = 780;
},
{
anchors = (
{
name = top;
position = "{661, 1127}";
}
);
background = {
paths = (
{
closed = 1;
nodes = (
"213 -76 LINE",
"281 7 LINE",
"322 -8 OFFCURVE",
"375 -20 OFFCURVE",
"441 -20 CURVE SMOOTH",
"721 -20 OFFCURVE",
"936 182 OFFCURVE",
"1012 539 CURVE SMOOTH",
"1053 733 OFFCURVE",
"1032 880 OFFCURVE",
"965 979 CURVE",
"1061 1102 LINE",
"875 1190 LINE",
"814 1123 LINE",
"771 1134 OFFCURVE",
"717 1148 OFFCURVE",
"641 1148 CURVE SMOOTH",
"363 1148 OFFCURVE",
"145 937 OFFCURVE",
"72 596 CURVE SMOOTH",
"27 382 OFFCURVE",
"64 236 OFFCURVE",
"126 145 CURVE",
"23 15 LINE"
);
},
{
closed = 1;
nodes = (
"400 552 LINE",
"431 703 OFFCURVE",
"492 860 OFFCURVE",
"618 860 CURVE SMOOTH",
"638 860 LINE",
"389 519 LINE"
);
},
{
closed = 1;
nodes = (
"698 600 LINE",
"688 583 LINE",
"644 368 OFFCURVE",
"559 265 OFFCURVE",
"466 265 CURVE SMOOTH",
"453 265 LINE"
);
}
);
};
layerId = "055178C8-6F6F-4B48-86C1-608D4439D248";
paths = (
{
closed = 1;
nodes = (
"213 -76 LINE",
"284 11 LINE",
"331 -9 OFFCURVE",
"385 -20 OFFCURVE",
"445 -20 CURVE SMOOTH",
"803 -20 OFFCURVE",
"1031 342 OFFCURVE",
"1031 719 CURVE SMOOTH",
"1031 823 OFFCURVE",
"1009 912 OFFCURVE",
"967 981 CURVE",
"1061 1102 LINE",
"875 1190 LINE",
"809 1117 LINE",
"760 1137 OFFCURVE",
"704 1148 OFFCURVE",
"642 1148 CURVE SMOOTH",
"292 1148 OFFCURVE",
"53 799 OFFCURVE",
"53 433 CURVE SMOOTH",
"53 322 OFFCURVE",
"78 224 OFFCURVE",
"127 147 CURVE",
"23 15 LINE"
);
},
{
closed = 1;
nodes = (
"428 692 OFFCURVE",
"507 860 OFFCURVE",
"621 860 CURVE SMOOTH",
"626 860 OFFCURVE",
"632 860 OFFCURVE",
"637 859 CURVE",
"392 523 LINE"
);
},
{
closed = 1;
nodes = (
"693 594 LINE",
"689 575 LINE SMOOTH",
"654 411 OFFCURVE",
"576 265 OFFCURVE",
"469 265 CURVE SMOOTH",
"464 265 OFFCURVE",
"459 265 OFFCURVE",
"454 266 CURVE"
);
}
);
width = 1082;
}
);
leftMetricsKey = o;
note = oslash;
rightMetricsKey = o;
unicode = 00F8;
},
{
glyphname = oe;
lastChange = "2018-04-04 18:46:43 +0000";
layers = (
{
anchors = (
{
name = bottom;
position = "{499, 0}";
},
{
name = top;
position = "{789, 1085}";
}
);
layerId = "9047BFCD-DDCC-4357-AC30-29E5270711EF";
paths = (
{
closed = 1;
nodes = (
"469 -20 OFFCURVE",
"570 64 OFFCURVE",
"645 231 CURVE",
"664 63 OFFCURVE",
"740 -20 OFFCURVE",
"889 -20 CURVE SMOOTH",
"959 -20 OFFCURVE",
"1035 -2 OFFCURVE",
"1098 35 CURVE",
"1098 121 LINE",
"1030 82 OFFCURVE",
"974 66 OFFCURVE",
"915 66 CURVE SMOOTH",
"786 66 OFFCURVE",
"725 141 OFFCURVE",
"725 311 CURVE SMOOTH",
"725 368 OFFCURVE",
"732 437 OFFCURVE",
"745 506 CURVE",
"758 506 LINE SMOOTH",
"861 506 OFFCURVE",
"952 522 OFFCURVE",
"1022 551 CURVE SMOOTH",
"1174 614 OFFCURVE",
"1251 746 OFFCURVE",
"1251 898 CURVE SMOOTH",
"1251 1039 OFFCURVE",
"1185 1106 OFFCURVE",
"1075 1106 CURVE SMOOTH",
"938 1106 OFFCURVE",
"834 1003 OFFCURVE",
"756 842 CURVE",
"746 1018 OFFCURVE",
"681 1106 OFFCURVE",
"557 1106 CURVE SMOOTH",
"429 1106 OFFCURVE",
"321 1013 OFFCURVE",
"249 869 CURVE SMOOTH",
"175 722 OFFCURVE",
"119 479 OFFCURVE",
"119 298 CURVE SMOOTH",
"119 85 OFFCURVE",
"197 -20 OFFCURVE",
"340 -20 CURVE SMOOTH"
);
},
{
closed = 1;
nodes = (
"217 377 OFFCURVE",
"234 507 OFFCURVE",
"267 632 CURVE SMOOTH",
"331 877 OFFCURVE",
"429 1016 OFFCURVE",
"554 1016 CURVE SMOOTH",
"641 1016 OFFCURVE",
"686 949 OFFCURVE",
"686 796 CURVE SMOOTH",
"686 705 OFFCURVE",
"670 576 OFFCURVE",
"639 454 CURVE SMOOTH",
"578 213 OFFCURVE",
"475 66 OFFCURVE",
"347 66 CURVE SMOOTH",
"260 66 OFFCURVE",
"217 133 OFFCURVE",
"217 283 CURVE SMOOTH"
);
},
{
closed = 1;
nodes = (
"1130 1018 OFFCURVE",
"1157 976 OFFCURVE",
"1157 891 CURVE SMOOTH",
"1157 701 OFFCURVE",
"1024 588 OFFCURVE",
"758 588 CURVE",
"820 844 OFFCURVE",
"925 1018 OFFCURVE",
"1062 1018 CURVE SMOOTH"
);
}
);
width = 1227;
},
{
anchors = (
{
name = bottom;
position = "{721, 0}";
},
{
name = top;
position = "{931, 1127}";
}
);
background = {
paths = (
{
closed = 1;
nodes = (
"1174 -20 OFFCURVE",
"1300 3 OFFCURVE",
"1401 55 CURVE",
"1440 344 LINE",
"1331 286 OFFCURVE",
"1217 251 OFFCURVE",
"1122 251 CURVE SMOOTH",
"1001 251 OFFCURVE",
"960 309 OFFCURVE",
"984 451 CURVE",
"1526 466 LINE",
"1558 616 LINE SMOOTH",
"1627 942 OFFCURVE",
"1496 1148 OFFCURVE",
"1217 1148 CURVE SMOOTH",
"1113 1148 OFFCURVE",
"1017 1121 OFFCURVE",
"913 1045 CURVE",
"843 1108 OFFCURVE",
"751 1148 OFFCURVE",
"633 1148 CURVE SMOOTH",
"356 1148 OFFCURVE",
"135 935 OFFCURVE",
"64 600 CURVE SMOOTH",
"39 481 OFFCURVE",
"41 387 OFFCURVE",
"60 323 CURVE SMOOTH",
"85 107 OFFCURVE",
"226 -20 OFFCURVE",
"438 -20 CURVE SMOOTH",
"534 -20 OFFCURVE",
"642 5 OFFCURVE",
"755 83 CURVE",
"822 19 OFFCURVE",
"919 -20 OFFCURVE",
"1060 -20 CURVE SMOOTH"
);
},
{
closed = 1;
nodes = (
"421 641 OFFCURVE",
"449 717 OFFCURVE",
"475 747 CURVE SMOOTH",
"504 814 OFFCURVE",
"560 860 OFFCURVE",
"621 860 CURVE SMOOTH",
"650 860 OFFCURVE",
"675 851 OFFCURVE",
"694 816 CURVE SMOOTH",
"699 752 OFFCURVE",
"686 674 OFFCURVE",
"666 580 CURVE",
"668 589 LINE",
"625 385 OFFCURVE",
"545 268 OFFCURVE",
"445 268 CURVE SMOOTH",
"416 268 OFFCURVE",
"393 278 OFFCURVE",
"375 308 CURVE SMOOTH",
"370 370 OFFCURVE",
"380 444 OFFCURVE",
"399 534 CURVE SMOOTH"
);
},
{
closed = 1;
nodes = (
"1254 892 OFFCURVE",
"1276 856 OFFCURVE",
"1250 716 CURVE",
"1248 705 LINE",
"1040 691 LINE",
"1071 813 OFFCURVE",
"1139 892 OFFCURVE",
"1213 892 CURVE SMOOTH"
);
}
);
};
layerId = "055178C8-6F6F-4B48-86C1-608D4439D248";
paths = (
{
closed = 1;
nodes = (
"48 175 OFFCURVE",
"185 -20 OFFCURVE",
"440 -20 CURVE SMOOTH",
"560.047 -20 OFFCURVE",
"665.477 20.705 OFFCURVE",
"752.594 89.031 CURVE",
"823.34 18.379 OFFCURVE",
"928.222 -19 OFFCURVE",
"1065 -19 CURVE SMOOTH",
"1167 -19 OFFCURVE",
"1297 2 OFFCURVE",
"1401 56 CURVE",
"1439 344 LINE",
"1334 288 OFFCURVE",
"1224 249 OFFCURVE",
"1124 249 CURVE SMOOTH",
"1029 249 OFFCURVE",
"977 284 OFFCURVE",
"977 383 CURVE SMOOTH",
"977 407 OFFCURVE",
"980 430 OFFCURVE",
"987.1 452.081 CURVE",
"1292.652 460.168 OFFCURVE",
"1389.242 485.168 OFFCURVE",
"1461 535 CURVE SMOOTH",
"1512 571 OFFCURVE",
"1581 638 OFFCURVE",
"1581 788 CURVE SMOOTH",
"1581 1002 OFFCURVE",
"1444 1149 OFFCURVE",
"1221 1149 CURVE SMOOTH",
"1105.139 1149 OFFCURVE",
"1001.166 1112.257 OFFCURVE",
"914.125 1042.439 CURVE",
"848.009 1110.326 OFFCURVE",
"754.192 1148 OFFCURVE",
"637 1148 CURVE SMOOTH",
"287 1148 OFFCURVE",
"48 799 OFFCURVE",
"48 433 CURVE SMOOTH"
);
},
{
closed = 1;
nodes = (
"368 409 OFFCURVE",
"374 461 OFFCURVE",
"385 515 CURVE SMOOTH",
"421 687 OFFCURVE",
"490 860 OFFCURVE",
"606 860 CURVE SMOOTH",
"662 860 OFFCURVE",
"688 820 OFFCURVE",
"688 762 CURVE SMOOTH",
"688 716.057 OFFCURVE",
"682.153 664.268 OFFCURVE",
"672.03 612.391 CURVE",
"669.934 603.364 OFFCURVE",
"667.924 594.233 OFFCURVE",
"666 585 CURVE SMOOTH",
"663.742 573.922 LINE SMOOTH",
"624.718 411.353 OFFCURVE",
"560.764 265 OFFCURVE",
"454 265 CURVE SMOOTH",
"396 265 OFFCURVE",
"368 309 OFFCURVE",
"368 363 CURVE SMOOTH"
);
},
{
closed = 1;
nodes = (
"1063 812 OFFCURVE",
"1135 893 OFFCURVE",
"1210 893 CURVE SMOOTH",
"1256 893 OFFCURVE",
"1303 863 OFFCURVE",
"1303 799 CURVE SMOOTH",
"1303 709 OFFCURVE",
"1207 683 OFFCURVE",
"1030 682 CURVE"
);
}
);
width = 1082;
}
);
note = oe;
unicode = 0153;
},
{
glyphname = p;
lastChange = "2018-04-04 18:53:01 +0000";
layers = (
{
anchors = (
{
name = bottom;
position = "{287, 0}";
},
{
name = top;
position = "{517, 1085}";
}
);
layerId = "9047BFCD-DDCC-4357-AC30-29E5270711EF";
paths = (
{
closed = 1;
nodes = (
"526 1106 OFFCURVE",
"448 1056 OFFCURVE",
"365 930 CURVE",
"360 930 LINE",
"385 1085 LINE",
"303 1085 LINE",
"-27 -471 LINE",
"68 -471 LINE",
"193 131 LINE",
"199 131 LINE",
"215 39 OFFCURVE",
"281 -20 OFFCURVE",
"375 -20 CURVE SMOOTH",
"456 -20 OFFCURVE",
"530 23 OFFCURVE",
"590 92 CURVE SMOOTH",
"717 237 OFFCURVE",
"815 541 OFFCURVE",
"815 802 CURVE SMOOTH",
"815 1013 OFFCURVE",
"751 1106 OFFCURVE",
"621 1106 CURVE SMOOTH"
);
},
{
closed = 1;
nodes = (
"690 1022 OFFCURVE",
"717 954 OFFCURVE",
"717 829 CURVE SMOOTH",
"717 730 OFFCURVE",
"700 598 OFFCURVE",
"667 469 CURVE SMOOTH",
"599 203 OFFCURVE",
"494 66 OFFCURVE",
"368 66 CURVE SMOOTH",
"284 66 OFFCURVE",
"242 128 OFFCURVE",
"242 272 CURVE SMOOTH",
"242 363 OFFCURVE",
"259 497 OFFCURVE",
"293 624 CURVE SMOOTH",
"359 872 OFFCURVE",
"468 1022 OFFCURVE",
"601 1022 CURVE SMOOTH"
);
}
);
width = 803;
},
{
anchors = (
{
name = bottom;
position = "{279, 0}";
},
{
name = top;
position = "{649, 1127}";
}
);
background = {
paths = (
{
closed = 1;
nodes = (
"744 -20 OFFCURVE",
"908 189 OFFCURVE",
"983 541 CURVE SMOOTH",
"1061 912 OFFCURVE",
"972 1148 OFFCURVE",
"755 1148 CURVE SMOOTH",
"667 1148 OFFCURVE",
"583 1109 OFFCURVE",
"504 996 CURVE",
"485 983 LINE",
"459 1127 LINE",
"201 1127 LINE",
"-141 -492 LINE",
"202 -492 LINE",
"290 -81 LINE SMOOTH",
"294 -62 OFFCURVE",
"298 -10 OFFCURVE",
"307 103 CURVE",
"338 130 LINE",
"380 26 OFFCURVE",
"441 -20 OFFCURVE",
"538 -20 CURVE SMOOTH"
);
},
{
closed = 1;
nodes = (
"649 863 OFFCURVE",
"668 848 OFFCURVE",
"677 807 CURVE SMOOTH",
"675 739 OFFCURVE",
"659 655 OFFCURVE",
"647 602 CURVE SMOOTH",
"625 494 OFFCURVE",
"598 422 OFFCURVE",
"572 385 CURVE SMOOTH",
"543 311 OFFCURVE",
"498 270 OFFCURVE",
"443 270 CURVE SMOOTH",
"419 270 OFFCURVE",
"404 278 OFFCURVE",
"390 303 CURVE SMOOTH",
"387 363 OFFCURVE",
"395 431 OFFCURVE",
"420 551 CURVE SMOOTH",
"428 587 LINE SMOOTH",
"445 669 OFFCURVE",
"479 753 OFFCURVE",
"504 778 CURVE SMOOTH",
"522 824 OFFCURVE",
"566 863 OFFCURVE",
"619 863 CURVE SMOOTH"
);
}
);
};
layerId = "055178C8-6F6F-4B48-86C1-608D4439D248";
paths = (
{
closed = 1;
nodes = (
"742 -20 OFFCURVE",
"908 189 OFFCURVE",
"983 541 CURVE SMOOTH",
"1002 630 OFFCURVE",
"1011 715 OFFCURVE",
"1011 784 CURVE SMOOTH",
"1011 1012 OFFCURVE",
"911 1148 OFFCURVE",
"755 1148 CURVE SMOOTH",
"658 1148 OFFCURVE",
"572 1096 OFFCURVE",
"493 983 CURVE",
"485 983 LINE",
"459 1127 LINE",
"201 1127 LINE",
"-141 -492 LINE",
"202 -492 LINE",
"290 -81 LINE SMOOTH",
"294 -62 OFFCURVE",
"306 17 OFFCURVE",
"315 130 CURVE",
"323 130 LINE",
"359 26 OFFCURVE",
"442 -20 OFFCURVE",
"538 -20 CURVE SMOOTH"
);
},
{
closed = 1;
nodes = (
"661 863 OFFCURVE",
"675 824 OFFCURVE",
"675 773 CURVE SMOOTH",
"675 718 OFFCURVE",
"659 646 OFFCURVE",
"647 602 CURVE SMOOTH",
"606 446 OFFCURVE",
"547 270 OFFCURVE",
"443 270 CURVE SMOOTH",
"407 270 OFFCURVE",
"389 292 OFFCURVE",
"389 328 CURVE SMOOTH",
"389 386 OFFCURVE",
"399 451 OFFCURVE",
"428 587 CURVE SMOOTH",
"455 715 OFFCURVE",
"530 863 OFFCURVE",
"619 863 CURVE SMOOTH"
);
}
);
width = 1069;
}
);
note = p;
unicode = 0070;
},
{
glyphname = thorn;
lastChange = "2018-04-04 18:54:48 +0000";
layers = (
{
anchors = (
{
name = bottom;
position = "{287, 0}";
},
{
name = top;
position = "{517, 1085}";
}
);
layerId = "9047BFCD-DDCC-4357-AC30-29E5270711EF";
paths = (
{
closed = 1;
nodes = (
"526 1106 OFFCURVE",
"448 1056 OFFCURVE",
"365 930 CURVE",
"360 930 LINE",
"498 1556 LINE",
"403 1556 LINE",
"-27 -471 LINE",
"68 -471 LINE",
"193 131 LINE",
"199 131 LINE",
"215 39 OFFCURVE",
"281 -20 OFFCURVE",
"375 -20 CURVE SMOOTH",
"456 -20 OFFCURVE",
"530 23 OFFCURVE",
"590 92 CURVE SMOOTH",
"717 237 OFFCURVE",
"815 541 OFFCURVE",
"815 802 CURVE SMOOTH",
"815 1013 OFFCURVE",
"751 1106 OFFCURVE",
"621 1106 CURVE SMOOTH"
);
},
{
closed = 1;
nodes = (
"690 1022 OFFCURVE",
"717 954 OFFCURVE",
"717 829 CURVE SMOOTH",
"717 730 OFFCURVE",
"700 598 OFFCURVE",
"667 469 CURVE SMOOTH",
"599 203 OFFCURVE",
"494 66 OFFCURVE",
"368 66 CURVE SMOOTH",
"284 66 OFFCURVE",
"242 128 OFFCURVE",
"242 272 CURVE SMOOTH",
"242 363 OFFCURVE",
"259 497 OFFCURVE",
"293 624 CURVE SMOOTH",
"359 872 OFFCURVE",
"468 1022 OFFCURVE",
"601 1022 CURVE SMOOTH"
);
}
);
width = 803;
},
{
anchors = (
{
name = bottom;
position = "{415, 0}";
},
{
name = top;
position = "{655, 1127}";
}
);
background = {
paths = (
{
closed = 1;
nodes = (
"663 1148 OFFCURVE",
"601 1120 OFFCURVE",
"508 996 CURVE",
"489 969 LINE",
"527 1081 OFFCURVE",
"554 1180 OFFCURVE",
"565 1229 CURVE SMOOTH",
"634 1556 LINE",
"293 1556 LINE",
"-141 -492 LINE",
"200 -492 LINE",
"288 -81 LINE SMOOTH",
"293 -55 OFFCURVE",
"295 -34 OFFCURVE",
"308 103 CURVE",
"341 130 LINE",
"384 19 OFFCURVE",
"445 -20 OFFCURVE",
"543 -20 CURVE SMOOTH",
"742 -20 OFFCURVE",
"909 192 OFFCURVE",
"981 530 CURVE SMOOTH",
"1062 914 OFFCURVE",
"973 1148 OFFCURVE",
"759 1148 CURVE SMOOTH"
);
},
{
closed = 1;
nodes = (
"645 863 OFFCURVE",
"662 855 OFFCURVE",
"675 817 CURVE SMOOTH",
"676 753 OFFCURVE",
"666 684 OFFCURVE",
"648 598 CURVE SMOOTH",
"582 287 OFFCURVE",
"486 234 OFFCURVE",
"428 234 CURVE SMOOTH",
"402 234 OFFCURVE",
"391 233 OFFCURVE",
"376 263 CURVE SMOOTH",
"373 334 OFFCURVE",
"392 413 OFFCURVE",
"415 521 CURVE SMOOTH",
"429 587 LINE SMOOTH",
"447 674 OFFCURVE",
"472 737 OFFCURVE",
"491 763 CURVE SMOOTH",
"513 826 OFFCURVE",
"563 863 OFFCURVE",
"626 863 CURVE SMOOTH"
);
}
);
};
layerId = "055178C8-6F6F-4B48-86C1-608D4439D248";
paths = (
{
closed = 1;
nodes = (
"202 -492 LINE",
"290 -81 LINE SMOOTH",
"294 -62 OFFCURVE",
"306 17 OFFCURVE",
"315 130 CURVE",
"323 130 LINE",
"359 26 OFFCURVE",
"442 -20 OFFCURVE",
"538 -20 CURVE SMOOTH",
"742 -20 OFFCURVE",
"908 189 OFFCURVE",
"983 541 CURVE SMOOTH",
"1002 630 OFFCURVE",
"1011 715 OFFCURVE",
"1011 784 CURVE SMOOTH",
"1011 1012 OFFCURVE",
"911 1148 OFFCURVE",
"755 1148 CURVE SMOOTH",
"658.756 1148 OFFCURVE",
"573.341 1096.807 OFFCURVE",
"494.849 985.631 CURVE",
"522.124 1068.652 OFFCURVE",
"554.499 1179.358 OFFCURVE",
"565 1229 CURVE SMOOTH",
"634 1556 LINE",
"293 1556 LINE",
"202.25 1127 LINE",
"201 1127 LINE",
"-141 -492 LINE"
);
},
{
closed = 1;
nodes = (
"389 386 OFFCURVE",
"399 451 OFFCURVE",
"428 587 CURVE SMOOTH",
"455 715 OFFCURVE",
"530 863 OFFCURVE",
"619 863 CURVE SMOOTH",
"661 863 OFFCURVE",
"675 824 OFFCURVE",
"675 773 CURVE SMOOTH",
"675 718 OFFCURVE",
"659 646 OFFCURVE",
"647 602 CURVE SMOOTH",
"606 446 OFFCURVE",
"547 270 OFFCURVE",
"443 270 CURVE SMOOTH",
"407 270 OFFCURVE",
"389 292 OFFCURVE",
"389 328 CURVE SMOOTH"
);
}
);
width = 1069;
}
);
note = thorn;
unicode = 00FE;
},
{
glyphname = q;
lastChange = "2018-04-04 19:07:12 +0000";
layers = (
{
anchors = (
{
name = bottom;
position = "{294, 0}";
},
{
name = top;
position = "{524, 1085}";
}
);
layerId = "9047BFCD-DDCC-4357-AC30-29E5270711EF";
paths = (
{
closed = 1;
nodes = (
"412 -20 OFFCURVE",
"496 39 OFFCURVE",
"573 158 CURVE",
"578 158 LINE",
"535 -4 LINE",
"432 -492 LINE",
"526 -492 LINE",
"860 1085 LINE",
"780 1085 LINE",
"741 956 LINE",
"735 956 LINE",
"708 1056 OFFCURVE",
"650 1106 OFFCURVE",
"561 1106 CURVE SMOOTH",
"482 1106 OFFCURVE",
"410 1069 OFFCURVE",
"344 994 CURVE SMOOTH",
"211 844 OFFCURVE",
"119 541 OFFCURVE",
"119 262 CURVE SMOOTH",
"119 74 OFFCURVE",
"186 -20 OFFCURVE",
"319 -20 CURVE SMOOTH"
);
},
{
closed = 1;
nodes = (
"247 63 OFFCURVE",
"217 127 OFFCURVE",
"217 248 CURVE SMOOTH",
"217 363 OFFCURVE",
"234 486 OFFCURVE",
"268 617 CURVE SMOOTH",
"336 878 OFFCURVE",
"440 1016 OFFCURVE",
"557 1016 CURVE SMOOTH",
"642 1016 OFFCURVE",
"692 959 OFFCURVE",
"692 848 CURVE SMOOTH",
"692 730 OFFCURVE",
"674 604 OFFCURVE",
"638 471 CURVE SMOOTH",
"566 204 OFFCURVE",
"458 63 OFFCURVE",
"338 63 CURVE SMOOTH"
);
}
);
width = 817;
},
{
anchors = (
{
name = bottom;
position = "{415, 0}";
},
{
name = top;
position = "{655, 1127}";
}
);
background = {
paths = (
{
closed = 1;
nodes = (
"422 -20 OFFCURVE",
"495 23 OFFCURVE",
"568 126 CURVE",
"579 153 LINE",
"547 60 OFFCURVE",
"533 7 OFFCURVE",
"530 -8 CURVE SMOOTH",
"428 -492 LINE",
"767 -492 LINE",
"1110 1127 LINE",
"819 1127 LINE",
"752 985 LINE",
"731 972 LINE",
"696 1083 OFFCURVE",
"630 1148 OFFCURVE",
"517 1148 CURVE SMOOTH",
"315 1148 OFFCURVE",
"160 931 OFFCURVE",
"89 595 CURVE SMOOTH",
"10 220 OFFCURVE",
"101 -20 OFFCURVE",
"328 -20 CURVE SMOOTH"
);
},
{
closed = 1;
nodes = (
"422 261 OFFCURVE",
"409 270 OFFCURVE",
"398 309 CURVE SMOOTH",
"399 368 OFFCURVE",
"405 430 OFFCURVE",
"425 524 CURVE SMOOTH",
"471 743 OFFCURVE",
"543 857 OFFCURVE",
"630 857 CURVE SMOOTH",
"652 857 OFFCURVE",
"672 848 OFFCURVE",
"683 815 CURVE SMOOTH",
"682 760 OFFCURVE",
"671 680 OFFCURVE",
"649 573 CURVE SMOOTH",
"642 541 LINE SMOOTH",
"620 437 OFFCURVE",
"587 360 OFFCURVE",
"558 335 CURVE SMOOTH",
"541 293 OFFCURVE",
"501 261 OFFCURVE",
"451 261 CURVE SMOOTH"
);
}
);
};
layerId = "055178C8-6F6F-4B48-86C1-608D4439D248";
paths = (
{
closed = 1;
nodes = (
"430 -21 OFFCURVE",
"510 20 OFFCURVE",
"569 142 CURVE",
"577 142 LINE",
"540 32 OFFCURVE",
"518 -53 OFFCURVE",
"508 -100 CURVE SMOOTH",
"438 -428 LINE",
"779 -428 LINE",
"1108 1128 LINE",
"818 1128 LINE",
"742 972 LINE",
"734 972 LINE",
"692 1078 OFFCURVE",
"626 1148 OFFCURVE",
"529 1148 CURVE SMOOTH",
"323 1148 OFFCURVE",
"161 950 OFFCURVE",
"87 596 CURVE SMOOTH",
"68 504 OFFCURVE",
"58 420 OFFCURVE",
"58 346 CURVE SMOOTH",
"58 115 OFFCURVE",
"150 -21 OFFCURVE",
"318 -21 CURVE SMOOTH"
);
},
{
closed = 1;
nodes = (
"416 265 OFFCURVE",
"398 293 OFFCURVE",
"398 358 CURVE SMOOTH",
"398 405 OFFCURVE",
"407 461 OFFCURVE",
"422 531 CURVE SMOOTH",
"441 621 OFFCURVE",
"461 683 OFFCURVE",
"498 749 CURVE SMOOTH",
"544 831 OFFCURVE",
"583 858 OFFCURVE",
"627 858 CURVE SMOOTH",
"648 858 OFFCURVE",
"682 852 OFFCURVE",
"682 805 CURVE SMOOTH",
"682 778 OFFCURVE",
"674 685 OFFCURVE",
"645 564 CURVE SMOOTH",
"623 471 OFFCURVE",
"603 404 OFFCURVE",
"561 338 CURVE SMOOTH",
"542 308 OFFCURVE",
"510 265 OFFCURVE",
"458 265 CURVE SMOOTH"
);
}
);
width = 1069;
}
);
note = q;
unicode = 0071;
},
{
glyphname = r;
lastChange = "2018-04-02 20:51:00 +0000";
layers = (
{
anchors = (
{
name = bottom;
position = "{77, 0}";
},
{
name = top;
position = "{447, 1085}";
}
);
layerId = "9047BFCD-DDCC-4357-AC30-29E5270711EF";
paths = (
{
closed = 1;
nodes = (
"480 1106 OFFCURVE",
"404 1033 OFFCURVE",
"346 895 CURVE",
"342 895 LINE",
"371 1085 LINE",
"301 1085 LINE",
"72 0 LINE",
"166 0 LINE",
"289 575 LINE SMOOTH",
"347 848 OFFCURVE",
"449 1012 OFFCURVE",
"566 1012 CURVE SMOOTH",
"586 1012 OFFCURVE",
"609 1007 OFFCURVE",
"629 997 CURVE",
"655 1094 LINE",
"632 1102 OFFCURVE",
"607 1106 OFFCURVE",
"583 1106 CURVE SMOOTH"
);
}
);
width = 504;
},
{
anchors = (
{
name = bottom;
position = "{73, 0}";
},
{
name = top;
position = "{493, 1127}";
}
);
layerId = "055178C8-6F6F-4B48-86C1-608D4439D248";
paths = (
{
closed = 1;
nodes = (
"606 1148 OFFCURVE",
"532 1090 OFFCURVE",
"461 959 CURVE",
"453 959 LINE",
"453 1127 LINE",
"175 1127 LINE",
"-63 0 LINE",
"277 0 LINE",
"396 557 LINE SMOOTH",
"408 613 OFFCURVE",
"413 636 OFFCURVE",
"448 683 CURVE SMOOTH",
"511 768 OFFCURVE",
"581 812 OFFCURVE",
"686 812 CURVE SMOOTH",
"705 812 OFFCURVE",
"720 812 OFFCURVE",
"732 808 CURVE",
"811 1129 LINE",
"781 1139 OFFCURVE",
"749 1148 OFFCURVE",
"708 1148 CURVE SMOOTH"
);
}
);
width = 746;
}
);
note = r;
unicode = 0072;
},
{
glyphname = s;
lastChange = "2018-04-02 19:31:59 +0000";
layers = (
{
anchors = (
{
name = bottom;
position = "{202, 0}";
},
{
name = top;
position = "{462, 1085}";
}
);
layerId = "9047BFCD-DDCC-4357-AC30-29E5270711EF";
paths = (
{
closed = 1;
nodes = (
"415 -20 OFFCURVE",
"524 93 OFFCURVE",
"524 293 CURVE SMOOTH",
"524 336 OFFCURVE",
"519 370 OFFCURVE",
"509 401 CURVE SMOOTH",
"487 472 OFFCURVE",
"480 480 OFFCURVE",
"371 606 CURVE SMOOTH",
"307 680 OFFCURVE",
"268 731 OFFCURVE",
"268 820 CURVE SMOOTH",
"268 948 OFFCURVE",
"348 1016 OFFCURVE",
"462 1016 CURVE SMOOTH",
"522 1016 OFFCURVE",
"582 997 OFFCURVE",
"629 958 CURVE",
"680 1044 LINE",
"625 1086 OFFCURVE",
"544 1106 OFFCURVE",
"468 1106 CURVE SMOOTH",
"285 1106 OFFCURVE",
"174 988 OFFCURVE",
"174 810 CURVE SMOOTH",
"174 776 OFFCURVE",
"178 749 OFFCURVE",
"187 718 CURVE SMOOTH",
"205 657 OFFCURVE",
"222 632 OFFCURVE",
"311 532 CURVE SMOOTH",
"352 486 OFFCURVE",
"373 462 OFFCURVE",
"389 435 CURVE SMOOTH",
"412 396 OFFCURVE",
"428 345 OFFCURVE",
"428 284 CURVE SMOOTH",
"428 151 OFFCURVE",
"352 70 OFFCURVE",
"226 70 CURVE SMOOTH",
"148 70 OFFCURVE",
"64 101 OFFCURVE",
"29 135 CURVE",
"29 25 LINE",
"58 2 OFFCURVE",
"152 -20 OFFCURVE",
"233 -20 CURVE SMOOTH"
);
}
);
width = 594;
},
{
anchors = (
{
name = bottom;
position = "{279, 0}";
},
{
name = top;
position = "{559, 1127}";
}
);
layerId = "055178C8-6F6F-4B48-86C1-608D4439D248";
paths = (
{
closed = 1;
nodes = (
"729 483 OFFCURVE",
"704 540 OFFCURVE",
"666 583 CURVE SMOOTH",
"650 601 OFFCURVE",
"625 624 OFFCURVE",
"602 640 CURVE SMOOTH",
"557 671 OFFCURVE",
"547 678 OFFCURVE",
"479 729 CURVE SMOOTH",
"455 747 OFFCURVE",
"449 776 OFFCURVE",
"449 792 CURVE SMOOTH",
"449 834 OFFCURVE",
"488 885 OFFCURVE",
"559 885 CURVE SMOOTH",
"595 885 OFFCURVE",
"651 872 OFFCURVE",
"727 832 CURVE",
"860 1056 LINE",
"759 1117 OFFCURVE",
"668 1148 OFFCURVE",
"546 1148 CURVE SMOOTH",
"317 1148 OFFCURVE",
"154 1039 OFFCURVE",
"115 850 CURVE SMOOTH",
"109 821 OFFCURVE",
"107 794 OFFCURVE",
"107 771 CURVE SMOOTH",
"107 678 OFFCURVE",
"140 595 OFFCURVE",
"206 536 CURVE SMOOTH",
"260 487 OFFCURVE",
"266 483 OFFCURVE",
"320 451 CURVE SMOOTH",
"351 432 OFFCURVE",
"385 399 OFFCURVE",
"385 354 CURVE SMOOTH",
"385 289 OFFCURVE",
"316 239 OFFCURVE",
"238 239 CURVE SMOOTH",
"178 239 OFFCURVE",
"66 269 OFFCURVE",
"-7 321 CURVE",
"-41 55 LINE",
"27 9 OFFCURVE",
"128 -20 OFFCURVE",
"248 -20 CURVE SMOOTH",
"526 -20 OFFCURVE",
"729 133 OFFCURVE",
"729 393 CURVE SMOOTH"
);
}
);
width = 818;
}
);
note = s;
unicode = 0073;
},
{
glyphname = germandbls;
lastChange = "2018-04-09 14:56:33 +0000";
layers = (
{
anchors = (
{
name = bottom;
position = "{256, 0}";
},
{
name = top;
position = "{486, 1085}";
}
);
layerId = "9047BFCD-DDCC-4357-AC30-29E5270711EF";
paths = (
{
closed = 1;
nodes = (
"461 1567 OFFCURVE",
"362 1445 OFFCURVE",
"311 1204 CURVE SMOOTH",
"33 -100 LINE SMOOTH",
"14 -187 OFFCURVE",
"0 -245 OFFCURVE",
"-14 -286 CURVE SMOOTH",
"-44 -375 OFFCURVE",
"-76 -401 OFFCURVE",
"-140 -401 CURVE SMOOTH",
"-165 -401 OFFCURVE",
"-195 -397 OFFCURVE",
"-219 -389 CURVE",
"-219 -481 LINE",
"-194 -488 OFFCURVE",
"-164 -492 OFFCURVE",
"-132 -492 CURVE SMOOTH",
"-30 -492 OFFCURVE",
"17 -450 OFFCURVE",
"58 -347 CURVE SMOOTH",
"80 -292 OFFCURVE",
"102 -212 OFFCURVE",
"125 -106 CURVE SMOOTH",
"409 1214 LINE SMOOTH",
"447 1392 OFFCURVE",
"510 1473 OFFCURVE",
"610 1473 CURVE SMOOTH",
"674 1473 OFFCURVE",
"717 1440 OFFCURVE",
"717 1346 CURVE SMOOTH",
"717 1233 OFFCURVE",
"655 1161 OFFCURVE",
"563 1055 CURVE SMOOTH",
"502 985 OFFCURVE",
"449 908 OFFCURVE",
"449 800 CURVE SMOOTH",
"449 742 OFFCURVE",
"467 686 OFFCURVE",
"510 592 CURVE SMOOTH",
"541 524 LINE SMOOTH",
"574 451 OFFCURVE",
"592 373 OFFCURVE",
"592 305 CURVE SMOOTH",
"592 162 OFFCURVE",
"514 70 OFFCURVE",
"391 70 CURVE SMOOTH",
"336 70 OFFCURVE",
"280 88 OFFCURVE",
"229 125 CURVE",
"229 25 LINE",
"260 0 OFFCURVE",
"321 -20 OFFCURVE",
"389 -20 CURVE SMOOTH",
"569 -20 OFFCURVE",
"688 120 OFFCURVE",
"688 318 CURVE SMOOTH",
"688 420 OFFCURVE",
"660 502 OFFCURVE",
"621 578 CURVE SMOOTH",
"579 660 OFFCURVE",
"545 728 OFFCURVE",
"545 807 CURVE SMOOTH",
"545 888 OFFCURVE",
"587 946 OFFCURVE",
"662 1038 CURVE SMOOTH",
"749 1145 OFFCURVE",
"813 1225 OFFCURVE",
"813 1353 CURVE SMOOTH",
"813 1483 OFFCURVE",
"747 1567 OFFCURVE",
"617 1567 CURVE SMOOTH"
);
}
);
width = 741;
},
{
anchors = (
{
name = bottom;
position = "{495, 0}";
},
{
name = top;
position = "{735, 1127}";
}
);
layerId = "055178C8-6F6F-4B48-86C1-608D4439D248";
paths = (
{
closed = 1;
nodes = (
"1200 1221 OFFCURVE",
"1203 1244 OFFCURVE",
"1203 1269 CURVE SMOOTH",
"1203 1455 OFFCURVE",
"1030 1567 OFFCURVE",
"752 1567 CURVE SMOOTH",
"444 1567 OFFCURVE",
"248 1430 OFFCURVE",
"187 1143 CURVE SMOOTH",
"-55 0 LINE",
"286 0 LINE",
"519 1098 LINE SMOOTH",
"543 1212 OFFCURVE",
"610 1290 OFFCURVE",
"741 1290 CURVE SMOOTH",
"813 1290 OFFCURVE",
"849 1266 OFFCURVE",
"849 1217 CURVE SMOOTH",
"849 1209 OFFCURVE",
"848 1200 OFFCURVE",
"846 1191 CURVE SMOOTH",
"835 1144 OFFCURVE",
"807 1105 OFFCURVE",
"684 1013 CURVE SMOOTH",
"587 940 OFFCURVE",
"558 867 OFFCURVE",
"544 803 CURVE SMOOTH",
"539 779 OFFCURVE",
"536 756 OFFCURVE",
"536 736 CURVE SMOOTH",
"536 653 OFFCURVE",
"586 592 OFFCURVE",
"679 520 CURVE SMOOTH",
"763 455 OFFCURVE",
"777 416 OFFCURVE",
"777 377 CURVE SMOOTH",
"777 292 OFFCURVE",
"710 239 OFFCURVE",
"601 239 CURVE SMOOTH",
"551 239 OFFCURVE",
"478 250 OFFCURVE",
"409 303 CURVE",
"375 40 LINE",
"437 5 OFFCURVE",
"512 -20 OFFCURVE",
"631 -20 CURVE SMOOTH",
"901 -20 OFFCURVE",
"1070 110 OFFCURVE",
"1115 320 CURVE SMOOTH",
"1123 358 OFFCURVE",
"1130 409 OFFCURVE",
"1130 448 CURVE SMOOTH",
"1130 515 OFFCURVE",
"1114 565 OFFCURVE",
"1069 614 CURVE SMOOTH",
"1037 649 OFFCURVE",
"1003 669 OFFCURVE",
"959 694 CURVE SMOOTH",
"924 714 OFFCURVE",
"870 747 OFFCURVE",
"870 784 CURVE SMOOTH",
"870 819 OFFCURVE",
"917 849 OFFCURVE",
"1006 904 CURVE SMOOTH",
"1073 945 OFFCURVE",
"1157 1020 OFFCURVE",
"1195 1196 CURVE SMOOTH"
);
}
);
width = 1230;
}
);
note = germandbls;
unicode = 00DF;
},
{
glyphname = longs;
lastChange = "2018-04-02 20:51:00 +0000";
layers = (
{
anchors = (
{
name = bottom;
position = "{56, 0}";
},
{
name = top;
position = "{286, 1085}";
}
);
layerId = "9047BFCD-DDCC-4357-AC30-29E5270711EF";
paths = (
{
closed = 1;
nodes = (
"-38 -492 OFFCURVE",
"9 -450 OFFCURVE",
"50 -347 CURVE SMOOTH",
"70 -297 OFFCURVE",
"92 -221 OFFCURVE",
"117 -106 CURVE SMOOTH",
"393 1176 LINE SMOOTH",
"411 1260 OFFCURVE",
"428 1324 OFFCURVE",
"441 1362 CURVE SMOOTH",
"468 1441 OFFCURVE",
"497 1475 OFFCURVE",
"559 1475 CURVE SMOOTH",
"588 1475 OFFCURVE",
"615 1468 OFFCURVE",
"641 1454 CURVE",
"682 1542 LINE",
"652 1559 OFFCURVE",
"615 1567 OFFCURVE",
"570 1567 CURVE SMOOTH",
"518 1567 OFFCURVE",
"476 1556 OFFCURVE",
"445 1533 CURVE SMOOTH",
"381 1487 OFFCURVE",
"340 1378 OFFCURVE",
"301 1194 CURVE SMOOTH",
"25 -100 LINE SMOOTH",
"4 -198 OFFCURVE",
"-12 -255 OFFCURVE",
"-25 -292 CURVE SMOOTH",
"-54 -375 OFFCURVE",
"-83 -401 OFFCURVE",
"-148 -401 CURVE SMOOTH",
"-173 -401 OFFCURVE",
"-203 -397 OFFCURVE",
"-227 -389 CURVE",
"-227 -481 LINE",
"-202 -488 OFFCURVE",
"-172 -492 OFFCURVE",
"-140 -492 CURVE SMOOTH"
);
}
);
width = 342;
},
{
anchors = (
{
name = bottom;
position = "{4, 0}";
},
{
name = top;
position = "{244, 1127}";
}
);
layerId = "055178C8-6F6F-4B48-86C1-608D4439D248";
paths = (
{
closed = 1;
nodes = (
"507 1242 OFFCURVE",
"545 1299 OFFCURVE",
"605 1299 CURVE SMOOTH",
"635 1299 OFFCURVE",
"668 1289 OFFCURVE",
"700 1268 CURVE",
"818 1507 LINE",
"748 1543 OFFCURVE",
"681 1567 OFFCURVE",
"574 1567 CURVE SMOOTH",
"341 1567 OFFCURVE",
"211 1452 OFFCURVE",
"163 1225 CURVE SMOOTH",
"-97 0 LINE",
"244 0 LINE",
"497 1193 LINE SMOOTH"
);
}
);
width = 638;
}
);
note = longs;
unicode = 017F;
},
{
glyphname = t;
lastChange = "2018-04-09 14:56:47 +0000";
layers = (
{
anchors = (
{
name = bottom;
position = "{167, 0}";
},
{
name = center;
position = "{202, 543}";
},
{
name = top;
position = "{317, 1085}";
},
{
name = topright;
position = "{736, 1556}";
}
);
layerId = "9047BFCD-DDCC-4357-AC30-29E5270711EF";
paths = (
{
closed = 1;
nodes = (
"305 72 OFFCURVE",
"283 68 OFFCURVE",
"262 68 CURVE SMOOTH",
"214 68 OFFCURVE",
"193 92 OFFCURVE",
"193 152 CURVE SMOOTH",
"193 180 OFFCURVE",
"198 215 OFFCURVE",
"207 258 CURVE SMOOTH",
"365 1001 LINE",
"508 1001 LINE",
"526 1085 LINE",
"383 1085 LINE",
"438 1343 LINE",
"369 1343 LINE",
"289 1085 LINE",
"186 1057 LINE",
"174 1001 LINE",
"272 1001 LINE",
"109 231 LINE SMOOTH",
"100 190 OFFCURVE",
"96 156 OFFCURVE",
"96 131 CURVE SMOOTH",
"96 30 OFFCURVE",
"138 -20 OFFCURVE",
"223 -20 CURVE SMOOTH",
"256 -20 OFFCURVE",
"291 -13 OFFCURVE",
"328 0 CURVE",
"328 80 LINE"
);
}
);
width = 403;
},
{
anchors = (
{
name = bottom;
position = "{359, 0}";
},
{
name = center;
position = "{379, 564}";
},
{
name = top;
position = "{499, 1127}";
},
{
name = topright;
position = "{857, 1127}";
}
);
layerId = "055178C8-6F6F-4B48-86C1-608D4439D248";
paths = (
{
closed = 1;
nodes = (
"459 263 OFFCURVE",
"441 271 OFFCURVE",
"441 303 CURVE SMOOTH",
"441 310 OFFCURVE",
"442 318 OFFCURVE",
"444 327 CURVE SMOOTH",
"557 861 LINE",
"771 861 LINE",
"827 1127 LINE",
"613 1127 LINE",
"662 1359 LINE",
"443 1359 LINE",
"307 1132 LINE",
"126 1007 LINE",
"99 861 LINE",
"212 861 LINE",
"110 382 LINE SMOOTH",
"100 334 OFFCURVE",
"95 289 OFFCURVE",
"95 249 CURVE SMOOTH",
"95 70 OFFCURVE",
"190 -20 OFFCURVE",
"400 -20 CURVE SMOOTH",
"473 -20 OFFCURVE",
"557 -9 OFFCURVE",
"611 27 CURVE",
"648 305 LINE",
"591 281 OFFCURVE",
"537 263 OFFCURVE",
"490 263 CURVE SMOOTH"
);
}
);
width = 757;
}
);
note = t;
unicode = 0074;
},
{
glyphname = tbar;
lastChange = "2018-04-02 20:51:00 +0000";
layers = (
{
layerId = "9047BFCD-DDCC-4357-AC30-29E5270711EF";
paths = (
{
closed = 1;
nodes = (
"305 72 OFFCURVE",
"283 68 OFFCURVE",
"262 68 CURVE SMOOTH",
"214 68 OFFCURVE",
"193 92 OFFCURVE",
"193 152 CURVE SMOOTH",
"193 180 OFFCURVE",
"198 215 OFFCURVE",
"207 258 CURVE SMOOTH",
"289 643 LINE",
"442 643 LINE",
"461 731 LINE",
"307 731 LINE",
"365 1001 LINE",
"508 1001 LINE",
"526 1085 LINE",
"383 1085 LINE",
"438 1343 LINE",
"369 1343 LINE",
"289 1085 LINE",
"186 1057 LINE",
"174 1001 LINE",
"272 1001 LINE",
"215 731 LINE",
"100 731 LINE",
"82 643 LINE",
"197 643 LINE",
"109 231 LINE SMOOTH",
"100 190 OFFCURVE",
"96 156 OFFCURVE",
"96 131 CURVE SMOOTH",
"96 30 OFFCURVE",
"138 -20 OFFCURVE",
"223 -20 CURVE SMOOTH",
"256 -20 OFFCURVE",
"291 -13 OFFCURVE",
"328 0 CURVE",
"328 80 LINE"
);
}
);
width = 403;
},
{
layerId = "055178C8-6F6F-4B48-86C1-608D4439D248";
paths = (
{
closed = 1;
nodes = (
"129 473 LINE",
"110 382 LINE SMOOTH",
"100 334 OFFCURVE",
"95 289 OFFCURVE",
"95 249 CURVE SMOOTH",
"95 70 OFFCURVE",
"190 -20 OFFCURVE",
"400 -20 CURVE SMOOTH",
"473 -20 OFFCURVE",
"557 -9 OFFCURVE",
"611 27 CURVE",
"648 305 LINE",
"591 281 OFFCURVE",
"537 263 OFFCURVE",
"490 263 CURVE SMOOTH",
"459 263 OFFCURVE",
"441 271 OFFCURVE",
"441 303 CURVE SMOOTH",
"441 310 OFFCURVE",
"442 318 OFFCURVE",
"444 327 CURVE SMOOTH",
"475 473 LINE",
"660 473 LINE",
"709 705 LINE",
"524 705 LINE",
"557 861 LINE",
"771 861 LINE",
"827 1127 LINE",
"613 1127 LINE",
"662 1359 LINE",
"443 1359 LINE",
"307 1132 LINE",
"126 1007 LINE",
"99 861 LINE",
"212 861 LINE",
"179 705 LINE",
"66 705 LINE",
"17 473 LINE"
);
}
);
width = 757;
}
);
note = tbar;
unicode = 0167;
},
{
glyphname = tcaron;
lastChange = "2018-04-02 19:43:26 +0000";
layers = (
{
background = {
paths = (
{
closed = 1;
nodes = (
"305 72 OFFCURVE",
"283 68 OFFCURVE",
"262 68 CURVE SMOOTH",
"214 68 OFFCURVE",
"193 92 OFFCURVE",
"193 152 CURVE SMOOTH",
"193 180 OFFCURVE",
"198 215 OFFCURVE",
"207 258 CURVE SMOOTH",
"365 1001 LINE",
"508 1001 LINE",
"526 1085 LINE",
"383 1085 LINE",
"438 1343 LINE",
"369 1343 LINE",
"289 1085 LINE",
"186 1057 LINE",
"174 1001 LINE",
"272 1001 LINE",
"109 231 LINE SMOOTH",
"100 190 OFFCURVE",
"96 156 OFFCURVE",
"96 131 CURVE SMOOTH",
"96 30 OFFCURVE",
"138 -20 OFFCURVE",
"223 -20 CURVE SMOOTH",
"256 -20 OFFCURVE",
"291 -13 OFFCURVE",
"328 0 CURVE",
"328 80 LINE"
);
},
{
closed = 1;
nodes = (
"555 1229 LINE",
"608 1293 OFFCURVE",
"705 1456 OFFCURVE",
"736 1536 CURVE",
"736 1556 LINE",
"629 1556 LINE",
"608 1485 OFFCURVE",
"570 1381 OFFCURVE",
"515 1245 CURVE",
"515 1229 LINE"
);
}
);
};
components = (
{
name = t;
},
{
name = caron.alt;
transform = "{1, 0, 0, 1, 366, 0}";
}
);
layerId = "9047BFCD-DDCC-4357-AC30-29E5270711EF";
width = 403;
},
{
components = (
{
name = t;
},
{
name = caron.alt;
transform = "{1, 0, 0, 1, 500, 0}";
}
);
layerId = "055178C8-6F6F-4B48-86C1-608D4439D248";
width = 757;
}
);
note = tcaron;
unicode = 0165;
},
{
glyphname = u;
lastChange = "2018-04-09 14:57:57 +0000";
layers = (
{
anchors = (
{
name = bottom;
position = "{378, 0}";
},
{
name = ogonek;
position = "{592, 10}";
},
{
name = top;
position = "{578, 1085}";
},
{
name = topright;
position = "{881, 1085}";
}
);
layerId = "9047BFCD-DDCC-4357-AC30-29E5270711EF";
paths = (
{
closed = 1;
nodes = (
"143 344 LINE SMOOTH",
"130 284 OFFCURVE",
"123 232 OFFCURVE",
"123 183 CURVE SMOOTH",
"123 46 OFFCURVE",
"177 -20 OFFCURVE",
"285 -20 CURVE SMOOTH",
"380 -20 OFFCURVE",
"459 32 OFFCURVE",
"526 135 CURVE",
"530 135 LINE",
"522 0 LINE",
"596 0 LINE",
"827 1085 LINE",
"733 1085 LINE",
"606 489 LINE SMOOTH",
"548 216 OFFCURVE",
"448 72 OFFCURVE",
"314 72 CURVE SMOOTH",
"246 72 OFFCURVE",
"215 109 OFFCURVE",
"215 197 CURVE SMOOTH",
"215 235 OFFCURVE",
"221 276 OFFCURVE",
"233 330 CURVE SMOOTH",
"395 1085 LINE",
"301 1085 LINE"
);
}
);
width = 786;
},
{
anchors = (
{
name = bottom;
position = "{395, 0}";
},
{
name = ogonek;
position = "{861, 10}";
},
{
name = top;
position = "{615, 1127}";
},
{
name = topright;
position = "{982, 1127}";
}
);
background = {
paths = (
{
closed = 1;
nodes = (
"19 407 LINE SMOOTH",
"-38 136 OFFCURVE",
"61 -20 OFFCURVE",
"275 -20 CURVE SMOOTH",
"404 -20 OFFCURVE",
"501 37 OFFCURVE",
"568 126 CURVE",
"589 139 LINE",
"596 0 LINE",
"862 0 LINE",
"1101 1127 LINE",
"758 1127 LINE",
"653 634 LINE SMOOTH",
"627 508 OFFCURVE",
"591 412 OFFCURVE",
"562 377 CURVE SMOOTH",
"529 302 OFFCURVE",
"470 263 OFFCURVE",
"414 263 CURVE SMOOTH",
"350 263 OFFCURVE",
"347 327 OFFCURVE",
"377 468 CURVE SMOOTH",
"516 1127 LINE",
"172 1127 LINE"
);
}
);
};
layerId = "055178C8-6F6F-4B48-86C1-608D4439D248";
paths = (
{
closed = 1;
nodes = (
"19 407 LINE SMOOTH",
"8 356 OFFCURVE",
"3 310 OFFCURVE",
"3 267 CURVE SMOOTH",
"3 83 OFFCURVE",
"101 -20 OFFCURVE",
"275 -20 CURVE SMOOTH",
"404 -20 OFFCURVE",
"514 40 OFFCURVE",
"581 139 CURVE",
"589 139 LINE",
"596 0 LINE",
"862 0 LINE",
"1101 1127 LINE",
"758 1127 LINE",
"653 634 LINE SMOOTH",
"626 506 OFFCURVE",
"593 424 OFFCURVE",
"565 375 CURVE SMOOTH",
"525 305 OFFCURVE",
"471 263 OFFCURVE",
"416 263 CURVE SMOOTH",
"375 263 OFFCURVE",
"359 286 OFFCURVE",
"359 337 CURVE SMOOTH",
"359 370 OFFCURVE",
"365 413 OFFCURVE",
"377 468 CURVE SMOOTH",
"516 1127 LINE",
"172 1127 LINE"
);
}
);
width = 1034;
}
);
note = u;
unicode = 0075;
},
{
glyphname = uhorn;
lastChange = "2018-04-09 14:59:41 +0000";
layers = (
{
anchors = (
{
name = bottom;
position = "{314, 0}";
},
{
name = top;
position = "{544, 1085}";
}
);
layerId = "9047BFCD-DDCC-4357-AC30-29E5270711EF";
paths = (
{
closed = 1;
nodes = (
"143 344 LINE SMOOTH",
"130 284 OFFCURVE",
"123 232 OFFCURVE",
"123 183 CURVE SMOOTH",
"123 47 OFFCURVE",
"176 -20 OFFCURVE",
"284 -20 CURVE SMOOTH",
"375 -20 OFFCURVE",
"454 28 OFFCURVE",
"526 135 CURVE",
"530 135 LINE",
"522 0 LINE",
"596 0 LINE",
"778 856 LINE",
"943 896 OFFCURVE",
"1053 1021 OFFCURVE",
"1089 1217 CURVE",
"1081 1243 LINE",
"997 1243 LINE",
"965 1069 OFFCURVE",
"898 970 OFFCURVE",
"796 946 CURVE",
"827 1085 LINE",
"733 1085 LINE",
"606 489 LINE SMOOTH",
"548 216 OFFCURVE",
"448 72 OFFCURVE",
"314 72 CURVE SMOOTH",
"246 72 OFFCURVE",
"215 109 OFFCURVE",
"215 197 CURVE SMOOTH",
"215 235 OFFCURVE",
"221 276 OFFCURVE",
"233 330 CURVE SMOOTH",
"395 1085 LINE",
"301 1085 LINE"
);
}
);
width = 848;
},
{
anchors = (
{
name = bottom;
position = "{470, 0}";
},
{
name = top;
position = "{640, 1127}";
}
);
background = {
paths = (
{
closed = 1;
nodes = (
"19 407 LINE SMOOTH",
"-38 136 OFFCURVE",
"61 -20 OFFCURVE",
"275 -20 CURVE SMOOTH",
"404 -20 OFFCURVE",
"501 37 OFFCURVE",
"568 126 CURVE",
"589 139 LINE",
"596 0 LINE",
"862 0 LINE",
"1045 803 LINE",
"1114 811 OFFCURVE",
"1204 821 OFFCURVE",
"1293 844 CURVE SMOOTH",
"1451 911 OFFCURVE",
"1559 1040 OFFCURVE",
"1659 1265 CURVE",
"1644 1298 LINE",
"1284 1313 LINE",
"1254 1169 OFFCURVE",
"1166 1054 OFFCURVE",
"1066 1020 CURVE",
"1102 1127 LINE",
"758 1127 LINE",
"653 634 LINE SMOOTH",
"626 503 OFFCURVE",
"591 412 OFFCURVE",
"561 375 CURVE SMOOTH",
"532 308 OFFCURVE",
"477 263 OFFCURVE",
"415 263 CURVE SMOOTH",
"350 263 OFFCURVE",
"347 327 OFFCURVE",
"377 468 CURVE SMOOTH",
"516 1127 LINE",
"172 1127 LINE"
);
}
);
};
layerId = "055178C8-6F6F-4B48-86C1-608D4439D248";
paths = (
{
closed = 1;
nodes = (
"3 83 OFFCURVE",
"101 -20 OFFCURVE",
"275 -20 CURVE SMOOTH",
"404 -20 OFFCURVE",
"514 40 OFFCURVE",
"581 139 CURVE",
"589 139 LINE",
"596 0 LINE",
"862 0 LINE",
"1032 802 LINE",
"1032 801 LINE",
"1103 803 OFFCURVE",
"1203 809 OFFCURVE",
"1293 844 CURVE SMOOTH",
"1451 905 OFFCURVE",
"1559 1040 OFFCURVE",
"1659 1265 CURVE",
"1644 1298 LINE",
"1284 1298 LINE",
"1256 1161 OFFCURVE",
"1174 1064 OFFCURVE",
"1079 1025 CURVE",
"1101 1127 LINE",
"758 1127 LINE",
"653 634 LINE SMOOTH",
"626 506 OFFCURVE",
"593 424 OFFCURVE",
"565 375 CURVE SMOOTH",
"525 305 OFFCURVE",
"471 263 OFFCURVE",
"416 263 CURVE SMOOTH",
"375 263 OFFCURVE",
"359 286 OFFCURVE",
"359 337 CURVE SMOOTH",
"359 370 OFFCURVE",
"365 413 OFFCURVE",
"377 468 CURVE SMOOTH",
"516 1127 LINE",
"172 1127 LINE",
"19 407 LINE SMOOTH",
"8 356 OFFCURVE",
"3 310 OFFCURVE",
"3 267 CURVE SMOOTH"
);
}
);
width = 1400;
}
);
leftMetricsKey = u;
note = uhorn;
unicode = 01B0;
},
{
glyphname = v;
lastChange = "2018-04-09 15:04:01 +0000";
layers = (
{
anchors = (
{
name = bottom;
position = "{179, 0}";
},
{
name = top;
position = "{409, 1085}";
}
);
layerId = "9047BFCD-DDCC-4357-AC30-29E5270711EF";
paths = (
{
closed = 1;
nodes = (
"750 1085 LINE",
"651 1085 LINE",
"446 590 OFFCURVE",
"333 317 OFFCURVE",
"313 264 CURVE SMOOTH",
"293 211 OFFCURVE",
"276 164 OFFCURVE",
"262 123 CURVE",
"256 123 LINE",
"265 200 OFFCURVE",
"272 375 OFFCURVE",
"272 426 CURVE SMOOTH",
"272 1085 LINE",
"178 1085 LINE",
"178 0 LINE",
"291 0 LINE"
);
}
);
width = 588;
},
{
anchors = (
{
name = bottom;
position = "{393, 0}";
},
{
name = top;
position = "{633, 1127}";
}
);
background = {
paths = (
{
closed = 1;
nodes = (
"183 0 LINE",
"605 0 LINE",
"1151 1127 LINE",
"792 1127 LINE",
"525 518 LINE SMOOTH",
"506 467 OFFCURVE",
"455 299 OFFCURVE",
"448 266 CURVE",
"439 237 LINE",
"448 270 OFFCURVE",
"463 439 OFFCURVE",
"463 490 CURVE SMOOTH",
"462 1127 LINE",
"115 1127 LINE"
);
}
);
};
layerId = "055178C8-6F6F-4B48-86C1-608D4439D248";
paths = (
{
closed = 1;
nodes = (
"183 0 LINE",
"605 0 LINE",
"1151 1127 LINE",
"792 1127 LINE",
"530 518 LINE SMOOTH",
"498 443 OFFCURVE",
"459 292 OFFCURVE",
"449 239 CURVE",
"441 239 LINE",
"450 272 OFFCURVE",
"465 458 OFFCURVE",
"465 509 CURVE SMOOTH",
"462 1127 LINE",
"115 1127 LINE"
);
}
);
width = 1026;
}
);
note = v;
unicode = 0076;
},
{
glyphname = w;
lastChange = "2018-04-09 15:07:11 +0000";
layers = (
{
anchors = (
{
name = bottom;
position = "{391, 0}";
},
{
name = top;
position = "{661, 1085}";
}
);
layerId = "9047BFCD-DDCC-4357-AC30-29E5270711EF";
paths = (
{
closed = 1;
nodes = (
"1165 1085 LINE",
"1069 1085 LINE",
"756 280 LINE SMOOTH",
"737 232 OFFCURVE",
"715 175 OFFCURVE",
"696 123 CURVE",
"692 123 LINE",
"696 191 LINE SMOOTH",
"702 300 OFFCURVE",
"708 354 OFFCURVE",
"711 453 CURVE SMOOTH",
"727 1085 LINE",
"618 1085 LINE",
"423 578 OFFCURVE",
"316 296 OFFCURVE",
"294 238 CURVE SMOOTH",
"268 169 OFFCURVE",
"259 142 OFFCURVE",
"254 123 CURVE",
"250 123 LINE",
"263 231 OFFCURVE",
"270 366 OFFCURVE",
"272 453 CURVE SMOOTH",
"285 1085 LINE",
"190 1085 LINE",
"170 0 LINE",
"287 0 LINE",
"488 523 OFFCURVE",
"584 774 OFFCURVE",
"595 805 CURVE SMOOTH",
"616 863 OFFCURVE",
"632 910 OFFCURVE",
"649 963 CURVE",
"644 887 OFFCURVE",
"640 811 OFFCURVE",
"637 735 CURVE SMOOTH",
"608 0 LINE",
"729 0 LINE"
);
}
);
width = 1012;
},
{
anchors = (
{
name = bottom;
position = "{576, 0}";
},
{
name = top;
position = "{946, 1127}";
}
);
background = {
paths = (
{
closed = 1;
nodes = (
"1731 1127 LINE",
"1398 1141 LINE",
"1311 885 OFFCURVE",
"1292 833 OFFCURVE",
"1207 620 CURVE SMOOTH",
"1177 528 OFFCURVE",
"1137 397 OFFCURVE",
"1093 248 CURVE",
"1084 219 LINE",
"1110 344 OFFCURVE",
"1119 448 OFFCURVE",
"1123 506 CURVE SMOOTH",
"1156 1127 LINE",
"709 1127 LINE",
"484 536 LINE SMOOTH",
"477 511 OFFCURVE",
"422 321 OFFCURVE",
"407 249 CURVE",
"392 219 LINE",
"421 356 OFFCURVE",
"428 413 OFFCURVE",
"435 506 CURVE SMOOTH",
"478 1127 LINE",
"141 1127 LINE",
"118 0 LINE",
"557 -14 LINE",
"775 558 OFFCURVE",
"797 627 OFFCURVE",
"821 695 CURVE SMOOTH",
"840 766 OFFCURVE",
"862 833 OFFCURVE",
"881 896 CURVE",
"893 924 LINE",
"882 828 OFFCURVE",
"877 748 OFFCURVE",
"872 638 CURVE SMOOTH",
"853 417 OFFCURVE",
"844 217 OFFCURVE",
"835 14 CURVE",
"1278 0 LINE"
);
}
);
};
layerId = "055178C8-6F6F-4B48-86C1-608D4439D248";
paths = (
{
closed = 1;
nodes = (
"1731 1127 LINE",
"1394 1127 LINE",
"1305 871 OFFCURVE",
"1291 833 OFFCURVE",
"1207 620 CURVE SMOOTH",
"1171 530 OFFCURVE",
"1133 388 OFFCURVE",
"1094 239 CURVE",
"1086 239 LINE",
"1112 364 OFFCURVE",
"1120 448 OFFCURVE",
"1123 506 CURVE SMOOTH",
"1156 1127 LINE",
"709 1127 LINE",
"484 536 LINE SMOOTH",
"463 481 OFFCURVE",
"422 311 OFFCURVE",
"407 239 CURVE",
"399 239 LINE",
"423 376 OFFCURVE",
"433 477 OFFCURVE",
"437 530 CURVE SMOOTH",
"478 1127 LINE",
"141 1127 LINE",
"118 0 LINE",
"561 0 LINE",
"780 571 OFFCURVE",
"801 626 OFFCURVE",
"821 695 CURVE SMOOTH",
"842 766 OFFCURVE",
"864 839 OFFCURVE",
"883 902 CURVE",
"891 902 LINE",
"883 806 OFFCURVE",
"879 748 OFFCURVE",
"872 638 CURVE SMOOTH",
"857 417 OFFCURVE",
"844 203 OFFCURVE",
"835 0 CURVE",
"1278 0 LINE"
);
}
);
width = 1631;
}
);
note = w;
unicode = 0077;
},
{
glyphname = x;
lastChange = "2018-04-02 19:31:59 +0000";
layers = (
{
anchors = (
{
name = bottom;
position = "{189, 0}";
},
{
name = top;
position = "{419, 1085}";
}
);
layerId = "9047BFCD-DDCC-4357-AC30-29E5270711EF";
paths = (
{
closed = 1;
nodes = (
"74 0 LINE",
"342 461 LINE",
"422 0 LINE",
"518 0 LINE",
"410 547 LINE",
"737 1085 LINE",
"637 1085 LINE",
"387 651 LINE",
"317 1085 LINE",
"221 1085 LINE",
"313 571 LINE",
"-27 0 LINE"
);
}
);
width = 608;
},
{
anchors = (
{
name = bottom;
position = "{256, 0}";
},
{
name = top;
position = "{626, 1127}";
}
);
layerId = "055178C8-6F6F-4B48-86C1-608D4439D248";
paths = (
{
closed = 1;
nodes = (
"248 0 LINE",
"440 308 LINE",
"510 0 LINE",
"855 0 LINE",
"674 577 LINE",
"1091 1127 LINE",
"734 1127 LINE",
"553 830 LINE",
"486 1127 LINE",
"143 1127 LINE",
"317 572 LINE",
"-115 0 LINE"
);
}
);
width = 980;
}
);
note = x;
unicode = 0078;
},
{
glyphname = y;
lastChange = "2018-04-09 15:11:37 +0000";
layers = (
{
anchors = (
{
name = bottom;
position = "{379, 0}";
},
{
name = top;
position = "{449, 1085}";
}
);
layerId = "9047BFCD-DDCC-4357-AC30-29E5270711EF";
paths = (
{
closed = 1;
nodes = (
"47 -492 OFFCURVE",
"114 -424 OFFCURVE",
"190 -244 CURVE SMOOTH",
"752 1085 LINE",
"653 1085 LINE",
"365 387 LINE SMOOTH",
"337 319 OFFCURVE",
"301 222 OFFCURVE",
"268 123 CURVE",
"262 123 LINE",
"270 231 OFFCURVE",
"274 339 OFFCURVE",
"274 446 CURVE SMOOTH",
"274 1085 LINE",
"180 1085 LINE",
"188 -61 LINE",
"205 26 LINE",
"117 -186 LINE SMOOTH",
"81 -272 OFFCURVE",
"48 -330 OFFCURVE",
"23 -359 CURVE SMOOTH",
"-2 -388 OFFCURVE",
"-33 -403 OFFCURVE",
"-75 -403 CURVE SMOOTH",
"-100 -403 OFFCURVE",
"-134 -398 OFFCURVE",
"-158 -387 CURVE",
"-158 -473 LINE",
"-129 -486 OFFCURVE",
"-100 -492 OFFCURVE",
"-66 -492 CURVE SMOOTH"
);
}
);
width = 588;
},
{
anchors = (
{
name = bottom;
position = "{812, 0}";
},
{
name = top;
position = "{642, 1127}";
}
);
layerId = "055178C8-6F6F-4B48-86C1-608D4439D248";
paths = (
{
closed = 1;
nodes = (
"267 -492 OFFCURVE",
"425 -372 OFFCURVE",
"585 -41 CURVE SMOOTH",
"1149 1127 LINE",
"782 1127 LINE",
"638 775 OFFCURVE",
"544 544 OFFCURVE",
"523 471 CURVE SMOOTH",
"509 421 OFFCURVE",
"481 321 OFFCURVE",
"472 286 CURVE",
"464 286 LINE",
"476 371 OFFCURVE",
"482 458 OFFCURVE",
"482 495 CURVE SMOOTH",
"482 528 OFFCURVE",
"482 658 OFFCURVE",
"463 1127 CURVE",
"116 1127 LINE",
"239 -182 LINE",
"289 109 LINE",
"204 -107 OFFCURVE",
"100 -204 OFFCURVE",
"-32 -204 CURVE SMOOTH",
"-46 -204 OFFCURVE",
"-85 -204 OFFCURVE",
"-113 -197 CURVE",
"-146 -472 LINE",
"-104 -483 OFFCURVE",
"-49 -492 OFFCURVE",
"19 -492 CURVE SMOOTH"
);
}
);
width = 1025;
}
);
note = y;
unicode = 0079;
},
{
glyphname = z;
lastChange = "2018-04-09 15:11:59 +0000";
layers = (
{
anchors = (
{
name = bottom;
position = "{129, 0}";
},
{
name = top;
position = "{399, 1085}";
}
);
layerId = "9047BFCD-DDCC-4357-AC30-29E5270711EF";
paths = (
{
closed = 1;
nodes = (
"111 84 LINE",
"588 1008 LINE",
"604 1085 LINE",
"240 1085 LINE",
"221 1001 LINE",
"485 1001 LINE",
"10 76 LINE",
"-4 0 LINE",
"389 0 LINE",
"408 84 LINE"
);
}
);
width = 487;
},
{
anchors = (
{
name = bottom;
position = "{286, 0}";
},
{
name = top;
position = "{526, 1127}";
}
);
layerId = "055178C8-6F6F-4B48-86C1-608D4439D248";
paths = (
{
closed = 1;
nodes = (
"370 271 LINE",
"838 891 LINE",
"884 1127 LINE",
"178 1127 LINE",
"121 856 LINE",
"448 856 LINE",
"-42 211 LINE",
"-82 0 LINE",
"659 0 LINE",
"717 271 LINE"
);
}
);
width = 812;
}
);
note = z;
unicode = 007A;
},
{
glyphname = g.ss02;
lastChange = "2018-04-09 15:16:59 +0000";
layers = (
{
anchors = (
{
name = bottom;
position = "{293, 0}";
},
{
name = top;
position = "{563, 1085}";
}
);
layerId = "9047BFCD-DDCC-4357-AC30-29E5270711EF";
paths = (
{
closed = 1;
nodes = (
"477 -285 OFFCURVE",
"397 -387 OFFCURVE",
"244 -387 CURVE SMOOTH",
"173 -387 OFFCURVE",
"102 -371 OFFCURVE",
"31 -338 CURVE",
"31 -430 LINE",
"86 -454 OFFCURVE",
"179 -473 OFFCURVE",
"252 -473 CURVE SMOOTH",
"445 -473 OFFCURVE",
"559 -349 OFFCURVE",
"616 -76 CURVE SMOOTH",
"858 1085 LINE",
"778 1085 LINE",
"739 956 LINE",
"733 956 LINE",
"706 1056 OFFCURVE",
"648 1106 OFFCURVE",
"559 1106 CURVE SMOOTH",
"480 1106 OFFCURVE",
"408 1069 OFFCURVE",
"342 994 CURVE SMOOTH",
"209 844 OFFCURVE",
"117 541 OFFCURVE",
"117 262 CURVE SMOOTH",
"117 74 OFFCURVE",
"184 -20 OFFCURVE",
"317 -20 CURVE SMOOTH",
"410 -20 OFFCURVE",
"494 39 OFFCURVE",
"571 158 CURVE",
"575 158 LINE",
"520 -86 LINE SMOOTH"
);
},
{
closed = 1;
nodes = (
"245 63 OFFCURVE",
"215 127 OFFCURVE",
"215 248 CURVE SMOOTH",
"215 363 OFFCURVE",
"232 486 OFFCURVE",
"266 617 CURVE SMOOTH",
"334 878 OFFCURVE",
"438 1016 OFFCURVE",
"555 1016 CURVE SMOOTH",
"640 1016 OFFCURVE",
"690 959 OFFCURVE",
"690 848 CURVE SMOOTH",
"690 730 OFFCURVE",
"672 604 OFFCURVE",
"636 471 CURVE SMOOTH",
"564 204 OFFCURVE",
"456 63 OFFCURVE",
"336 63 CURVE SMOOTH"
);
}
);
width = 815;
},
{
anchors = (
{
name = bottom;
position = "{392, 0}";
},
{
name = top;
position = "{732, 1127}";
}
);
background = {
paths = (
{
closed = 1;
nodes = (
"618 -492 OFFCURVE",
"880 -352 OFFCURVE",
"953 -9 CURVE SMOOTH",
"1194 1132 LINE",
"838 1132 LINE",
"789 993 LINE",
"817 980 LINE",
"788 1075 OFFCURVE",
"705 1153 OFFCURVE",
"563 1153 CURVE SMOOTH",
"347 1153 OFFCURVE",
"205 966 OFFCURVE",
"126 594 CURVE SMOOTH",
"41 194 OFFCURVE",
"124 -20 OFFCURVE",
"362 -20 CURVE SMOOTH",
"463 -20 OFFCURVE",
"563 18 OFFCURVE",
"631 121 CURVE",
"590 134 LINE",
"555 4 LINE SMOOTH",
"522 -127 OFFCURVE",
"378 -210 OFFCURVE",
"243 -210 CURVE SMOOTH",
"133 -210 OFFCURVE",
"14 -140 OFFCURVE",
"2 -132 CURVE",
"-37 -424 LINE",
"50 -455 OFFCURVE",
"189 -492 OFFCURVE",
"336 -492 CURVE SMOOTH"
);
},
{
closed = 1;
nodes = (
"481 284 OFFCURVE",
"470 388 OFFCURVE",
"500 529 CURVE SMOOTH",
"534 692 OFFCURVE",
"621 836 OFFCURVE",
"665 836 CURVE SMOOTH",
"682 836 OFFCURVE",
"720 745 OFFCURVE",
"683 570 CURVE SMOOTH",
"673 522 LINE SMOOTH",
"643 379 OFFCURVE",
"540 284 OFFCURVE",
"501 284 CURVE SMOOTH"
);
}
);
};
layerId = "055178C8-6F6F-4B48-86C1-608D4439D248";
paths = (
{
closed = 1;
nodes = (
"620 -492 OFFCURVE",
"851 -350 OFFCURVE",
"923 -9 CURVE SMOOTH",
"1164 1132 LINE",
"838 1132 LINE",
"789 993 LINE",
"817 980 LINE",
"789 1073 OFFCURVE",
"706 1153 OFFCURVE",
"564 1153 CURVE SMOOTH",
"351 1153 OFFCURVE",
"206 973 OFFCURVE",
"126 594 CURVE SMOOTH",
"104 490 OFFCURVE",
"94 405 OFFCURVE",
"94 324 CURVE SMOOTH",
"94 99 OFFCURVE",
"185 -20 OFFCURVE",
"362 -20 CURVE SMOOTH",
"463 -20 OFFCURVE",
"563 18 OFFCURVE",
"631 121 CURVE",
"590 134 LINE",
"555 4 LINE SMOOTH",
"506 -177 OFFCURVE",
"415 -210 OFFCURVE",
"248 -210 CURVE SMOOTH",
"131 -210 OFFCURVE",
"20 -143 OFFCURVE",
"2 -132 CURVE",
"-37 -424 LINE",
"50 -455 OFFCURVE",
"190 -492 OFFCURVE",
"335 -492 CURVE SMOOTH"
);
},
{
closed = 1;
nodes = (
"468 284 OFFCURVE",
"441 314 OFFCURVE",
"441 369 CURVE SMOOTH",
"441 416 OFFCURVE",
"446 469 OFFCURVE",
"460 529 CURVE SMOOTH",
"509 741 OFFCURVE",
"565 836 OFFCURVE",
"640 836 CURVE SMOOTH",
"674 836 OFFCURVE",
"709 817 OFFCURVE",
"709 707 CURVE SMOOTH",
"709 647 OFFCURVE",
"700 603 OFFCURVE",
"693 570 CURVE SMOOTH",
"683 522 LINE SMOOTH",
"641 318 OFFCURVE",
"526 284 OFFCURVE",
"496 284 CURVE SMOOTH"
);
}
);
width = 1195;
}
);
note = g913;
},
{
glyphname = ordfeminine;
lastChange = "2018-04-02 16:06:03 +0000";
layers = (
{
layerId = "9047BFCD-DDCC-4357-AC30-29E5270711EF";
paths = (
{
closed = 1;
nodes = (
"580 1272 LINE SMOOTH",
"588 1307 OFFCURVE",
"592 1336 OFFCURVE",
"592 1360 CURVE SMOOTH",
"592 1439 OFFCURVE",
"548 1479 OFFCURVE",
"459 1479 CURVE SMOOTH",
"399 1479 OFFCURVE",
"330 1457 OFFCURVE",
"289 1436 CURVE",
"309 1370 LINE",
"333 1381 LINE SMOOTH",
"371 1400 OFFCURVE",
"405 1409 OFFCURVE",
"436 1409 CURVE SMOOTH",
"481 1409 OFFCURVE",
"510 1394 OFFCURVE",
"510 1335 CURVE SMOOTH",
"510 1313 OFFCURVE",
"507 1291 OFFCURVE",
"502 1270 CURVE SMOOTH",
"487 1200 LINE",
"389 1190 LINE SMOOTH",
"232 1174 OFFCURVE",
"143 1085 OFFCURVE",
"143 944 CURVE SMOOTH",
"143 860 OFFCURVE",
"195 805 OFFCURVE",
"264 805 CURVE SMOOTH",
"324 805 OFFCURVE",
"371 830 OFFCURVE",
"422 901 CURVE",
"428 901 LINE",
"426 817 LINE",
"483 817 LINE"
);
},
{
closed = 1;
nodes = (
"225 1056 OFFCURVE",
"288 1115 OFFCURVE",
"414 1128 CURVE SMOOTH",
"473 1135 LINE",
"459 1069 LINE SMOOTH",
"434 950 OFFCURVE",
"366 874 OFFCURVE",
"293 874 CURVE SMOOTH",
"248 874 OFFCURVE",
"225 899 OFFCURVE",
"225 950 CURVE SMOOTH"
);
}
);
width = 510;
},
{
layerId = "055178C8-6F6F-4B48-86C1-608D4439D248";
paths = (
{
closed = 1;
nodes = (
"889 1178 LINE SMOOTH",
"895 1207 OFFCURVE",
"898 1234 OFFCURVE",
"898 1260 CURVE SMOOTH",
"898 1392 OFFCURVE",
"820 1479 OFFCURVE",
"665 1479 CURVE SMOOTH",
"586 1479 OFFCURVE",
"483 1456 OFFCURVE",
"371 1395 CURVE",
"430 1225 LINE",
"505 1269 OFFCURVE",
"571 1298 OFFCURVE",
"631 1298 CURVE SMOOTH",
"673 1298 OFFCURVE",
"693 1283 OFFCURVE",
"693 1243 CURVE SMOOTH",
"693 1239 OFFCURVE",
"690 1207 OFFCURVE",
"689 1202 CURVE SMOOTH",
"690 1207 LINE",
"599 1204 LINE SMOOTH",
"393 1198 OFFCURVE",
"301 1148 OFFCURVE",
"268 1001 CURVE SMOOTH",
"261 970 OFFCURVE",
"258 940 OFFCURVE",
"258 916 CURVE SMOOTH",
"258 794 OFFCURVE",
"336 738 OFFCURVE",
"445 738 CURVE SMOOTH",
"520 738 OFFCURVE",
"589 765 OFFCURVE",
"652 850 CURVE",
"645 863 LINE",
"658 750 LINE",
"798 750 LINE"
);
},
{
closed = 1;
nodes = (
"464 990 OFFCURVE",
"522 1058 OFFCURVE",
"595 1066 CURVE SMOOTH",
"661 1073 LINE",
"658 1060 LINE SMOOTH",
"639 977 OFFCURVE",
"568 912 OFFCURVE",
"487 912 CURVE SMOOTH",
"469 912 OFFCURVE",
"464 915 OFFCURVE",
"464 925 CURVE SMOOTH"
);
}
);
width = 726;
}
);
note = ordfeminine;
unicode = 00AA;
},
{
glyphname = ordmasculine;
lastChange = "2018-04-02 16:06:03 +0000";
layers = (
{
layerId = "9047BFCD-DDCC-4357-AC30-29E5270711EF";
paths = (
{
closed = 1;
nodes = (
"637 1414 OFFCURVE",
"569 1479 OFFCURVE",
"465 1479 CURVE SMOOTH",
"410 1479 OFFCURVE",
"360 1459 OFFCURVE",
"315 1420 CURVE SMOOTH",
"226 1340 OFFCURVE",
"164 1163 OFFCURVE",
"164 999 CURVE SMOOTH",
"164 875 OFFCURVE",
"231 805 OFFCURVE",
"342 805 CURVE SMOOTH",
"396 805 OFFCURVE",
"445 826 OFFCURVE",
"488 867 CURVE SMOOTH",
"575 949 OFFCURVE",
"637 1126 OFFCURVE",
"637 1282 CURVE SMOOTH"
);
},
{
closed = 1;
nodes = (
"522 1409 OFFCURVE",
"549 1368 OFFCURVE",
"549 1280 CURVE SMOOTH",
"549 1209 OFFCURVE",
"540 1140 OFFCURVE",
"521 1072 CURVE SMOOTH",
"484 936 OFFCURVE",
"419 870 OFFCURVE",
"342 870 CURVE SMOOTH",
"275 870 OFFCURVE",
"252 912 OFFCURVE",
"252 1004 CURVE SMOOTH",
"252 1069 OFFCURVE",
"262 1136 OFFCURVE",
"281 1204 CURVE SMOOTH",
"320 1340 OFFCURVE",
"380 1409 OFFCURVE",
"457 1409 CURVE SMOOTH"
);
}
);
width = 557;
},
{
layerId = "055178C8-6F6F-4B48-86C1-608D4439D248";
paths = (
{
closed = 1;
nodes = (
"900 1366 OFFCURVE",
"806 1479 OFFCURVE",
"643 1479 CURVE SMOOTH",
"471 1479 OFFCURVE",
"341 1353 OFFCURVE",
"297 1139 CURVE SMOOTH",
"289 1099 OFFCURVE",
"284 1062 OFFCURVE",
"284 1025 CURVE SMOOTH",
"284 852 OFFCURVE",
"379 738 OFFCURVE",
"538 738 CURVE SMOOTH",
"709 738 OFFCURVE",
"845 869 OFFCURVE",
"888 1081 CURVE SMOOTH",
"896 1121 OFFCURVE",
"900 1158 OFFCURVE",
"900 1194 CURVE SMOOTH"
);
},
{
closed = 1;
nodes = (
"482 1012 OFFCURVE",
"487 1044 OFFCURVE",
"495 1081 CURVE SMOOTH",
"525 1222 OFFCURVE",
"578 1291 OFFCURVE",
"655 1291 CURVE SMOOTH",
"689 1291 OFFCURVE",
"703 1277 OFFCURVE",
"703 1234 CURVE SMOOTH",
"703 1211 OFFCURVE",
"699 1179 OFFCURVE",
"690 1139 CURVE SMOOTH",
"659 1002 OFFCURVE",
"606 925 OFFCURVE",
"533 925 CURVE SMOOTH",
"497 925 OFFCURVE",
"482 943 OFFCURVE",
"482 987 CURVE SMOOTH"
);
}
);
width = 715;
}
);
note = ordmasculine;
unicode = 00BA;
},
{
glyphname = nmod;
lastChange = "2018-04-02 16:06:03 +0000";
layers = (
{
layerId = "9047BFCD-DDCC-4357-AC30-29E5270711EF";
paths = (
{
closed = 1;
nodes = (
"647 1214 LINE SMOOTH",
"655 1255 OFFCURVE",
"659 1291 OFFCURVE",
"659 1323 CURVE SMOOTH",
"659 1423 OFFCURVE",
"616 1479 OFFCURVE",
"532 1479 CURVE SMOOTH",
"453 1479 OFFCURVE",
"407 1444 OFFCURVE",
"362 1376 CURVE",
"356 1376 LINE",
"369 1468 LINE",
"305 1468 LINE",
"168 817 LINE",
"252 817 LINE",
"326 1165 LINE SMOOTH",
"361 1329 OFFCURVE",
"412 1405 OFFCURVE",
"504 1405 CURVE SMOOTH",
"550 1405 OFFCURVE",
"573 1374 OFFCURVE",
"573 1311 CURVE SMOOTH",
"573 1280 OFFCURVE",
"568 1239 OFFCURVE",
"557 1188 CURVE SMOOTH",
"479 817 LINE",
"563 817 LINE"
);
}
);
width = 598;
},
{
layerId = "055178C8-6F6F-4B48-86C1-608D4439D248";
paths = (
{
closed = 1;
nodes = (
"962 1220 LINE SMOOTH",
"968 1248 OFFCURVE",
"971 1274 OFFCURVE",
"971 1298 CURVE SMOOTH",
"971 1412 OFFCURVE",
"894 1479 OFFCURVE",
"781 1479 CURVE SMOOTH",
"696 1479 OFFCURVE",
"620 1442 OFFCURVE",
"581 1381 CURVE",
"575 1381 LINE",
"568 1459 LINE",
"403 1459 LINE",
"253 750 LINE",
"465 750 LINE",
"534 1071 LINE SMOOTH",
"567 1226 OFFCURVE",
"621 1288 OFFCURVE",
"709 1288 CURVE SMOOTH",
"737 1288 OFFCURVE",
"749 1282 OFFCURVE",
"749 1252 CURVE SMOOTH",
"749 1237 OFFCURVE",
"746 1216 OFFCURVE",
"740 1187 CURVE SMOOTH",
"648 750 LINE",
"862 750 LINE"
);
}
);
width = 789;
}
);
note = nsuperior;
unicode = 207F;
},
{
glyphname = "Be-cy";
lastChange = "2018-04-02 20:51:21 +0000";
layers = (
{
layerId = "9047BFCD-DDCC-4357-AC30-29E5270711EF";
paths = (
{
closed = 1;
nodes = (
"889 1462 LINE",
"375 1462 LINE",
"66 0 LINE",
"297 0 LINE SMOOTH",
"574 0 OFFCURVE",
"743 191 OFFCURVE",
"743 500 CURVE SMOOTH",
"743 707 OFFCURVE",
"631 813 OFFCURVE",
"420 813 CURVE SMOOTH",
"336 813 LINE",
"455 1368 LINE",
"870 1368 LINE"
);
},
{
closed = 1;
nodes = (
"391 723 LINE SMOOTH",
"560 723 OFFCURVE",
"641 651 OFFCURVE",
"641 498 CURVE SMOOTH",
"641 243 OFFCURVE",
"522 90 OFFCURVE",
"317 90 CURVE SMOOTH",
"182 90 LINE",
"317 723 LINE"
);
}
);
width = 778;
},
{
layerId = "055178C8-6F6F-4B48-86C1-608D4439D248";
paths = (
{
closed = 1;
nodes = (
"1025 1462 LINE",
"277 1462 LINE",
"-33 0 LINE",
"399 0 LINE SMOOTH",
"702 0 OFFCURVE",
"887 168 OFFCURVE",
"946 454 CURVE SMOOTH",
"956 503 OFFCURVE",
"961 547 OFFCURVE",
"961 589 CURVE SMOOTH",
"961 808 OFFCURVE",
"818 924 OFFCURVE",
"555 924 CURVE SMOOTH",
"511 924 LINE",
"562 1164 LINE",
"962 1164 LINE"
);
},
{
closed = 1;
nodes = (
"487 623 LINE SMOOTH",
"580 623 OFFCURVE",
"612 587 OFFCURVE",
"612 535 CURVE SMOOTH",
"612 454 OFFCURVE",
"537 298 OFFCURVE",
"416 298 CURVE SMOOTH",
"378 298 LINE",
"447 623 LINE"
);
}
);
width = 1054;
}
);
note = afii10018;
unicode = 0411;
},
{
glyphname = "Ge-cy";
lastChange = "2018-04-02 20:51:21 +0000";
layers = (
{
anchors = (
{
name = bottomright;
position = "{463, 0}";
},
{
name = top;
position = "{654, 1462}";
}
);
layerId = "9047BFCD-DDCC-4357-AC30-29E5270711EF";
paths = (
{
closed = 1;
nodes = (
"66 0 LINE",
"164 0 LINE",
"451 1362 LINE",
"762 1362 LINE",
"784 1462 LINE",
"375 1462 LINE"
);
}
);
width = 598;
},
{
anchors = (
{
name = bottomright;
position = "{736, 0}";
},
{
name = top;
position = "{629, 1462}";
}
);
layerId = "055178C8-6F6F-4B48-86C1-608D4439D248";
paths = (
{
closed = 1;
nodes = (
"-38 0 LINE",
"307 0 LINE",
"554 1166 LINE",
"924 1166 LINE",
"987 1462 LINE",
"271 1462 LINE"
);
}
);
width = 876;
}
);
note = afii10020;
unicode = 0413;
},
{
glyphname = "Gje-cy";
lastChange = "2018-04-03 15:09:00 +0000";
layers = (
{
background = {
paths = (
{
closed = 1;
nodes = (
"66 0 LINE",
"164 0 LINE",
"451 1362 LINE",
"762 1362 LINE",
"784 1462 LINE",
"375 1462 LINE"
);
},
{
closed = 1;
nodes = (
"679 1662 OFFCURVE",
"826 1806 OFFCURVE",
"882 1890 CURVE",
"882 1907 LINE",
"743 1907 LINE",
"697 1823 OFFCURVE",
"623 1719 OFFCURVE",
"520 1595 CURVE",
"520 1579 LINE",
"571 1579 LINE"
);
}
);
};
components = (
{
name = "Ge-cy";
},
{
name = acutecomb;
transform = "{1, 0, 0, 1, 389, 377}";
}
);
layerId = "9047BFCD-DDCC-4357-AC30-29E5270711EF";
width = 598;
},
{
components = (
{
name = "Ge-cy";
},
{
name = acutecomb;
transform = "{1, 0, 0, 1, 339, 335}";
}
);
layerId = "055178C8-6F6F-4B48-86C1-608D4439D248";
width = 876;
}
);
note = afii10052;
unicode = 0403;
},
{
glyphname = "Gheupturn-cy";
lastChange = "2018-04-02 20:51:21 +0000";
layers = (
{
layerId = "9047BFCD-DDCC-4357-AC30-29E5270711EF";
paths = (
{
closed = 1;
nodes = (
"879 1763 LINE",
"782 1763 LINE",
"719 1462 LINE",
"375 1462 LINE",
"63 0 LINE",
"162 0 LINE",
"453 1368 LINE",
"795 1368 LINE"
);
}
);
width = 616;
},
{
layerId = "055178C8-6F6F-4B48-86C1-608D4439D248";
paths = (
{
closed = 1;
nodes = (
"1094 1772 LINE",
"758 1772 LINE",
"692 1462 LINE",
"264 1462 LINE",
"-45 0 LINE",
"300 0 LINE",
"547 1166 LINE",
"966 1166 LINE"
);
}
);
width = 911;
}
);
note = afii10050;
unicode = 0490;
},
{
glyphname = "De-cy";
lastChange = "2018-04-02 20:51:21 +0000";
layers = (
{
layerId = "9047BFCD-DDCC-4357-AC30-29E5270711EF";
paths = (
{
closed = 1;
nodes = (
"655 94 LINE",
"946 1462 LINE",
"537 1462 LINE",
"429 954 OFFCURVE",
"249 458 OFFCURVE",
"49 94 CURVE",
"-29 94 LINE",
"-127 -369 LINE",
"-29 -369 LINE",
"49 0 LINE",
"651 0 LINE",
"571 -369 LINE",
"670 -369 LINE",
"768 94 LINE"
);
},
{
closed = 1;
nodes = (
"199 181 OFFCURVE",
"251 290 OFFCURVE",
"307 423 CURVE SMOOTH",
"419 687 OFFCURVE",
"535 1037 OFFCURVE",
"614 1368 CURVE",
"827 1368 LINE",
"557 94 LINE",
"150 94 LINE"
);
}
);
width = 844;
},
{
layerId = "055178C8-6F6F-4B48-86C1-608D4439D248";
paths = (
{
closed = 1;
nodes = (
"1091 302 LINE",
"1337 1462 LINE",
"572 1462 LINE",
"428 1040 OFFCURVE",
"233 619 OFFCURVE",
"38 302 CURVE",
"-38 302 LINE",
"-194 -440 LINE",
"142 -440 LINE",
"235 0 LINE",
"874 0 LINE",
"781 -440 LINE",
"1117 -440 LINE",
"1274 302 LINE"
);
},
{
closed = 1;
nodes = (
"559 553 OFFCURVE",
"710 899 OFFCURVE",
"806 1160 CURVE",
"926 1160 LINE",
"744 302 LINE",
"418 302 LINE"
);
}
);
width = 1348;
}
);
note = afii10021;
unicode = 0414;
},
{
glyphname = "Zhe-cy";
lastChange = "2018-04-02 20:51:21 +0000";
layers = (
{
anchors = (
{
name = bottomright;
position = "{875, 0}";
},
{
name = top;
position = "{740, 1462}";
}
);
layerId = "9047BFCD-DDCC-4357-AC30-29E5270711EF";
paths = (
{
closed = 1;
nodes = (
"340 1462 LINE",
"240 1462 LINE",
"440 760 LINE",
"-76 0 LINE",
"37 0 LINE",
"537 748 LINE",
"379 0 LINE",
"477 0 LINE",
"635 750 LINE",
"827 0 LINE",
"932 0 LINE",
"733 750 LINE",
"1231 1462 LINE",
"1128 1462 LINE",
"637 758 LINE",
"786 1462 LINE",
"688 1462 LINE",
"539 756 LINE"
);
}
);
width = 1010;
},
{
anchors = (
{
name = bottomright;
position = "{1511, 0}";
},
{
name = top;
position = "{1017, 1462}";
}
);
layerId = "055178C8-6F6F-4B48-86C1-608D4439D248";
paths = (
{
closed = 1;
nodes = (
"260 0 LINE",
"701 730 LINE",
"547 0 LINE",
"867 0 LINE",
"1025 747 LINE",
"1164 0 LINE",
"1529 0 LINE",
"1351 763 LINE",
"1844 1462 LINE",
"1479 1462 LINE",
"1029 762 LINE",
"1177 1462 LINE",
"856 1462 LINE",
"704 744 LINE",
"543 1462 LINE",
"199 1462 LINE",
"388 759 LINE",
"-122 0 LINE"
);
}
);
width = 1651;
}
);
note = afii10024;
unicode = 0416;
},
{
glyphname = "Ze-cy";
lastChange = "2018-04-02 20:51:21 +0000";
layers = (
{
anchors = (
{
name = bottom;
position = "{221, 0}";
},
{
name = top;
position = "{561, 1462}";
}
);
layerId = "9047BFCD-DDCC-4357-AC30-29E5270711EF";
paths = (
{
closed = 1;
nodes = (
"782 1377 OFFCURVE",
"679 1483 OFFCURVE",
"508 1483 CURVE SMOOTH",
"412 1483 OFFCURVE",
"325 1451 OFFCURVE",
"248 1386 CURVE",
"295 1305 LINE",
"390 1377 OFFCURVE",
"435 1389 OFFCURVE",
"508 1389 CURVE SMOOTH",
"625 1389 OFFCURVE",
"684 1324 OFFCURVE",
"684 1194 CURVE SMOOTH",
"684 971 OFFCURVE",
"534 805 OFFCURVE",
"338 805 CURVE SMOOTH",
"238 805 LINE",
"219 711 LINE",
"324 711 LINE SMOOTH",
"465 711 OFFCURVE",
"543 624 OFFCURVE",
"543 449 CURVE SMOOTH",
"543 225 OFFCURVE",
"420 74 OFFCURVE",
"219 74 CURVE SMOOTH",
"129 74 OFFCURVE",
"54 97 OFFCURVE",
"-6 143 CURVE",
"-6 29 LINE",
"51 -4 OFFCURVE",
"130 -20 OFFCURVE",
"231 -20 CURVE SMOOTH",
"478 -20 OFFCURVE",
"643 178 OFFCURVE",
"643 463 CURVE SMOOTH",
"643 618 OFFCURVE",
"586 716 OFFCURVE",
"473 758 CURVE",
"475 764 LINE",
"662 808 OFFCURVE",
"782 977 OFFCURVE",
"782 1206 CURVE SMOOTH"
);
}
);
width = 731;
},
{
anchors = (
{
name = bottom;
position = "{414, 0}";
},
{
name = top;
position = "{725, 1462}";
}
);
layerId = "055178C8-6F6F-4B48-86C1-608D4439D248";
paths = (
{
closed = 1;
nodes = (
"1105 1356 OFFCURVE",
"958 1483 OFFCURVE",
"722 1483 CURVE SMOOTH",
"560 1483 OFFCURVE",
"379 1448 OFFCURVE",
"204 1320 CURVE",
"333 1070 LINE",
"438 1150 OFFCURVE",
"541 1195 OFFCURVE",
"647 1195 CURVE SMOOTH",
"729 1195 OFFCURVE",
"761 1168 OFFCURVE",
"761 1116 CURVE SMOOTH",
"761 1107 OFFCURVE",
"760 1097 OFFCURVE",
"757 1084 CURVE SMOOTH",
"734 968 OFFCURVE",
"624 898 OFFCURVE",
"428 898 CURVE SMOOTH",
"361 898 LINE",
"302 619 LINE",
"411 619 LINE SMOOTH",
"582 619 OFFCURVE",
"662 573 OFFCURVE",
"662 507 CURVE SMOOTH",
"662 491 OFFCURVE",
"655 461 OFFCURVE",
"648 440 CURVE SMOOTH",
"608 328 OFFCURVE",
"494 261 OFFCURVE",
"329 261 CURVE SMOOTH",
"234 261 OFFCURVE",
"121 282 OFFCURVE",
"21 342 CURVE",
"-17 62 LINE",
"66 13 OFFCURVE",
"200 -20 OFFCURVE",
"396 -20 CURVE SMOOTH",
"649 -20 OFFCURVE",
"867 97 OFFCURVE",
"956 292 CURVE SMOOTH",
"981 346 OFFCURVE",
"997 407 OFFCURVE",
"997 473 CURVE SMOOTH",
"997 653 OFFCURVE",
"867 737 OFFCURVE",
"676 761 CURVE",
"676 769 LINE",
"903 790 OFFCURVE",
"1058 906 OFFCURVE",
"1096 1082 CURVE SMOOTH",
"1103 1113 OFFCURVE",
"1105 1144 OFFCURVE",
"1105 1166 CURVE SMOOTH"
);
}
);
width = 1067;
}
);
note = afii10025;
unicode = 0417;
},
